<svg width="14" height="13" viewBox="0 0 14 13" fill="none" xmlns="http://www.w3.org/2000/svg">
<path fill-rule="evenodd" clip-rule="evenodd" d="M0 2.98099C0 3.17999 0.0669956 3.30499 0.257996 3.38699L6.047 5.82898C6.532 6.03598 6.496 6.051 6.985 5.836L12.36 3.56699C12.496 3.51199 12.637 3.44999 12.77 3.39499C12.934 3.32899 13.024 3.19999 13.047 3.06699V2.94199C13.028 2.82099 12.95 2.7 12.817 2.625L9.485 1.21899C9.184 1.08999 6.68399 0 6.52399 0C6.37499 0 5.83999 0.261982 5.67599 0.324982C5.52399 0.386982 5.414 0.438 5.266 0.5L0.660995 2.44598C0.343995 2.57498 0 2.65299 0 2.98099Z" fill="white"/>
<path fill-rule="evenodd" clip-rule="evenodd" d="M0 9.50398C0 9.86398 0.265997 9.92196 0.671997 10.083C0.820997 10.141 0.934001 10.196 1.082 10.258C1.235 10.321 1.34799 10.364 1.49599 10.43C1.64099 10.497 1.762 10.543 1.911 10.602L4.39899 11.657C4.66399 11.766 6.332 12.512 6.5 12.512C6.758 12.512 7.957 11.946 8.219 11.836L9.047 11.489C9.321 11.368 9.606 11.258 9.887 11.133L11.122 10.61C11.274 10.547 11.387 10.504 11.536 10.438L12.77 9.91496C12.934 9.84796 13.024 9.72298 13.047 9.58598V9.46498C13.028 9.34398 12.954 9.23097 12.832 9.15697L12.227 8.89497C12.098 8.84797 11.735 9.04697 11.602 9.10597L9.95399 9.80098C9.81699 9.86398 9.696 9.91098 9.559 9.96498L8.739 10.317C8.59 10.375 8.469 10.422 8.325 10.489C7.981 10.641 6.883 11.133 6.625 11.133C6.075 11.133 6.079 11.047 5.567 10.844L1.055 8.93797C0.829 8.83597 0.859999 8.88298 0.640999 8.97298C0.355999 9.08998 0 9.16798 0 9.50398Z" fill="white"/>
<path fill-rule="evenodd" clip-rule="evenodd" d="M0 5.12198C0 5.31698 0.0359978 5.44599 0.253998 5.55499L1.508 6.086C2.59 6.52 3.762 7.06298 4.84 7.49698C5 7.56298 6.38699 8.172 6.52399 8.172C6.66799 8.172 9.489 6.94998 9.872 6.78998L11.539 6.086C11.672 6.032 11.817 5.97298 11.95 5.91498C12.325 5.74698 13.047 5.55499 13.047 5.22299C13.047 4.98499 12.993 4.868 12.704 4.75C12.012 4.469 12.34 4.43798 11.141 4.94998L7.993 6.28198C7.746 6.38698 7.532 6.48098 7.293 6.57898C7.18 6.62198 7.071 6.67599 6.95 6.71899C6.364 6.91799 6.039 6.69999 5.434 6.44199L4.739 6.14499C4.614 6.09399 4.504 6.05098 4.375 5.99698L2.981 5.40298C2.668 5.26198 0.956996 4.53598 0.867996 4.53598C0.824996 4.53598 0.437998 4.71498 0.363998 4.74298C0.214998 4.80098 0 4.91798 0 5.12198Z" fill="white"/>
<path fill-rule="evenodd" clip-rule="evenodd" d="M0 7.28998C0 7.70398 0.226999 7.72299 0.640999 7.89499L5.657 10.012C6.774 10.454 6.254 10.485 7.782 9.84799L12.582 7.82098C12.649 7.79298 12.731 7.76599 12.801 7.73099C12.95 7.65299 13.028 7.53198 13.047 7.40698V7.28598C13.032 7.19998 12.993 7.11799 12.926 7.05099C12.848 6.97299 12.786 6.96098 12.68 6.91498C12.61 6.88298 12.192 6.70398 12.153 6.70398C12.125 6.70398 10.914 7.21898 10.77 7.28198L8.711 8.14899C8.473 8.24699 8.254 8.34398 8.012 8.44598C6.864 8.92598 6.704 9.172 5.75 8.75L0.894997 6.70398C0.882997 6.70398 0.230996 6.94998 0.132996 7.03998C0.0749956 7.09398 0 7.18398 0 7.28998Z" fill="white"/>
</svg>
