<svg width="26" height="24" viewBox="0 0 26 24" fill="none" xmlns="http://www.w3.org/2000/svg">
<path fill-rule="evenodd" clip-rule="evenodd" d="M0.353348 2.71497V20.375C0.353348 21.863 1.73135 23.16 3.01735 23.16H20.9193C21.4313 23.16 22.0673 22.84 22.3683 22.613C22.7823 22.297 23.0403 21.98 23.2823 21.496C23.5523 20.941 23.5523 20.547 23.5523 19.738V9.62097C23.4383 9.65197 23.4464 9.69099 23.3604 9.76599C23.2824 9.83199 23.2593 9.83997 23.1813 9.91797C23.1063 9.99197 23.0753 10.0039 23.0013 10.0699C22.9273 10.1369 22.8954 10.18 22.8134 10.246L21.3643 11.5229C21.2903 11.5939 21.2593 11.602 21.1813 11.672C21.0953 11.762 20.6454 12.1089 20.6454 12.1949V20.254H3.29034C3.21234 20.051 3.25934 12.488 3.25934 11.59C3.25934 8.69097 3.25934 5.79695 3.25934 2.89795H20.6454V3.38306C20.7554 3.35206 21.8063 2.38299 21.8493 2.34399L22.1423 2.09399C22.3683 1.91799 22.8884 1.41397 23.0674 1.29297C22.6264 0.632969 21.7283 0.0200195 20.9464 0.0200195H2.95435C2.03635 0.0200195 1.04834 0.793006 0.622345 1.65601C0.497345 1.90601 0.353348 2.33997 0.353348 2.71497Z" fill="#3D5E4D"/>
<path fill-rule="evenodd" clip-rule="evenodd" d="M11.9503 12.7419L11.7314 12.4771C11.4894 12.2151 11.2743 11.93 11.0213 11.676L10.0833 10.613C10.0323 10.551 10.0324 10.5391 9.97435 10.4771L8.45834 8.75403C8.35634 8.63303 8.31735 8.60902 8.22835 8.47302C7.97835 8.60202 7.00934 9.53099 6.73134 9.76599L5.25934 11.074C5.32934 11.211 5.89935 11.8519 6.03635 11.9919L6.83734 12.891C6.96234 13.047 7.09534 13.195 7.23534 13.34C7.31734 13.426 7.34535 13.477 7.43135 13.566L8.83734 15.16C8.91934 15.262 8.95035 15.2891 9.03635 15.3831L11.2283 17.887C11.3493 18.035 11.4974 18.242 11.6494 18.344L12.5053 17.594C12.8923 17.207 13.5953 16.688 13.9893 16.293C14.0753 16.207 14.1303 16.184 14.2163 16.098C14.3023 16.012 14.3493 15.9919 14.4273 15.9139C14.5173 15.8319 14.5483 15.809 14.6383 15.73C15.0173 15.414 16.0093 14.4841 16.3453 14.2271C16.7943 13.8791 17.6144 13.0591 18.0714 12.7111L21.5053 9.69495C21.9583 9.34795 22.3563 8.92204 22.8023 8.56604L24.9424 6.68005C25.0754 6.57405 25.2823 6.42594 25.3683 6.28894L23.9073 4.60205C23.6613 4.35205 22.9234 3.41797 22.7354 3.29297C22.5014 3.44897 21.4113 4.48796 21.0563 4.76196L19.2123 6.375C19.1423 6.438 19.1183 6.47301 19.0403 6.53101C18.5633 6.89801 18.0133 7.46501 17.5213 7.85901L15.6693 9.49194C15.5993 9.55894 15.5713 9.56603 15.5013 9.62903C15.0673 10.035 14.5993 10.398 14.1733 10.812L11.9503 12.7419Z" fill="#3D5E4D"/>
</svg>
