<svg width="15" height="11" viewBox="0 0 15 11" fill="none" xmlns="http://www.w3.org/2000/svg">
<path fill-rule="evenodd" clip-rule="evenodd" d="M11.1383 10.984C12.0523 10.754 12.3293 9.39106 11.7433 8.55106C11.4273 8.10206 11.0523 8.12503 10.3453 8.12503C9.74333 8.12103 9.14233 8.121 8.53633 8.121C7.32133 8.125 6.10633 8.12103 4.89233 8.12503C3.72833 8.12503 2.41934 8.07003 1.27134 8.12503C0.942336 8.19903 0.88033 8.21903 0.65733 8.42203C0.0403298 8.99203 0.0793358 10.5741 1.02134 10.9411C1.25534 11.0311 1.64533 10.992 1.91533 10.992C2.85333 10.992 10.7823 11.027 11.1383 10.98V10.984Z" fill="white"/>
<path fill-rule="evenodd" clip-rule="evenodd" d="M0.997346 7.16794C1.57935 7.27294 2.29434 7.21896 2.91934 7.21896C3.55234 7.21896 4.18834 7.21896 4.82534 7.21896C5.76734 7.21896 7.88834 7.17996 8.68534 7.21896C8.52834 7.06996 7.92334 6.82799 7.76734 6.55099C7.68834 6.53499 7.75134 6.56196 7.68534 6.51596C7.68534 6.51596 7.63435 6.47296 7.63435 6.46896C6.92735 5.78096 6.78234 5.24196 6.51734 4.34396C4.90334 4.28896 3.20435 4.33996 1.57935 4.34396C1.13435 4.33996 0.899342 4.38699 0.657342 4.64499C0.200342 5.12499 0.122344 5.95294 0.403344 6.54294C0.485344 6.71894 0.552348 6.80496 0.661348 6.92196C0.782348 7.05096 0.892346 7.07391 0.997346 7.16391V7.16794Z" fill="white"/>
<path fill-rule="evenodd" clip-rule="evenodd" d="M7.76334 0.926025C7.86834 0.742025 8.06334 0.70296 8.18134 0.55896H1.25935C0.919346 0.63296 0.696346 0.741969 0.509346 1.04297C-0.0646539 1.96097 0.294347 3.43399 1.41135 3.43799C3.10335 3.43799 4.81334 3.46099 6.50134 3.43799C6.50934 2.72999 6.88834 1.89506 7.29834 1.38306L7.70435 0.953003C7.75935 0.914003 7.69634 0.944997 7.76334 0.921997V0.926025Z" fill="white"/>
<path fill-rule="evenodd" clip-rule="evenodd" d="M10.2673 1.86697C11.5173 1.60197 12.5013 2.56607 12.6773 3.56607C12.8953 4.80107 12.0133 5.74207 11.0173 5.94107C9.16134 6.30907 7.83735 4.10199 8.98535 2.63699C9.29035 2.24599 9.62234 2.00797 10.2673 1.86697ZM7.82534 3.08609C7.76334 3.32809 7.71235 3.59007 7.70835 3.86307C7.70435 4.15207 7.79834 4.44497 7.79834 4.66397C8.01734 4.98797 8.12635 5.99605 9.51335 6.59805C10.1963 6.89505 11.1143 6.88698 11.8173 6.56998C12.0323 6.47298 12.2203 6.32403 12.3843 6.25003C12.7083 6.54303 13.5013 7.40607 13.7353 7.56607L14.3103 6.97305C14.1653 6.77005 13.2003 5.91809 12.9893 5.63309C13.0833 5.45309 13.1883 5.33201 13.2903 5.10501C13.3883 4.88301 13.4313 4.738 13.4853 4.496C13.5953 4.023 13.5523 3.49599 13.4233 3.05899C12.5993 0.35199 8.71234 0.246089 7.82534 3.08609Z" fill="white"/>
</svg>
