<svg width="16" height="15" viewBox="0 0 16 15" fill="none" xmlns="http://www.w3.org/2000/svg">
<path fill-rule="evenodd" clip-rule="evenodd" d="M7.77014 0C7.65714 0.629 7.96113 1.687 7.54013 1.742C7.30513 1.773 7.20414 1.441 6.80914 1.578C6.23514 1.781 6.42214 2.656 7.06314 2.578C7.27014 2.554 7.53614 2.20299 7.71914 2.51099C7.81714 2.67499 7.73114 4.06595 7.76614 4.39795C8.05114 4.39795 9.52413 4.35898 9.65313 4.44098C9.94613 4.63198 9.60614 4.87096 9.57514 5.09296C9.49314 5.73796 10.3721 5.90996 10.5751 5.34296C10.7151 4.95296 10.3561 4.83897 10.4181 4.58197C10.4581 4.44097 10.5671 4.39795 10.7351 4.39795H12.1531C12.2001 3.83195 11.9611 3.035 11.7661 2.586C11.5281 2.043 11.1921 1.62497 10.8721 1.29297C10.0901 0.475969 8.96914 0.027 7.77014 0Z" fill="white"/>
<path fill-rule="evenodd" clip-rule="evenodd" d="M5.95014 10.574L7.23114 10.586C7.23114 10.277 7.19614 8.23396 7.24714 8.12896C7.27014 7.91396 7.45014 7.79298 7.71114 7.97998C7.90314 8.11298 8.16514 8.11696 8.34014 7.96496C8.71514 7.63596 8.50414 7.03499 7.99714 7.04699C7.72714 7.05399 7.61414 7.31996 7.39114 7.21496C7.18414 7.11696 7.24314 6.80799 7.24314 6.54999C7.24314 6.00699 7.24314 5.46499 7.24314 4.92199C6.85214 4.88199 5.66114 4.95297 5.43814 4.90997C5.32914 4.88597 5.23914 4.78097 5.23914 4.65997C5.23514 4.52297 5.33614 4.45295 5.38314 4.35095C5.48914 4.12895 5.41514 3.88595 5.22314 3.72595C4.81714 3.38595 4.15714 3.894 4.47714 4.414C4.53614 4.507 4.63314 4.57797 4.57514 4.74597C4.53614 4.85497 4.43814 4.91 4.29014 4.914C4.00114 4.925 3.68814 4.918 3.39514 4.914C3.46114 5.547 3.64514 6.00397 3.89114 6.49597C4.43014 7.56197 5.02414 7.55397 5.62514 8.86297C5.92614 9.51497 5.90714 9.92197 5.95014 10.574Z" fill="white"/>
<path fill-rule="evenodd" clip-rule="evenodd" d="M11.0862 4.914C11.1532 5.304 11.0861 5.61295 10.8831 5.85095C10.1761 6.67495 8.81715 6.015 9.09015 4.914H7.75815V6.55798C8.19615 6.52298 8.37215 6.53099 8.67215 6.76099C9.11415 7.10099 9.23515 7.83598 8.67615 8.35498C8.44615 8.57398 8.14115 8.62095 7.75815 8.56195L7.77015 10.605H9.56315C9.58615 10.468 9.57115 10.25 9.58315 10.097C9.66515 9.11698 10.0551 8.32795 10.7311 7.64795C11.5711 6.79995 11.9302 6.109 12.1292 4.914H11.0862Z" fill="white"/>
<path fill-rule="evenodd" clip-rule="evenodd" d="M5.93415 4.35095L7.23115 4.38196V3.37897C7.23115 3.32397 7.23115 3.27296 7.23115 3.21796C7.23515 3.04696 7.24315 3.10499 7.19215 3.08899C6.98115 3.07799 6.88715 3.12496 6.66115 3.05396C6.23915 2.92496 5.91115 2.52295 5.93815 2.01495C5.95415 1.63595 6.14915 1.40597 6.34015 1.24597C6.65715 0.979972 6.97315 1.04698 7.24315 1.06598L7.23915 0.0310059C6.16515 0.191006 5.52015 0.514988 4.77015 1.17499C4.35215 1.54299 3.93815 2.13201 3.70415 2.69501C3.55515 3.05801 3.30115 3.93298 3.36815 4.39398H3.90715C3.92215 4.26898 3.85615 4.10899 3.90715 3.88599C4.12215 2.95299 5.31715 2.90201 5.70015 3.44501C6.02415 3.91401 5.91115 3.95695 5.93415 4.35095Z" fill="white"/>
<path fill-rule="evenodd" clip-rule="evenodd" d="M7.75814 14.4839C8.54014 14.4839 9.19214 13.898 9.28614 13.191H6.23114C6.34014 13.894 6.96514 14.4879 7.75814 14.4839Z" fill="white"/>
<path fill-rule="evenodd" clip-rule="evenodd" d="M5.18013 12.488C5.23913 12.715 5.48513 12.675 5.70813 12.675H9.96913C10.5041 12.679 10.3951 12.222 10.1531 12.168C10.0471 12.14 6.05513 12.16 5.55113 12.156C5.43013 12.156 5.34414 12.148 5.26614 12.222C5.20414 12.273 5.15313 12.371 5.18013 12.488Z" fill="white"/>
<path fill-rule="evenodd" clip-rule="evenodd" d="M5.18415 11.461C5.24715 11.675 5.47314 11.6399 5.70814 11.6399H9.96914C10.1761 11.6399 10.4031 11.5779 10.3361 11.3119C10.2821 11.0929 10.0471 11.125 9.80915 11.125H5.55115C5.34015 11.121 5.10615 11.191 5.18415 11.461Z" fill="white"/>
<path fill-rule="evenodd" clip-rule="evenodd" d="M12.4381 7.29996C12.4691 7.45296 12.7861 7.59695 12.9381 7.68295L14.0361 8.31998C14.1291 8.37098 14.2311 8.43693 14.3601 8.38193C14.4501 8.34293 14.5361 8.24193 14.5081 8.09293C14.4811 7.95293 14.3831 7.91795 14.2781 7.86295L13.4541 7.38193C13.2701 7.27693 13.0941 7.17495 12.9031 7.06595C12.5281 6.85095 12.4031 7.14396 12.4381 7.29996Z" fill="white"/>
<path fill-rule="evenodd" clip-rule="evenodd" d="M3.07515 7.31999C3.12915 7.16399 2.98515 6.85093 2.62915 7.06193L1.52815 7.69499C1.40315 7.76899 1.07115 7.91796 1.02015 8.05796C0.977152 8.19496 1.04315 8.32798 1.14515 8.37498C1.26615 8.43698 1.37915 8.37898 1.46915 8.32798C1.65315 8.22198 1.83615 8.11697 2.02015 8.01097C2.21915 7.89397 3.01215 7.49199 3.07515 7.31999Z" fill="white"/>
<path fill-rule="evenodd" clip-rule="evenodd" d="M14.4851 0.784989C14.5041 0.741989 14.5201 0.640019 14.5041 0.578019C14.4771 0.445019 14.3051 0.31599 14.0791 0.44899C13.8991 0.55399 13.7111 0.663969 13.5281 0.764969C13.3561 0.866969 12.5241 1.312 12.4611 1.433C12.3441 1.648 12.5711 1.90998 12.8561 1.75398C13.0321 1.65598 13.2351 1.535 13.4071 1.433C13.5671 1.339 14.4501 0.850989 14.4851 0.784989Z" fill="white"/>
<path fill-rule="evenodd" clip-rule="evenodd" d="M0.0121417 4.47998C0.0671417 4.68698 0.313147 4.656 0.543148 4.656H1.96115C2.48115 4.656 2.35614 4.19894 2.13714 4.14794C2.04714 4.12894 0.575147 4.13995 0.364147 4.13995C0.231147 4.13595 0.157145 4.13199 0.0751452 4.21099C0.0121452 4.27699 -0.0188583 4.36298 0.0121417 4.47998Z" fill="white"/>
<path fill-rule="evenodd" clip-rule="evenodd" d="M1.02014 0.733957C1.07514 0.874957 1.39114 1.01496 1.53614 1.10096L2.63714 1.73799C2.98914 1.93699 3.13314 1.63601 3.07114 1.46101C3.02814 1.34301 2.91514 1.30001 2.82914 1.25001L1.45414 0.456979C1.10614 0.256979 0.958139 0.565957 1.02014 0.733957Z" fill="white"/>
<path fill-rule="evenodd" clip-rule="evenodd" d="M13.2081 4.47996C13.2741 4.68296 13.5011 4.65598 13.7351 4.65598H15.1531C15.3791 4.65598 15.5631 4.58598 15.5081 4.32798C15.4651 4.10498 15.2001 4.13993 14.9771 4.13993H13.5551C13.4261 4.13993 13.3481 4.13594 13.2701 4.21494C13.2111 4.27694 13.1721 4.37096 13.2081 4.47996Z" fill="white"/>
</svg>
