<svg width="13" height="13" viewBox="0 0 13 13" fill="none" xmlns="http://www.w3.org/2000/svg">
<path fill-rule="evenodd" clip-rule="evenodd" d="M6.50934 0C8.30234 0 9.92735 0.726978 11.1033 1.90198C12.2743 3.07798 13.0053 4.69894 13.0053 6.49194C13.0053 8.28894 12.2743 9.91006 11.1033 11.0861C9.92735 12.2621 8.30234 12.988 6.50934 12.988C4.71634 12.988 3.09134 12.2621 1.91534 11.0861C0.739344 9.91006 0.0133362 8.28894 0.0133362 6.49194C0.0133362 4.69894 0.739344 3.07798 1.91534 1.90198C3.09134 0.726978 4.71634 0 6.50934 0ZM10.6383 2.36304C9.57934 1.30904 8.12234 0.651978 6.50934 0.651978C4.89534 0.651978 3.43534 1.30904 2.37634 2.36304C1.32134 3.42204 0.669342 4.88294 0.669342 6.49194C0.669342 8.10494 1.32134 9.566 2.37634 10.625C3.43534 11.68 4.89534 12.3359 6.50934 12.3359C8.12234 12.3359 9.57934 11.68 10.6383 10.625C11.6963 9.566 12.3493 8.10494 12.3493 6.49194C12.3493 4.88294 11.6963 3.42204 10.6383 2.36304Z" fill="#565757"/>
<path fill-rule="evenodd" clip-rule="evenodd" d="M6.40735 6.28101L3.03235 3.68799H9.79034L6.40735 6.28101ZM5.23935 6.06201L2.50934 8.29297V3.96899L5.23935 6.06201ZM5.68535 6.40198L6.40735 6.97302L7.17734 6.37903L9.83334 8.59399H3.00534L5.68535 6.40198ZM7.61435 6.03894L10.3133 3.96899V8.28503L7.61435 6.03894Z" fill="#565757"/>
</svg>
