<svg width="13" height="14" viewBox="0 0 13 14" fill="none" xmlns="http://www.w3.org/2000/svg">
<path fill-rule="evenodd" clip-rule="evenodd" d="M6.50934 0.684082C8.30234 0.684082 9.92735 1.40994 11.1033 2.58594C12.2743 3.76194 13.0053 5.38303 13.0053 7.17603C13.0053 8.97303 12.2743 10.594 11.1033 11.77C9.92735 12.945 8.30234 13.6721 6.50934 13.6721C4.71634 13.6721 3.09134 12.945 1.91534 11.77C0.739344 10.594 0.0133362 8.97303 0.0133362 7.17603C0.0133362 5.38303 0.739344 3.76194 1.91534 2.58594C3.09134 1.40994 4.71634 0.684082 6.50934 0.684082ZM10.6383 3.04712C9.57934 1.99212 8.12234 1.33594 6.50934 1.33594C4.89534 1.33594 3.43534 1.99212 2.37634 3.04712C1.32134 4.10512 0.669342 5.56203 0.669342 7.17603C0.669342 8.78903 1.32134 10.2501 2.37634 11.3091C3.43534 12.3631 4.89534 13.02 6.50934 13.02C8.12234 13.02 9.57934 12.3631 10.6383 11.3091C11.6963 10.2501 12.3493 8.78903 12.3493 7.17603C12.3493 5.56203 11.6963 4.10512 10.6383 3.04712Z" fill="#565757"/>
<path fill-rule="evenodd" clip-rule="evenodd" d="M9.83735 3.93396C9.97835 3.87096 10.2514 3.86695 10.2714 4.06995C10.2514 4.31195 10.1924 4.54689 10.1534 4.78089C9.72036 6.95289 9.26335 9.11698 8.78235 11.277C8.72435 11.359 8.64935 11.4529 8.53635 11.4569C8.39935 11.4379 8.28634 11.3439 8.17734 11.2699C7.48934 10.7969 6.79835 10.3359 6.11435 9.86292C5.75535 10.1989 5.38835 10.5198 5.03635 10.8588C4.93835 10.9528 4.83735 11.094 4.68535 11.059C4.56735 10.996 4.54035 10.8519 4.48935 10.7379C4.22035 9.96492 3.98935 9.1759 3.74735 8.3949C3.15335 8.1639 2.55635 7.94478 1.95835 7.72278C1.77135 7.65178 1.54835 7.59389 1.44635 7.40589C1.38035 7.28489 1.48934 7.15593 1.59134 7.10193C1.85634 6.96093 2.14934 6.8789 2.42734 6.7699C4.89934 5.8319 7.36835 4.87896 9.83735 3.93396ZM8.39934 5.38684C6.98534 6.30884 5.56736 7.22998 4.15336 8.15198L4.14235 8.17591C4.34535 8.85891 4.54834 9.53888 4.75934 10.2189C4.81734 9.76988 4.88034 9.31582 4.94234 8.86683C6.19234 7.64783 7.43834 6.42982 8.68834 5.21082C8.58334 5.25782 8.49334 5.32384 8.39934 5.38684Z" fill="#565757"/>
</svg>
