<svg width="27" height="23" viewBox="0 0 27 23" fill="none" xmlns="http://www.w3.org/2000/svg">
<path fill-rule="evenodd" clip-rule="evenodd" d="M5.34908 1.68533C5.30181 1.81193 5.34232 1.72585 5.28324 1.817C5.28324 1.83725 5.25625 1.85754 5.25625 1.85079C5.2495 1.85079 5.23094 1.87103 5.22418 1.87778C5.21068 1.99594 5.07902 2.32502 5.03176 2.52252C4.97268 3.40702 5.01317 6.44701 5.01824 7.52732C5.03174 9.17647 5.00644 10.8307 5.01319 12.4866C5.025 14.1273 5.03174 15.7967 5.01824 17.4374C5.00642 18.4603 4.99967 18.8891 5.48075 19.4748C5.92975 20.0234 6.44964 20.1214 7.38647 20.1214H14.0202C13.3805 19.5678 12.7137 19.0343 12.3711 18.2494C11.2165 18.2292 10.0366 18.2494 8.87697 18.2494C7.9469 18.2494 6.90541 18.2022 6.83958 16.791V16.2711L6.84633 8.63464L6.83958 8.08778L6.92396 3.88803L6.91891 3.84249C7.00331 3.46607 7.09613 3.39352 7.34595 3.15551H7.39999L7.45905 3.09637C7.54514 3.01704 7.41179 3.10988 7.5502 3.01704C7.56371 3.00523 7.67681 2.95122 7.71564 2.93771C7.91988 2.85331 7.99921 2.84654 8.22371 2.83304L8.73178 2.81285H17.5869L18.2334 2.82624C18.9846 2.87181 19.4066 3.30062 19.5517 3.94036L19.5315 4.0063C19.6311 4.14471 19.5905 4.35559 19.5838 4.60035C19.5838 4.8181 19.5838 5.03587 19.5906 5.25868L19.5838 14.6625C19.6446 14.8077 19.5247 14.7739 19.7222 14.708L20.1982 14.1274C20.2505 13.9771 20.205 14.0429 20.3299 13.9889C20.3552 13.8319 21.3056 12.7567 21.3984 12.6774C21.4895 12.0714 21.4102 10.8376 21.4102 10.159C21.4169 9.30152 21.4102 8.4439 21.4102 7.57965C21.4102 5.96426 21.5098 3.99278 21.3781 2.42464L21.1874 1.87778C21.1013 1.81195 21.1671 1.8776 21.0676 1.77125C20.5342 1.2176 21.0287 1.65995 20.416 1.2042L20.2894 1.09952L19.6969 1H6.60157C6.19983 1.04558 5.86897 1.20416 5.59214 1.46073L5.34908 1.68533Z" fill="white"/>
<path fill-rule="evenodd" clip-rule="evenodd" d="M24.9127 11.3522C24.8992 11.3724 24.8857 11.3724 24.879 11.3775L24.6427 11.5108C24.5566 11.5632 24.5161 11.5835 24.4249 11.6493C24.2865 11.8198 24.1008 11.9649 23.9371 12.1692C23.8375 12.289 23.5809 12.6115 23.4813 12.6503C23.4222 12.7769 23.3632 12.8613 23.2703 12.9676L23.0138 13.1922C22.98 13.3441 22.9597 13.3372 22.8213 13.4098C22.7369 13.6073 22.5327 13.8504 22.3672 13.9635C22.3402 14.0614 22.4989 14.0294 22.2744 14.0547C22.1816 14.2539 22.1495 14.2656 22.0043 14.431L21.7005 14.7215L21.6937 14.7535C21.5891 14.9594 19.4386 17.4712 19.2614 17.5826C19.2023 17.775 19.1027 17.8003 18.9778 17.986C18.8326 17.986 18.939 18.0045 18.9187 17.9454C18.7212 17.8661 18.7668 17.8594 18.6081 17.721C18.4765 17.6096 18.4444 17.6417 18.3583 17.4577C18.2925 17.4712 18.2992 17.4913 18.3178 17.4187C17.8907 17.2466 16.4728 15.724 15.8399 15.486C15.1934 15.2429 14.481 15.5131 14.1316 15.8692C13.7164 16.303 13.6303 16.8838 13.7822 17.5438L14.0978 18.0637C14.0978 18.0637 14.1046 18.0839 14.1114 18.0907C14.243 18.1498 14.1907 18.1109 14.243 18.2223C14.3747 18.2629 14.7714 18.6189 14.8102 18.7101C14.9486 18.7624 14.8895 18.71 14.9418 18.8349C15.1073 18.8822 15.0938 18.9143 15.2524 19.0527C15.325 19.1068 15.3706 19.1321 15.4246 19.1844C15.4972 19.2519 15.4904 19.225 15.5022 19.3043C15.6474 19.3904 15.747 19.4428 15.8263 19.5745C16.0373 19.6791 16.169 19.8444 16.3665 20.0099C16.4796 20.101 16.5184 20.1415 16.6433 20.2462C16.7564 20.339 16.8408 20.3592 16.8678 20.4774C17.0788 20.5955 17.2307 20.7087 17.3624 20.9062C17.4687 20.9332 17.3961 20.8859 17.5211 20.9855C17.5936 21.0446 17.5937 21.0512 17.6325 21.1036C17.8047 21.2234 18.1068 21.4463 18.2131 21.6185L18.252 21.6321C18.7533 21.7503 18.7145 21.8751 19.393 21.8295L19.4386 21.8497L19.5112 21.8093C19.5179 21.8093 19.5382 21.7957 19.545 21.7889L19.8741 21.6506C20.0328 21.5662 20.1189 21.5003 20.2303 21.4007L21.3511 20.096C21.4642 19.9576 21.7866 19.5608 21.952 19.4562C21.9706 19.3836 21.925 19.4561 22.0043 19.3363C22.0634 19.2569 22.0432 19.2976 22.1039 19.2318C22.1883 19.1255 22.163 19.1 22.2812 19.0527C22.3403 18.9616 22.3082 18.9938 22.3875 18.9077C22.4652 18.8165 22.4263 18.8621 22.5124 18.803C22.5512 18.6376 22.5783 18.6646 22.7032 18.5195C22.7555 18.4671 22.769 18.4333 22.8213 18.381C22.9344 18.2561 22.8146 18.3219 22.9344 18.2949C22.9867 18.202 22.9665 18.2224 23.0323 18.143C23.1184 18.0451 23.0661 18.0974 23.1589 18.0383C23.1842 17.9185 23.1319 18.0518 23.1977 17.9454C23.2906 17.8002 24.062 16.8973 24.1481 16.877C24.2072 16.7724 24.1936 16.7859 24.2662 16.693L24.4181 16.5614C24.4435 16.455 24.3979 16.5613 24.4975 16.4229C24.5886 16.2912 25.2216 15.5385 25.3145 15.5132C25.3938 15.3613 25.4596 15.2818 25.5643 15.1569C25.6115 15.1029 25.625 15.0911 25.6841 15.032L25.8411 14.8987C25.8614 14.8008 25.7567 14.8328 25.9205 14.8074C26.0268 14.615 26.2631 14.2993 26.4488 14.193C26.4555 14.1019 26.4083 14.1544 26.5011 14.0885C26.6919 13.832 26.9164 13.5669 26.9822 13.1331C27.0615 12.5659 26.8573 12.3668 26.7256 11.9786C26.5669 11.8992 26.3492 11.477 25.8884 11.3977C25.6048 11.3184 25.4731 11.3118 25.0832 11.3456L24.9127 11.3522Z" fill="white"/>
<path fill-rule="evenodd" clip-rule="evenodd" d="M8.72504 8.30562C8.70479 8.32588 8.44148 8.57565 8.41447 8.58915C8.32838 8.86598 8.28281 9.0111 8.31657 9.34701C8.54614 9.78251 8.53432 9.78244 8.98163 10.0002C10.4451 10.0525 11.9558 10.0003 13.4261 10.0138C14.3882 10.034 17.0333 10.1253 17.7912 9.94806C18.0224 9.77589 18.0342 9.74366 18.2199 9.53266L18.3448 9.23574C18.1609 8.56899 18.279 8.49632 17.619 8.21949C16.9337 8.16041 16.0576 8.201 15.3521 8.20775C14.6127 8.20775 13.8683 8.20775 13.1222 8.20775C12.0217 8.20775 9.62136 8.07421 8.72504 8.31222V8.30562Z" fill="white"/>
<path fill-rule="evenodd" clip-rule="evenodd" d="M8.31657 5.8075C8.2693 6.26832 8.32331 6.22932 8.42796 6.5973L8.71829 6.85569C9.33103 7.03968 10.1497 6.97371 10.8485 6.96695C11.5862 6.96695 12.3323 6.96695 13.0767 6.96695C14.5536 6.96695 16.1353 7.01433 17.6072 6.95356C18.0089 6.74932 18.0883 6.76964 18.2925 6.30882C18.3972 5.08842 17.5346 5.15406 16.8679 5.14731C16.0104 5.12705 15.1461 5.16081 14.2903 5.14731C12.5618 5.11524 10.8013 5.12705 9.0812 5.14731C8.53936 5.25365 8.53938 5.43774 8.31657 5.7939V5.8075Z" fill="white"/>
<path fill-rule="evenodd" clip-rule="evenodd" d="M8.67778 11.3659V11.3523C8.50729 11.6021 7.86081 12.1035 8.7048 12.8614C8.77063 12.9222 8.7453 12.895 8.79762 12.9541L9.02889 12.9999C10.6966 13.0657 12.5027 13.0132 14.1907 13.0132C15.0482 13.0132 15.9057 13.0132 16.7683 13.0132C17.7321 13.0132 18.3904 12.9475 18.2925 11.8857L18.2588 11.7153C18.1474 11.636 18.0089 11.4637 17.9363 11.3523L17.4418 11.2391L16.9202 11.2459H15.5563L14.8896 11.2391L14.1975 11.2459H9.38335C9.0677 11.2459 8.91578 11.3051 8.67778 11.3727V11.3659Z" fill="white"/>
<path fill-rule="evenodd" clip-rule="evenodd" d="M12.2529 15.908C13.0901 14.4648 12.6141 15.0642 13.6235 14.2472C13.637 14.2472 13.6438 14.2268 13.6573 14.22L13.7417 14.1341C12.8268 14.1088 11.8697 14.1341 10.9532 14.1341C10.175 14.1341 8.88876 13.9635 8.48703 14.4716C8.26252 14.7535 8.24396 15.2159 8.45496 15.5383C8.67777 15.881 9.00185 15.908 9.48293 15.9148C10.4063 15.9283 11.3296 15.9148 12.2529 15.9148V15.908Z" fill="white"/>
<path fill-rule="evenodd" clip-rule="evenodd" d="M16.986 14.3062C17.1379 14.3518 17.3894 14.5426 17.4417 14.6625L17.673 14.8211C17.7186 14.8667 17.7118 14.8598 17.7456 14.9054C17.884 14.9847 18.1473 15.189 18.1996 15.3156C18.3381 15.2161 18.2402 15.4591 18.3127 15.1502C18.3313 15.0641 18.3127 14.9391 18.306 14.8531L18.2992 14.7148L18.1726 14.5627C17.8114 14.0817 17.5346 14.1206 16.8087 14.1341L16.986 14.3062Z" fill="white"/>
</svg>
