<svg width="13" height="13" viewBox="0 0 13 13" fill="none" xmlns="http://www.w3.org/2000/svg">
<path fill-rule="evenodd" clip-rule="evenodd" d="M3.84134 7.19507C3.84134 7.05107 3.90734 6.92609 3.97034 6.84009C4.16134 6.57409 4.49735 6.57804 4.74335 6.73804L4.89235 6.83594C4.91935 6.85494 4.94235 6.86706 4.97435 6.88306C5.79435 7.37506 6.79034 7.43397 7.67734 7.07397C7.81334 7.01597 8.00534 6.91388 8.13434 6.82788C8.28634 6.72688 8.41534 6.625 8.63434 6.625C8.88034 6.625 9.03235 6.7849 9.11835 6.9729C9.27835 7.3119 9.07134 7.52003 8.83734 7.70703C8.31034 8.13303 7.82534 8.26991 7.14934 8.37891C7.08734 8.38691 7.01734 8.39101 6.95834 8.40601C6.97034 8.44101 7.23134 8.69505 7.25934 8.72705C7.43134 8.89505 8.55635 10.0079 8.61435 10.0859C8.64935 10.1289 8.66934 10.1289 8.71634 10.2229C8.86434 10.5079 8.70434 10.812 8.47034 10.949C8.28234 11.055 8.04834 11.0551 7.87634 10.9141C7.81334 10.8591 6.77134 9.8201 6.73534 9.7771C6.50934 9.4921 6.46235 9.6021 6.28635 9.7771L5.90735 10.1641C5.80235 10.2701 5.46634 10.6171 5.37634 10.6951C5.18834 10.8591 5.09934 11.031 4.81334 11.031C4.59534 11.031 4.35635 10.84 4.28635 10.625C4.18535 10.316 4.33734 10.156 4.51334 9.97998L5.29034 9.19507C5.39234 9.09007 6.01734 8.48001 6.06734 8.40601C6.01334 8.40601 5.94234 8.39106 5.88434 8.38306C5.58734 8.34006 5.29034 8.28503 5.01334 8.17603C4.81334 8.10203 4.61035 8.01202 4.43535 7.89502L4.12234 7.66797C3.97834 7.54697 3.84134 7.39507 3.84134 7.19507ZM6.44234 0.207031H6.74734C6.77835 0.207031 6.78635 0.218994 6.82535 0.218994C7.06335 0.218994 7.30235 0.254062 7.53635 0.289062C7.70435 0.320063 7.86035 0.355113 8.02135 0.391113C8.21235 0.430113 8.44234 0.504068 8.62634 0.570068C8.72434 0.605068 8.81335 0.641025 8.90735 0.676025L9.31734 0.858887C9.36434 0.882887 9.39935 0.902025 9.44635 0.926025C9.47435 0.938025 9.48534 0.944938 9.50934 0.960938L9.69635 1.06201C9.78235 1.11301 9.86035 1.15994 9.94635 1.21094C10.0244 1.26194 10.0993 1.31594 10.1773 1.36694C10.2203 1.39794 10.2553 1.42588 10.2943 1.45288C10.3133 1.46888 10.3293 1.47709 10.3493 1.49609C10.3684 1.51209 10.3844 1.52291 10.4034 1.53491L10.8293 1.89111C10.8453 1.91011 10.8563 1.92192 10.8763 1.94092C10.8953 1.96092 10.9073 1.96489 10.9273 1.98389C11.0283 2.07789 11.1263 2.18391 11.2203 2.28491L11.3103 2.39111C11.4193 2.51211 11.5213 2.64102 11.6183 2.77002C11.7673 2.95302 11.9353 3.21097 12.0483 3.41797C12.0713 3.46097 12.0953 3.49997 12.1183 3.54297C12.1303 3.56597 12.1383 3.58598 12.1493 3.60498C12.2513 3.80498 12.3494 4.00403 12.4314 4.20703C12.4704 4.30503 12.5013 4.39494 12.5363 4.49194C12.6103 4.68394 12.6613 4.88699 12.7123 5.09399C12.7673 5.30499 12.8063 5.52291 12.8373 5.75391C12.8683 5.96491 12.8843 6.21094 12.8923 6.46094V6.78101C12.8883 6.89101 12.8843 6.99209 12.8763 7.09009C12.8453 7.48809 12.7743 7.89111 12.6733 8.26611C12.6573 8.31211 12.6423 8.36706 12.6303 8.41406C12.5873 8.56606 12.5323 8.70705 12.4813 8.85205C12.4153 9.03905 12.3333 9.2231 12.2433 9.4021L12.1453 9.59399C12.0713 9.73799 11.9813 9.88295 11.8953 10.0229L11.4853 10.594C11.4033 10.695 11.3063 10.8159 11.2163 10.9099C11.0873 11.0429 10.8213 11.32 10.6693 11.438C10.6493 11.453 10.6343 11.465 10.6143 11.48L10.5053 11.574C10.4663 11.602 10.4353 11.6289 10.3953 11.6599L10.0523 11.906C9.87634 12.023 9.69634 12.1369 9.50534 12.2339L9.31334 12.332C9.00134 12.488 8.66535 12.625 8.32935 12.719C7.98135 12.812 7.72434 12.871 7.36034 12.926C7.24334 12.941 7.12634 12.9491 7.00934 12.9651C6.95034 12.9731 6.88435 12.9729 6.82535 12.9729C6.78635 12.9729 6.77835 12.9839 6.74734 12.9839H6.26334C6.23134 12.9839 6.22435 12.9729 6.18135 12.9729L5.99734 12.9651C5.88435 12.9491 5.76334 12.941 5.64534 12.926C5.35334 12.883 5.09935 12.8361 4.82535 12.7581C4.77135 12.7421 4.72834 12.7301 4.67334 12.7151C4.33734 12.6211 4.00534 12.4839 3.69234 12.3279C3.64934 12.3089 3.60335 12.2891 3.56035 12.2661L3.43535 12.1951C3.39235 12.1721 3.35335 12.152 3.31035 12.125C3.10635 12.004 2.91134 11.879 2.72034 11.738L2.61034 11.656C2.49734 11.57 2.39534 11.4771 2.29034 11.3911L2.13834 11.25C2.11434 11.23 2.10634 11.227 2.08334 11.207C2.05234 11.176 2.02135 11.1409 1.98935 11.1089C1.95435 11.0779 1.91534 11.0391 1.88834 11.0081C1.83734 10.9451 1.72035 10.832 1.65735 10.75L1.52434 10.5901C1.15734 10.1251 0.880349 9.664 0.642349 9.125C0.622349 9.078 0.606344 9.03904 0.583344 8.98804C0.548344 8.89504 0.513348 8.80503 0.478348 8.70703C0.427348 8.55903 0.380339 8.41396 0.341339 8.26196C0.325339 8.21096 0.313338 8.15998 0.302338 8.10498C0.251338 7.89798 0.208338 7.67207 0.177338 7.44507C0.134338 7.13707 0.122345 6.7969 0.122345 6.4729C0.122345 6.2269 0.145338 5.96494 0.177338 5.74194C0.220338 5.45694 0.267337 5.19112 0.345337 4.92212C0.427337 4.62912 0.52434 4.33608 0.64534 4.05908L0.837341 3.65601C0.849341 3.63301 0.860345 3.61699 0.872345 3.59399L1.01334 3.34399C1.02434 3.32399 1.03234 3.30891 1.04834 3.28491C1.06034 3.26191 1.07134 3.2459 1.08334 3.2229C1.17334 3.0819 1.26335 2.94501 1.36435 2.81201L1.61835 2.48804L2.19234 1.88696C2.21234 1.86696 2.22434 1.86299 2.24734 1.84399C2.31034 1.77699 2.38834 1.71891 2.45834 1.65991C2.47834 1.64091 2.49334 1.63294 2.51334 1.61694C2.66134 1.49994 2.81034 1.38701 2.96634 1.28101C3.20434 1.12501 3.45035 0.98398 3.70435 0.85498C3.75135 0.83598 3.79434 0.815969 3.83734 0.792969C3.88434 0.769969 3.93135 0.753887 3.97835 0.733887C4.11435 0.671887 4.25534 0.625068 4.39534 0.570068C4.54034 0.516068 4.69234 0.472932 4.84134 0.429932C5.40734 0.280932 5.88434 0.223088 6.44234 0.215088V0.207031ZM6.45834 2.1521C6.70034 2.1521 6.92734 2.17609 7.14534 2.24609L7.24734 2.2771C7.33334 2.3091 7.45435 2.3591 7.53635 2.4021L7.62234 2.44897C7.79434 2.55097 7.81035 2.57403 7.94635 2.67603C8.19635 2.87103 8.45835 3.24612 8.57935 3.54712C8.59535 3.58212 8.60335 3.60902 8.61435 3.64502C8.78635 4.08202 8.79434 4.71901 8.62234 5.15601C8.51735 5.41801 8.36834 5.71091 8.16534 5.90991C8.13834 5.93791 8.12635 5.95298 8.10335 5.97998C8.07535 6.00798 8.05635 6.01997 8.02835 6.04297C7.78235 6.29697 7.41935 6.47307 7.07535 6.57007C7.00535 6.59007 6.92335 6.60494 6.85335 6.61694C6.66935 6.64794 6.57934 6.64111 6.39934 6.64111C5.97034 6.64111 5.48534 6.43803 5.17734 6.20703C5.12234 6.16803 5.07534 6.12894 5.02434 6.08594L4.75934 5.80493C4.54434 5.54293 4.38035 5.20694 4.31035 4.86694C4.28235 4.72694 4.27135 4.648 4.26735 4.5C4.26735 4.457 4.25534 4.42194 4.25934 4.36694L4.27835 4.11694C4.30235 3.92194 4.37634 3.6409 4.46234 3.4729C4.47834 3.4379 4.48934 3.40991 4.50534 3.37891C4.59134 3.22991 4.61034 3.19106 4.72034 3.03906C4.80634 2.92206 4.93834 2.78099 5.05234 2.68799C5.43534 2.36299 5.95434 2.1521 6.45834 2.1521Z" fill="#565757"/>
<path fill-rule="evenodd" clip-rule="evenodd" d="M5.40335 4.38308C5.40335 4.69108 5.49335 4.89091 5.66135 5.10891C5.68535 5.14091 5.70434 5.1561 5.73134 5.1841C5.81734 5.2701 5.93535 5.35503 6.05635 5.40603C6.09135 5.41803 6.11435 5.42994 6.15335 5.44094C7.06335 5.74594 7.89535 4.8359 7.51735 3.9529C7.41135 3.7109 7.22034 3.52012 6.98534 3.40212C6.70034 3.26212 6.32535 3.26212 6.03635 3.40212C5.92335 3.45712 5.84534 3.51201 5.75934 3.59401C5.54034 3.80101 5.40335 4.06998 5.40335 4.38698V4.38308Z" fill="#565757"/>
</svg>
