<svg width="14" height="12" viewBox="0 0 14 12" fill="none" xmlns="http://www.w3.org/2000/svg">
<path fill-rule="evenodd" clip-rule="evenodd" d="M12.9411 0.0577478C13.1591 -0.0402522 13.5811 -0.0402324 13.6051 0.271768C13.5771 0.639768 13.4841 0.998762 13.4291 1.36576C12.7611 4.70176 12.0541 8.02977 11.3201 11.3538C11.2301 11.4868 11.1171 11.6278 10.9411 11.6318C10.7261 11.6038 10.5581 11.4558 10.3861 11.3428C9.33112 10.6198 8.26511 9.90875 7.21411 9.18275C6.66311 9.69775 6.09312 10.1898 5.55812 10.7138C5.40612 10.8538 5.24912 11.0728 5.01512 11.0218C4.83512 10.9248 4.79211 10.7018 4.71411 10.5258C4.30011 9.33477 3.94511 8.12775 3.57411 6.92075C2.65911 6.56875 1.73812 6.23275 0.820117 5.88975C0.531117 5.77975 0.191116 5.68977 0.0311155 5.40077C-0.0708845 5.21377 0.0971211 5.01875 0.257121 4.93275C0.667121 4.71775 1.11712 4.59275 1.54212 4.42075C5.34712 2.97975 9.14412 1.51475 12.9411 0.0577478ZM10.7301 2.29575C8.55412 3.71375 6.37411 5.13175 4.19911 6.54975L4.17912 6.58476C4.49212 7.63576 4.80412 8.68674 5.13212 9.72974C5.21812 9.03374 5.31211 8.34277 5.40911 7.64677C7.33111 5.77577 9.25311 3.90077 11.1711 2.02577C11.0151 2.09677 10.8741 2.19775 10.7301 2.29575Z" fill="white"/>
</svg>
