<svg width="13" height="14" viewBox="0 0 13 14" fill="none" xmlns="http://www.w3.org/2000/svg">
<path fill-rule="evenodd" clip-rule="evenodd" d="M7.33736 6.37496C7.36436 6.51996 7.41536 6.57393 7.43836 6.66793C7.68536 6.76193 7.67736 6.69505 7.83336 6.59005L7.97437 6.43795L8.18836 6.15206C8.19236 6.14506 8.20036 6.14093 8.20836 6.13693C8.21236 6.08993 8.16136 6.10889 8.26336 6.05489C8.29836 5.91389 8.41537 5.78093 8.49337 5.63693C8.54837 5.53093 8.61836 5.31606 8.71636 5.24606L8.85337 4.88693L8.95836 4.69503C8.96236 4.58603 9.00137 4.56206 9.07137 4.52706C9.14937 4.40606 9.31337 4.43795 9.53237 4.43795C10.9464 4.43795 11.5634 4.21497 10.6694 5.56197L10.4504 5.85494C10.3684 6.01994 10.1614 6.24602 10.0484 6.41402C9.94636 6.53102 9.86837 6.64808 9.79037 6.76608C9.70837 6.87908 9.62637 6.98002 9.62237 7.16402C9.64937 7.28102 9.69636 7.32406 9.71236 7.40206L9.82937 7.52706C9.92337 7.56606 10.0564 7.70302 10.1034 7.78902C10.2004 7.83602 10.1854 7.81587 10.2314 7.90987C10.2904 7.92587 10.2474 7.89784 10.3104 7.95284C10.3174 7.96084 10.3604 7.99602 10.3684 8.00802C10.4314 8.06602 10.4504 8.07798 10.4664 8.14498C10.5604 8.18798 10.5404 8.17191 10.5874 8.27291C10.6694 8.31591 10.7984 8.46097 10.8374 8.56197C10.9584 8.65597 11.0954 8.86297 11.0834 9.06197C11.0564 9.46897 10.5014 9.35894 9.89536 9.35494C9.76336 9.35494 9.63436 9.35494 9.50536 9.35494C9.41536 9.35894 9.34136 9.3669 9.25536 9.3359C9.20836 9.3199 9.22437 9.32389 9.19637 9.30489C9.08337 9.30489 9.03636 9.27005 8.94236 9.21505C8.87636 9.17605 8.88037 9.18402 8.82537 9.13302C8.82537 9.13302 8.77437 9.08194 8.76737 9.07394C8.73537 9.03894 8.75537 9.06191 8.72837 9.02291C8.66937 9.00791 8.70836 9.03901 8.64936 8.97701C8.59136 8.91401 8.61837 8.93798 8.60337 8.89498C8.52837 8.85198 8.54437 8.84787 8.47837 8.78487C8.38437 8.69887 8.43536 8.78908 8.38436 8.67208L8.20037 8.46505C8.10637 8.41805 8.06736 8.35498 8.01336 8.26998C7.95836 8.25798 7.93137 8.25784 7.89237 8.20284C7.67737 8.14484 7.61036 8.16803 7.50936 8.32003C7.42736 8.44103 7.43136 8.60194 7.35636 8.69894C7.37636 8.85494 7.34536 8.92197 7.33736 9.06197C7.28636 9.29697 7.23937 9.32796 6.97837 9.34396L6.97036 9.33199C6.87636 9.39799 6.27436 9.35489 6.19236 9.30489L5.97036 9.28487C5.72036 9.23388 5.39937 9.14091 5.20037 9.02291C5.07537 8.95291 4.89237 8.87887 4.82537 8.78487C4.77437 8.76188 4.77437 8.77294 4.72437 8.72994C4.64537 8.66794 4.70436 8.71502 4.66936 8.66403C4.59536 8.64103 4.48536 8.55091 4.43836 8.49191C4.38836 8.46491 4.29437 8.35193 4.23937 8.29293C4.17737 8.25393 4.12237 8.18791 4.10337 8.11691C4.00937 8.05891 3.99337 8.04704 3.95037 7.93404C3.88837 7.90204 3.86037 7.84787 3.81037 7.78487C3.78637 7.75787 3.76337 7.73399 3.74737 7.70699C3.70037 7.62899 3.72436 7.67991 3.71236 7.61691C3.66536 7.59791 3.67336 7.64503 3.67736 7.57003L3.58336 7.47994C3.53236 7.41394 3.44237 7.28499 3.43137 7.20699C3.39937 7.17999 3.41936 7.19487 3.38436 7.15987L3.22437 6.92599C3.07937 6.67199 2.80637 6.26202 2.72837 6.00802C2.66537 5.95702 2.38436 5.38306 2.37636 5.27706C2.31336 5.22706 2.14937 4.87897 2.11837 4.78097C2.01737 4.47997 2.20437 4.44503 2.47437 4.44503H3.58736C3.64536 4.44503 3.71237 4.45286 3.76737 4.47286C3.76737 4.47286 3.81036 4.49987 3.81736 4.50387C3.85636 4.53487 3.83736 4.51989 3.86036 4.55489C3.97036 4.59389 4.04036 4.77687 4.04836 4.87887C4.14936 4.96887 4.19236 5.14497 4.26336 5.28097C4.31736 5.38697 4.41136 5.55888 4.46236 5.69088L4.46636 5.72286L4.54037 5.80904C4.55637 5.82404 4.57136 5.85496 4.58336 5.87496C4.63036 5.94896 4.64936 5.97289 4.67736 6.05489L4.87237 6.34005L4.95037 6.45284C5.01337 6.47984 5.01337 6.5269 5.07137 6.5859C5.12637 6.6449 5.17337 6.64494 5.20037 6.69894C5.43837 6.77694 5.44636 6.72297 5.54836 6.56197L5.58736 6.41793C5.60336 6.30493 5.59937 6.07406 5.65337 5.99606C5.55237 5.45306 5.79436 4.79287 5.21636 4.62887L5.08736 4.56588C5.16536 4.20688 5.70437 4.26598 5.95037 4.26998C6.36837 4.26998 7.13037 4.17193 7.26737 4.41793C7.39237 4.65193 7.32136 5.96087 7.33736 6.37887V6.37496ZM4.86437 0.636925L4.66537 0.722863C4.57937 0.749863 4.51736 0.772931 4.41936 0.792931L4.34136 0.804894C4.31336 0.831894 4.32537 0.823863 4.29037 0.847863C4.26737 0.858863 4.25936 0.862869 4.23136 0.878869C4.18536 0.897869 4.13836 0.906081 4.08736 0.922081C4.04836 0.965081 3.82936 1.05904 3.76336 1.05904L3.73136 1.09005C3.64536 1.16005 3.65736 1.13304 3.56336 1.18404L2.95437 1.55099H2.92336C2.91936 1.56199 2.91137 1.56203 2.90737 1.57003L2.61437 1.79708L2.45437 1.91793C2.42337 1.97693 2.45437 1.92986 2.41537 1.97286C2.39237 1.99586 2.37236 2.01206 2.35636 2.02706C2.27836 2.10206 2.31337 2.08587 2.22437 2.12887C2.19237 2.18387 2.19636 2.17994 2.13836 2.22994C2.13436 2.23794 2.08737 2.26991 2.07937 2.27291C2.03637 2.30091 2.06737 2.28499 2.03237 2.30099C1.98937 2.39099 1.92737 2.46891 1.84937 2.52291C1.82137 2.55891 1.81337 2.56585 1.77137 2.60885C1.75537 2.62485 1.74336 2.63298 1.73136 2.64498C1.72836 2.64498 1.72036 2.65606 1.71636 2.65206C1.71636 2.65206 1.70837 2.66402 1.70437 2.66402C1.66537 2.76202 1.66536 2.73794 1.59536 2.82394C1.57536 2.85194 1.56736 2.86693 1.54836 2.88693C1.49336 2.94493 1.50936 2.92599 1.46236 2.95699C1.44636 3.02699 1.52836 2.95698 1.41936 3.01998C1.37636 3.14098 1.31737 3.19089 1.24337 3.30489L0.71636 4.21505C0.72036 4.28905 0.634365 4.50388 0.583365 4.56588C0.563365 4.65188 0.54437 4.71099 0.51737 4.80099C0.50137 4.84799 0.50136 4.86297 0.48136 4.90597C0.43836 5.01597 0.474372 4.95706 0.431372 4.99606L0.286368 5.69503L0.23937 6.02291L0.208365 6.37106C0.173365 6.77006 0.192369 7.17204 0.228369 7.55904C0.247369 7.61704 0.259368 7.76586 0.243368 7.84786L0.278372 7.90597C0.278372 7.91397 0.282368 7.91799 0.286368 7.92599C0.290368 7.93799 0.302372 8.00398 0.306372 8.01998C0.317372 8.09398 0.32536 8.12888 0.34136 8.19088L0.35636 8.36691C0.37636 8.39491 0.36037 8.35499 0.39237 8.42599C0.39237 8.42599 0.411368 8.484 0.411368 8.488C0.431368 8.547 0.442367 8.60889 0.454367 8.67989L0.556372 9.00387L0.708365 9.37496L0.71636 9.42208C0.72436 9.43008 0.73136 9.42995 0.73136 9.43795L0.829367 9.60494C0.876367 9.69894 0.892365 9.70697 0.915365 9.81197L1.34937 10.5271C1.41937 10.5701 1.64236 10.8629 1.72036 10.9609L2.11036 11.3789C2.33736 11.5899 2.61836 11.8399 2.88036 12.0229C2.96236 12.0819 2.94636 12.0509 3.00536 12.1369C3.04436 12.1479 3.68137 12.5119 3.69637 12.5349C3.84537 12.5779 3.97436 12.6519 4.11036 12.7109C4.17736 12.7379 4.23937 12.762 4.31037 12.789C4.41937 12.832 4.46236 12.8281 4.52436 12.8911C4.64536 12.8911 4.98136 13.0121 5.13836 13.0471C5.59936 13.1481 6.05237 13.195 6.53237 13.207C6.76737 13.219 7.07137 13.1599 7.28237 13.1909L7.39237 13.1521C7.78637 13.0741 7.83337 13.109 8.36437 12.957C8.73937 12.848 9.22037 12.6291 9.36437 12.5901L9.66936 12.4409C9.69636 12.4019 9.68136 12.426 9.71636 12.395C9.73936 12.375 9.73937 12.3748 9.77137 12.3588L11.0054 11.4299C11.1924 11.2619 11.4034 11.0428 11.5674 10.8278C11.6534 10.7148 11.7474 10.5901 11.8174 10.4961C11.9384 10.3321 11.9814 10.2069 12.0714 10.1599C12.0914 10.0389 12.2044 9.89491 12.2674 9.77291C12.3104 9.68391 12.3954 9.46089 12.4424 9.42989L12.7714 8.55099L12.8104 8.32003C12.9074 7.72303 13.0174 7.24203 12.9814 6.57003C12.9544 6.05503 12.8954 5.60896 12.7554 5.12496C12.7434 5.06996 12.7244 5.00395 12.7084 4.93795L12.7044 4.85885C12.6454 4.79285 12.5874 4.59401 12.5404 4.47701C12.5134 4.40601 12.4934 4.35897 12.4624 4.28097C12.3134 3.93397 12.1344 3.67206 12.0094 3.40206L11.9664 3.31197C11.8844 3.25797 11.8134 3.15588 11.7784 3.06588L11.2124 2.37887C11.1144 2.32387 11.1654 2.37906 11.1144 2.27706C11.0364 2.25006 11.0094 2.21108 10.9354 2.14108C10.8764 2.08608 10.8494 2.05091 10.7784 1.99191C10.6774 1.90591 10.5404 1.81205 10.4504 1.71505C10.3954 1.69105 10.3954 1.69091 10.3414 1.64791C10.3414 1.64791 10.3024 1.61294 10.2984 1.60494C10.2634 1.57394 10.2824 1.59789 10.2514 1.55489C10.1884 1.54289 10.2474 1.56598 10.1654 1.51998C10.1424 1.50398 10.0994 1.4689 10.0874 1.4609C9.86436 1.3479 9.70436 1.23006 9.48136 1.12106C9.37236 1.07006 8.90336 0.883044 8.83336 0.809044C8.74336 0.820044 8.69637 0.788962 8.61437 0.749962C8.53637 0.733962 8.49337 0.719031 8.40737 0.695031C8.37637 0.688031 8.33336 0.676025 8.29836 0.664025C8.18836 0.613025 8.26336 0.651999 8.22036 0.612999C8.01736 0.644999 7.15737 0.293056 5.66137 0.496056C5.46637 0.523056 4.97837 0.648076 4.86437 0.641076V0.636925Z" fill="#565757"/>
</svg>
