<svg width="15" height="13" viewBox="0 0 15 13" fill="none" xmlns="http://www.w3.org/2000/svg">
<path fill-rule="evenodd" clip-rule="evenodd" d="M3.13434 10.9179C3.68534 10.7109 4.01734 11.6129 3.41534 11.8089C2.86434 11.9839 2.50934 11.1559 3.13434 10.9179ZM9.66534 5.62897C10.1813 5.66797 12.2673 5.64093 12.9543 5.64093C13.4933 5.64093 14.0053 5.60495 14.0323 6.20295C14.0443 6.44495 13.9423 6.66795 13.8103 6.81195C13.5793 7.06595 13.4423 7.03095 13.2943 7.10895L13.2783 7.21491C13.3643 7.29291 13.9313 7.41789 13.7353 8.02289C13.6883 8.17189 13.5833 8.31591 13.4663 8.41791C13.2903 8.56991 13.2393 8.54294 13.0363 8.62494L13.0173 8.74994C13.2003 8.85494 13.2943 8.82792 13.4193 9.02692C13.6223 9.35192 13.4273 9.77295 13.1533 9.98395C12.8493 10.223 12.7863 10.016 12.7553 10.258C12.8493 10.324 13.1453 10.3709 13.1693 10.7499C13.1853 11.0509 13.0523 11.2299 12.9073 11.3669C12.5673 11.6949 11.9743 11.6169 11.3993 11.6169H6.99734C6.11434 11.6169 6.26334 11.1839 5.66134 11.1839C5.45034 11.1839 5.50934 11.1249 5.51334 10.8979C5.52134 9.59389 5.47834 8.266 5.51334 6.961C6.53634 6.375 6.78634 5.94895 7.38834 4.98395C7.57134 4.68795 8.35634 3.44495 8.41134 3.10895C8.47434 2.71095 8.30234 1.41795 8.43134 1.28095C8.62234 1.08595 9.31034 1.00796 9.47433 1.34796C9.63833 1.67596 9.76734 2.02294 9.88834 2.37494C10.1303 3.08194 10.0563 3.262 9.94633 4.008L9.66534 5.62897ZM10.3643 5.0589C10.3763 4.8519 10.5793 3.793 10.6223 3.43C10.7123 2.742 10.3333 1.84395 10.0603 1.23395C9.93533 0.952951 9.89233 0.843908 9.64233 0.714908C9.16533 0.464908 8.52834 0.495948 8.13434 0.780948C7.68534 1.10495 7.81734 1.60891 7.83334 2.33991C7.84134 2.72291 7.89234 2.92995 7.75934 3.20295C7.49734 3.72995 6.69233 5.08998 6.33733 5.53498C5.75133 6.27298 5.98933 5.96491 5.48933 5.96491H1.65733C1.24333 5.96491 0.970337 6.17589 0.970337 6.61689V11.9799C0.970337 12.3709 1.21634 12.586 1.61034 12.586H5.07133C5.31033 12.586 5.45834 12.512 5.56334 12.379C5.70834 12.203 5.69233 12.0819 5.69633 11.8439C5.89533 11.8159 6.02834 11.961 6.21634 12.051C6.39934 12.141 6.55234 12.191 6.80234 12.191H12.0913C13.0013 12.191 13.6493 11.8439 13.8023 10.9959C13.8683 10.6369 13.8023 10.469 13.7283 10.176C14.0323 9.75397 14.2673 9.26191 13.9813 8.66791C14.0403 8.56591 14.1223 8.48389 14.1853 8.36689C14.4543 7.85489 14.3923 7.5939 14.2433 7.13691C14.3723 6.95691 14.4893 6.836 14.5713 6.555C14.7743 5.848 14.4233 5.0589 13.4503 5.0589C12.4623 5.0589 11.3173 5.0779 10.3643 5.0589Z" fill="white"/>
</svg>
