<svg width="15" height="15" viewBox="0 0 15 15" fill="none" xmlns="http://www.w3.org/2000/svg">
<path fill-rule="evenodd" clip-rule="evenodd" d="M0 7.02301C0 7.66401 0.0430003 8.125 0.18 8.742C0.219 8.93 0.274005 9.20701 0.379005 9.35901C0.485005 9.51901 0.692 9.65601 0.903 9.65601C1.184 9.65601 1.41 9.69099 1.621 9.47299C1.66 9.43299 1.715 9.35899 1.739 9.30099C1.766 9.23399 1.793 9.16001 1.793 9.06601V5.25C1.793 4.969 1.594 4.734 1.35201 4.672C1.242 4.644 1.168 4.64801 1.031 4.64801L1.125 4.43301C1.168 4.32401 1.223 4.21901 1.278 4.11301L1.44901 3.80499C1.55501 3.60499 1.688 3.41801 1.821 3.23801C1.891 3.14801 1.953 3.05499 2.028 2.96899C2.051 2.94099 2.074 2.91799 2.098 2.88699L2.473 2.47299L2.723 2.242C2.801 2.164 2.89101 2.09401 2.97701 2.02301C3.18401 1.85901 3.399 1.70701 3.621 1.56201C3.817 1.43301 4.024 1.32799 4.231 1.22299C4.305 1.18699 4.371 1.152 4.446 1.121C4.672 1.027 4.90301 0.937009 5.12901 0.859009C5.37901 0.777009 5.625 0.714999 5.887 0.667999C6.348 0.581999 6.75401 0.550995 7.25401 0.550995C7.46901 0.550995 7.653 0.569999 7.848 0.585999C8.11 0.600999 8.399 0.659994 8.65701 0.718994C8.90301 0.776994 9.153 0.848012 9.391 0.937012L9.723 1.07001C9.766 1.08601 9.793 1.101 9.836 1.117L10.051 1.21899C10.117 1.25399 10.196 1.28501 10.262 1.32401L10.465 1.44101C10.535 1.47601 10.594 1.51899 10.664 1.55899C11.004 1.76199 11.453 2.12099 11.727 2.39099C11.809 2.47599 11.918 2.574 11.996 2.664C12.012 2.683 12.012 2.687 12.035 2.711C12.086 2.766 12.133 2.816 12.184 2.875C12.235 2.937 12.278 2.99199 12.324 3.05499C12.375 3.11299 12.418 3.16401 12.461 3.22601C12.504 3.28901 12.547 3.348 12.594 3.41C12.723 3.601 12.844 3.797 12.953 4L13.063 4.211C13.117 4.312 13.235 4.54301 13.258 4.64801C13.035 4.64801 12.891 4.656 12.723 4.793C12.61 4.883 12.504 5.051 12.504 5.25V9.06601C12.504 9.34801 12.703 9.559 12.938 9.633C13.039 9.664 13.125 9.65601 13.258 9.65601C13.25 9.72601 13.031 10.168 12.985 10.25L12.879 10.437C12.813 10.559 12.735 10.683 12.657 10.797C12.543 10.969 12.418 11.137 12.289 11.305C12.211 11.402 12.082 11.539 12.02 11.617C11.977 11.672 11.918 11.711 11.879 11.766C11.817 11.848 11.727 11.91 11.657 11.98L11.578 12.051C11.477 12.148 11.375 12.23 11.266 12.32C10.992 12.535 10.703 12.734 10.399 12.902L10.016 13.101C9.953 13.137 9.883 13.168 9.817 13.195C9.676 13.254 9.547 13.316 9.403 13.363C9.328 13.391 9.262 13.414 9.188 13.437C8.848 13.551 8.481 13.637 8.121 13.687C8.082 13.691 8.035 13.703 7.992 13.703C7.922 13.57 7.907 13.5 7.785 13.379C7.657 13.254 7.492 13.168 7.313 13.133C7.086 13.086 6.84 13.137 6.653 13.266C6.43 13.414 6.25401 13.683 6.25401 13.969C6.25401 14.254 6.332 14.465 6.524 14.656C6.598 14.73 6.692 14.789 6.785 14.832C7.18 15.016 7.653 14.859 7.891 14.519C7.926 14.469 8.004 14.324 8.012 14.254C8.196 14.238 8.547 14.172 8.711 14.129C8.934 14.074 9.153 14.023 9.364 13.953C9.668 13.851 9.961 13.738 10.246 13.598C10.43 13.504 10.61 13.414 10.785 13.309C11 13.18 11.207 13.043 11.407 12.894L12.082 12.328L12.285 12.125C12.383 12.027 12.5 11.902 12.582 11.797L12.946 11.336C13.16 11.051 13.25 10.863 13.426 10.574C13.531 10.402 13.621 10.199 13.699 10.016C14.055 9.18299 14.297 8.215 14.297 7.297C14.297 6.715 14.266 6.38301 14.176 5.82401C14.078 5.254 13.871 4.67201 13.637 4.14401L13.489 3.85101C13.465 3.80101 13.438 3.754 13.41 3.707C13.301 3.492 13.164 3.29299 13.031 3.09399L12.895 2.90201C12.864 2.85901 12.836 2.82001 12.801 2.77301L12.496 2.41C12.379 2.273 12.074 1.95701 11.946 1.85501C11.922 1.83601 11.91 1.81999 11.887 1.80099L11.739 1.67599C11.727 1.66399 11.719 1.65601 11.707 1.64801C11.461 1.44901 11.207 1.26199 10.942 1.09399C10.571 0.854994 10.172 0.664002 9.762 0.496002C9.711 0.476002 9.657 0.457012 9.598 0.437012C9.094 0.238012 8.125 0.0230125 7.582 0.0190125L7.367 0.0119934C7.27 0.0119934 7.157 0 7.051 0L6.836 0.0119934C6.731 0.00799341 6.422 0.0429949 6.321 0.0509949C5.926 0.0899949 5.578 0.172012 5.215 0.269012C4.735 0.394012 4.223 0.600999 3.785 0.835999C3.735 0.862999 3.692 0.890999 3.645 0.917999C3.594 0.940999 3.555 0.965002 3.508 0.996002L2.781 1.48801C2.758 1.50401 2.739 1.516 2.719 1.535L2.239 1.94501C2.168 2.00401 2.035 2.14799 1.961 2.21899C1.942 2.24199 1.934 2.25801 1.91 2.28101C1.617 2.57801 1.371 2.92601 1.137 3.27301C1.106 3.32001 1.082 3.359 1.051 3.41C0.961002 3.547 0.890998 3.695 0.808998 3.836C0.726998 3.976 0.660002 4.13301 0.594002 4.28101C0.332002 4.90201 0.157004 5.52301 0.0630035 6.19501C0.0280035 6.44901 0 6.74201 0 7.02301Z" fill="white"/>
<path fill-rule="evenodd" clip-rule="evenodd" d="M3.407 7.29699C3.407 6.84399 3.40699 6.66799 3.51999 6.21899C3.54699 6.10499 3.586 5.98 3.629 5.875C3.649 5.816 3.66799 5.766 3.69199 5.707C3.75399 5.562 3.84399 5.38299 3.92199 5.25399C4.06299 5.01599 4.13699 4.92599 4.30499 4.71499C4.52399 4.44499 4.99999 4.05499 5.31299 3.89099C5.57799 3.74999 5.64099 3.71901 5.94599 3.60501C5.97299 3.59401 6.00399 3.586 6.03099 3.578C6.79699 3.344 7.57799 3.34801 8.33999 3.60101C8.55899 3.67201 8.69599 3.74199 8.89499 3.83999C8.92999 3.85499 8.94199 3.86699 8.97299 3.88299C9.24599 4.02699 9.42199 4.172 9.64499 4.359L9.76599 4.47299C9.97699 4.68299 10.063 4.797 10.235 5.031C10.254 5.059 10.262 5.06599 10.281 5.09799C10.477 5.43299 10.504 5.449 10.664 5.859C10.707 5.969 10.746 6.09399 10.778 6.21499C10.899 6.69899 10.93 7.21099 10.856 7.71499C10.809 8.03099 10.727 8.31201 10.606 8.60101C10.586 8.65601 10.559 8.70299 10.535 8.76199C10.496 8.85899 10.43 8.96499 10.379 9.05899C10.309 9.17599 10.192 9.35099 10.102 9.46099C10.086 9.47999 10.071 9.50001 10.055 9.52301C9.92999 9.67601 9.68799 9.92599 9.53499 10.043C9.35199 10.187 9.35199 10.195 9.14499 10.328C8.95699 10.449 8.74999 10.551 8.54299 10.633C7.76599 10.945 6.92199 10.98 6.11399 10.758C5.80099 10.668 5.51999 10.504 5.24199 10.504C5.05899 10.504 4.86399 10.527 4.70699 10.605L4.22699 10.863C4.18399 10.883 4.14099 10.914 4.10199 10.926C4.11399 10.863 4.14099 10.797 4.16399 10.73C4.22699 10.547 4.32399 10.305 4.32399 10.121C4.32399 9.832 4.30099 9.71099 4.17599 9.46099C4.15299 9.40599 4.12099 9.367 4.08999 9.316C3.75399 8.836 3.53099 8.30899 3.44199 7.71499C3.42199 7.58599 3.407 7.44099 3.407 7.29699ZM3.42199 10.008C3.42199 10.168 3.37899 10.234 3.33199 10.379C3.29699 10.48 3.26599 10.574 3.23499 10.676L3.13299 10.969C3.10599 11.051 2.63299 12.402 2.63299 12.461C2.63299 12.605 2.793 12.683 2.907 12.613L3.55499 12.258C3.58599 12.242 3.59799 12.234 3.62499 12.219C3.65299 12.203 3.67199 12.195 3.69899 12.18L4.35199 11.82C4.50399 11.746 4.64099 11.652 4.78899 11.578L5.004 11.461C5.164 11.367 5.26599 11.406 5.42599 11.473C5.55899 11.527 5.69599 11.574 5.83999 11.613C5.90999 11.633 5.98499 11.652 6.06299 11.672C6.74599 11.848 7.574 11.84 8.254 11.668C8.571 11.59 8.84399 11.492 9.11399 11.371C9.24199 11.309 9.37099 11.242 9.48899 11.172C9.73899 11.023 9.981 10.855 10.199 10.664C10.215 10.648 10.223 10.637 10.239 10.625L10.668 10.191C10.778 10.055 10.887 9.926 10.981 9.781C11.078 9.637 11.176 9.49199 11.254 9.33599C11.477 8.88299 11.641 8.465 11.731 7.941C11.746 7.855 11.758 7.77301 11.766 7.68301C11.781 7.51201 11.801 7.32399 11.801 7.13699C11.801 7.07799 11.793 7.05899 11.793 7.00799C11.789 6.96099 11.797 6.91 11.789 6.863C11.75 6.57 11.766 6.457 11.68 6.109C11.621 5.879 11.559 5.664 11.473 5.449C11.348 5.137 11.168 4.77299 10.973 4.51199C10.891 4.40199 10.809 4.28901 10.723 4.18301C10.699 4.15601 10.68 4.13301 10.657 4.10501C10.563 3.98401 10.414 3.844 10.301 3.738C10.281 3.719 10.281 3.72299 10.266 3.71099L10.254 3.699C10.168 3.621 10.086 3.54701 9.98899 3.47601C9.82099 3.35101 9.65699 3.23799 9.47299 3.12899C9.34799 3.05499 9.21899 2.99599 9.08999 2.92999C8.76599 2.76599 8.34799 2.652 7.99599 2.582C6.72699 2.332 5.36699 2.69101 4.37099 3.43701C4.13699 3.60901 3.92199 3.80499 3.72699 4.01599C3.70699 4.03899 3.70299 4.047 3.68399 4.07L3.36399 4.46899C3.30499 4.54699 3.25399 4.62899 3.19899 4.71099C2.91799 5.13299 2.73099 5.66 2.60999 6.16C2.57099 6.32 2.53899 6.50801 2.52399 6.68301C2.51999 6.74201 2.51599 6.82 2.50799 6.871C2.49999 6.937 2.496 7.19899 2.504 7.25799C2.512 7.30899 2.51199 7.53901 2.52799 7.64801C2.55899 7.88301 2.59799 8.10899 2.65299 8.33599C2.78499 8.85899 3.01999 9.35499 3.32399 9.79699C3.34399 9.81999 3.35199 9.832 3.36699 9.859C3.38699 9.891 3.42199 9.96099 3.42199 10.008Z" fill="white"/>
<path fill-rule="evenodd" clip-rule="evenodd" d="M6.58199 8.875C6.57799 8.785 6.57799 8.715 6.57799 8.672C6.57799 8.406 6.61399 8.17601 6.68799 7.98401C6.74599 7.83601 6.83199 7.691 6.95699 7.543C7.04699 7.433 7.21098 7.27701 7.44598 7.07001C7.67998 6.86301 7.83198 6.69901 7.90298 6.57401C7.97298 6.44901 8.00799 6.316 8.00799 6.172C8.00799 5.906 7.90299 5.67199 7.69899 5.47299C7.49199 5.27299 7.24199 5.172 6.94199 5.172C6.65299 5.172 6.41399 5.26201 6.21899 5.44501C6.02799 5.62901 5.89899 5.91 5.83999 6.297L5.14499 6.215C5.20699 5.699 5.39499 5.30101 5.70299 5.02701C6.01199 4.75401 6.42199 4.617 6.92999 4.617C7.46899 4.617 7.89899 4.76199 8.21899 5.05899C8.53899 5.35099 8.69899 5.707 8.69899 6.125C8.69899 6.367 8.64498 6.59 8.53098 6.793C8.41798 6.996 8.19599 7.242 7.86699 7.535C7.64899 7.73 7.50398 7.87499 7.43398 7.96899C7.36698 8.05899 7.31699 8.168 7.28499 8.289C7.25399 8.406 7.23499 8.601 7.22699 8.875H6.58199ZM6.45699 10.23V9.461H7.22699V10.23H6.45699Z" fill="white"/>
</svg>
