<svg width="100" height="100" viewBox="0 0 100 100" fill="none" xmlns="http://www.w3.org/2000/svg">
<rect width="100" height="100" rx="26" fill="white"/>
<path fill-rule="evenodd" clip-rule="evenodd" d="M25.4044 58.7075H39.1067L43.3024 52.8067H33.2459V46.0148H48.097V40.114H33.2459V33.9827H52.2772V28.0665H25.4044V58.7075Z" fill="#2E5943"/>
<path fill-rule="evenodd" clip-rule="evenodd" d="M48.8259 70.3932C46.7178 68.728 45.1234 66.5001 44.0417 63.7029C48.8761 56.8312 51.2959 53.3953 51.2959 53.3953C49.6965 56.2581 49.39 59.2007 50.3752 62.2336C51.6385 65.3423 53.9063 67.3397 57.1813 68.2258C59.8123 68.7538 62.1973 68.5567 64.3351 67.6411C66.0505 66.9173 67.5302 65.8111 68.7819 64.3211C71.4129 66.9882 72.7265 68.3211 72.7265 68.3211C70.0195 71.6462 66.2514 73.5882 61.422 74.1459C56.115 74.3931 51.9154 73.1401 48.8259 70.3932Z" fill="#2E5943"/>
<path fill-rule="evenodd" clip-rule="evenodd" d="M58.2025 43.5756C53.7454 49.9143 51.5174 53.0784 51.5174 53.0784C53.4092 50.8698 55.708 49.6026 58.4189 49.2652C60.6326 49.0282 62.6699 49.3554 64.5308 50.2504C65.7543 50.7488 67.0318 51.8009 68.3543 53.3901C71.1219 50.7243 72.5101 49.3863 72.5101 49.3863C70.2256 46.7604 67.6048 45.0244 64.6519 44.1796C62.63 43.5911 60.4819 43.3941 58.2025 43.5756Z" fill="#2E5943"/>
<path fill-rule="evenodd" clip-rule="evenodd" d="M27.4417 75.2727L27.9388 75.6204L61.5032 27.6737L61.0048 27.3273L27.4417 75.2727Z" fill="#2E5943"/>
<path fill-rule="evenodd" clip-rule="evenodd" d="M33.2008 78.9597L33.6941 79.3074L67.2584 31.362L66.7652 31.0143L33.2008 78.9597Z" fill="#2E5943"/>
<path fill-rule="evenodd" clip-rule="evenodd" d="M17.0426 67.7982C17.1533 67.9631 17.2448 68.1099 17.3143 68.2399C17.4457 68.4821 17.6221 68.7486 17.8385 69.0397C17.9131 69.1401 18.114 69.3874 18.4412 69.7892C18.9344 70.3932 19.3671 70.9418 19.7444 71.4453L20.3175 72.1897C20.4489 72.3597 20.615 72.6275 20.821 72.9894C20.8004 73.0795 20.7451 73.1607 20.6498 73.2302L19.7946 73.8793L19.6285 74.0158C19.6144 74.0248 19.5886 74.0454 19.5538 74.066L19.4173 73.905C19.398 73.8793 19.3671 73.8342 19.3169 73.7531C19.3516 73.6887 19.4122 73.5934 19.4881 73.4672L19.6594 73.0744C19.7341 72.9134 19.7946 72.728 19.8397 72.5168C19.8101 72.4305 19.7496 72.33 19.6736 72.2193C19.6543 72.1897 19.5989 72.1034 19.5036 71.9527C19.3272 71.6758 19.1314 71.3899 18.9048 71.0925C18.6485 70.755 18.4167 70.4537 18.2003 70.1974C18.1346 70.2476 17.8629 70.4537 17.3903 70.8104L16.691 71.3346L16.1682 71.7261C16.2132 71.802 16.2531 71.8626 16.2892 71.9128C16.6614 72.4112 16.937 72.7524 17.1134 72.9495C17.2898 73.1452 17.416 73.256 17.4856 73.2805C17.5616 73.3011 17.6569 73.301 17.7676 73.2753C17.8475 73.256 18.0896 73.1504 18.4875 72.9637L18.5326 73.0139L18.718 73.2611C18.4772 73.4569 18.2956 73.6024 18.1656 73.699C17.8732 73.9192 17.6865 74.0609 17.6015 74.1162C17.5165 74.1768 17.4508 74.227 17.4006 74.2618C17.3246 74.3171 17.2087 74.4124 17.0529 74.5438C16.8919 74.679 16.7721 74.7743 16.6962 74.8348L16.6009 74.9057L16.3794 74.6043C16.4141 74.5593 16.4901 74.473 16.6009 74.3378C16.8172 74.0853 16.9421 73.9192 16.973 73.8239C16.9975 73.7531 16.9924 73.6681 16.9576 73.5728C16.937 73.5071 16.7915 73.2907 16.5249 72.9392C16.2081 72.5168 15.9621 72.2141 15.7805 72.0184C15.7045 72.0738 15.6595 72.1085 15.6402 72.124C15.3079 72.37 15.031 72.576 14.8147 72.7421L13.9196 73.4169C13.8089 73.4968 13.769 73.5934 13.7831 73.699C13.814 73.8548 14.0446 74.227 14.4876 74.8104C14.7799 75.198 15.0568 75.5045 15.3182 75.7312C15.4985 75.887 15.7148 75.9823 15.9673 76.0171C16.2982 76.0673 16.6756 76.0274 17.1031 75.9011C17.1791 75.9823 17.2345 76.048 17.2744 76.1033C17.3002 76.133 17.3349 76.1832 17.3748 76.2437C17.3001 76.2888 17.2345 76.3248 17.1842 76.3545L17.0426 76.4253L16.1424 76.8632L15.6092 77.1439C15.4637 76.9726 15.353 76.8322 15.2718 76.7266C15.1572 76.5708 14.8597 76.1484 14.3768 75.4491C14.0394 74.961 13.617 74.3828 13.1147 73.7132C12.8623 73.3809 12.5404 72.9843 12.1489 72.5168L12.0175 72.3403L11.6209 71.8523L11.9119 71.6308C11.9622 71.6758 12.0574 71.7711 12.194 71.9128C12.4451 72.1742 12.637 72.3403 12.7773 72.4112C12.8778 72.3803 12.9885 72.3146 13.1096 72.2244C13.1598 72.1897 13.2397 72.1291 13.3504 72.0377L13.4818 71.9476L15.0413 70.755L15.5139 70.4035L16.1682 69.8858L16.6408 69.5381L17.1289 69.1105C17.1443 69.1002 17.1688 69.0757 17.2036 69.0397C17.2139 68.9894 17.2036 68.9341 17.1688 68.8697C17.1533 68.8336 17.1289 68.7885 17.098 68.728C17.013 68.5477 16.9228 68.3764 16.8172 68.2258C16.776 68.1743 16.7412 68.1099 16.6962 68.0339L17.0426 67.7982ZM16.3394 78.0196L16.6305 77.7324C16.7065 77.7736 16.7915 77.829 16.8868 77.8934C17.0683 78.0299 17.2345 78.1201 17.3748 78.1754C17.4663 78.151 17.541 78.1201 17.6015 78.075C17.7573 77.9539 17.9634 77.753 18.2248 77.4813L19.7496 75.8664C19.9054 75.7003 20.3136 75.2624 20.9666 74.5438C21.143 74.3519 21.2434 74.2218 21.2641 74.1613C21.2744 74.1356 21.2744 74.1111 21.2641 74.0853C21.2486 74.021 21.1881 73.9295 21.0825 73.8188C21.0374 73.7685 20.9266 73.6385 20.7502 73.4273L21.0026 73.1452L21.868 73.9347L23.1352 75.0718L23.2859 75.207C23.3168 75.2328 23.3464 75.2572 23.3812 75.2882C23.4018 75.3126 23.4675 75.3783 23.5783 75.4839L23.8139 75.7106C24.011 75.8921 24.1913 76.1175 24.3574 76.3944C24.4128 76.4858 24.4733 76.6262 24.5441 76.8129C24.6085 76.9984 24.6446 77.189 24.6446 77.3757C24.6446 77.5663 24.6046 77.7427 24.5338 77.9089C24.463 78.075 24.3574 78.2308 24.2273 78.3673C24.0805 78.518 23.9144 78.6236 23.7341 78.6841C23.5473 78.7395 23.3361 78.7537 23.1005 78.724C22.9846 78.7034 22.7425 78.6339 22.3754 78.5077C22.6768 78.9559 22.8184 79.3886 22.7978 79.811C22.7837 80.2282 22.6369 80.5746 22.3703 80.8515C22.2145 81.0177 22.0187 81.1632 21.7818 81.2842C21.6053 81.3795 21.4096 81.4298 21.1881 81.4452C20.9022 81.4607 20.6395 81.4297 20.4038 81.3551C20.1668 81.2842 19.8861 81.1387 19.559 80.9172C19.3928 80.8116 19.1662 80.621 18.879 80.3441L18.2557 79.7195C17.984 79.4581 17.6517 79.1619 17.2499 78.8296C17.1392 78.7343 16.8365 78.4678 16.3394 78.0196ZM20.821 76.8271C20.906 76.9379 21.0168 77.0589 21.1533 77.189C21.5306 77.547 21.8822 77.7479 22.2093 77.793C22.5364 77.838 22.8635 77.6925 23.1906 77.3499C23.4224 77.1091 23.5229 76.8168 23.492 76.4858C23.4623 76.1484 23.2653 75.8058 22.8983 75.4543C22.7927 75.3538 22.6369 75.2328 22.436 75.0963C22.3806 75.1516 22.3046 75.2379 22.2042 75.3487C22.0136 75.5753 21.7315 75.8767 21.3645 76.2643L21.0528 76.5708C21.0026 76.6262 20.9215 76.7112 20.821 76.8271ZM18.5725 79.2817C18.673 79.5032 18.7889 79.6848 18.9292 79.8161C19.2164 80.0917 19.4933 80.2681 19.7547 80.3583C20.0213 80.4446 20.2673 80.4446 20.4991 80.3686C20.7309 80.2939 20.9614 80.1381 21.1829 79.9011C21.4147 79.6642 21.5551 79.4233 21.6014 79.1915C21.671 78.8696 21.6465 78.5927 21.5306 78.3519C21.4199 78.1098 21.1881 77.8239 20.8313 77.4813C20.6704 77.3306 20.5493 77.2405 20.4695 77.2044L20.0265 77.668L19.483 78.2205L18.6678 79.0962C18.633 79.1413 18.6021 79.2018 18.5725 79.2817ZM29.4842 82.3106L29.2974 82.1947C29.2627 82.1702 29.2176 82.1342 29.1622 82.084C29.1712 82.0144 29.197 81.9037 29.2369 81.762L29.282 81.3396C29.3026 81.158 29.3026 80.9571 29.2768 80.7511C29.2472 80.706 29.1674 80.63 29.0309 80.5244L28.0908 79.7904L27.5061 79.3924L27.2498 79.2173C27.1996 79.2469 27.1494 79.2971 27.0991 79.3731L25.7006 81.3795L25.4945 81.6513L25.1326 82.2398C25.0773 82.3158 24.982 82.4458 24.8403 82.6223C24.7695 82.7034 24.7154 82.7781 24.6742 82.8386L24.4475 83.2005L24.3471 83.3319C24.2672 83.4671 24.2067 83.5637 24.1668 83.619C24.1307 83.6744 24.1063 83.7298 24.0908 83.7942C24.1011 83.8251 24.1719 83.9101 24.2969 84.0518L24.4076 84.187C24.4733 84.2681 24.5338 84.3273 24.5789 84.3737C24.6742 84.4484 24.7244 84.5141 24.7347 84.5591C24.745 84.6042 24.7193 84.6699 24.6639 84.7549C24.5789 84.8759 24.4939 84.9068 24.4128 84.8515C24.3831 84.8257 24.2621 84.7304 24.056 84.5643L23.8397 84.3982L23.7843 84.3582C23.6838 84.2771 23.5976 84.2179 23.528 84.1664L23.0696 83.8599L22.4566 83.4323L21.8629 83.0447L21.6968 82.9391C21.6658 82.9198 21.6465 82.894 21.6311 82.8592C21.6607 82.8141 21.6813 82.7729 21.7019 82.7536C21.7264 82.7085 21.7714 82.6532 21.8268 82.5875C21.877 82.5772 21.9685 82.5978 22.0934 82.648C22.1642 82.6725 22.2454 82.6982 22.3355 82.7176L22.5364 82.7729C22.6922 82.8193 22.7927 82.8386 22.8236 82.8335C22.8584 82.8283 22.9292 82.7639 23.0399 82.6429C23.1507 82.5218 23.2254 82.4368 23.2614 82.3763L23.8796 81.471L24.2518 80.9172L24.5686 80.4845L24.8558 80.0621C25.0116 79.8406 25.2125 79.5289 25.4649 79.1362L25.8512 78.603C25.9221 78.5025 25.9517 78.4266 25.9427 78.3815C25.9324 78.3416 25.8719 78.2759 25.7611 78.2012C25.7212 78.1754 25.6207 78.075 25.4546 77.9089C25.2885 77.7479 25.197 77.6526 25.188 77.6268C25.1932 77.5766 25.2382 77.4813 25.3335 77.3499C25.349 77.3255 25.3735 77.2946 25.4044 77.2701L25.5241 77.3499C25.5795 77.386 25.7006 77.4813 25.8873 77.632L27.0888 78.5425L28.7797 79.7105L29.3528 80.0969C29.7353 80.3634 30.0676 80.63 30.3535 80.8914C30.3741 80.9777 30.3444 81.073 30.2736 81.1786L29.4842 82.3106ZM30.7308 81.0074C30.9072 81.0936 31.063 81.1683 31.1892 81.2443C31.4301 81.3795 31.7224 81.516 32.0547 81.6513C32.1744 81.6963 32.4771 81.8071 32.9651 81.9784C33.6941 82.2398 34.3483 82.4819 34.9316 82.7137L35.8125 83.055C36.0134 83.131 36.2903 83.2713 36.6573 83.4722C36.6869 83.5637 36.6818 83.659 36.6419 83.7697L36.2452 84.7652L36.1744 84.9674C36.1692 84.9867 36.1538 85.0176 36.1345 85.0524L35.9323 84.9867C35.9078 84.9764 35.8524 84.9519 35.7713 84.912C35.7674 84.836 35.7674 84.7201 35.7674 84.5746L35.7069 84.1522C35.6915 83.9758 35.6464 83.7852 35.5704 83.5778C35.4996 83.5224 35.4043 83.4671 35.2794 83.4168C35.2433 83.3975 35.1531 83.3525 34.9922 83.2765C34.6998 83.131 34.3779 82.9893 34.0315 82.8489C33.6387 82.6931 33.282 82.5617 32.9651 82.451C32.9342 82.5321 32.8145 82.8489 32.593 83.4027L32.2659 84.2076L32.0238 84.8154C32.1049 84.8566 32.1706 84.8914 32.2298 84.912C32.8042 85.1425 33.2163 85.2932 33.4725 85.3692C33.725 85.4452 33.8898 85.4748 33.9606 85.4542C34.0366 85.44 34.1165 85.3898 34.2027 85.3087C34.2581 85.2481 34.4088 85.0318 34.6496 84.6647L34.7153 84.6853L35.0025 84.8013C34.902 85.0923 34.8209 85.3138 34.7604 85.4593C34.6251 85.8019 34.5389 86.0182 34.4938 86.1135C34.4539 86.2088 34.4242 86.2848 34.3985 86.3402C34.3637 86.4252 34.3135 86.5669 34.2478 86.7626C34.1821 86.9583 34.1319 87.1052 34.092 87.1953L34.0521 87.3061L33.7044 87.1657C33.7095 87.1103 33.7301 86.9944 33.7546 86.818C33.81 86.496 33.8306 86.2848 33.8048 86.1895C33.7894 86.1187 33.7443 86.0479 33.6644 85.9835C33.6091 85.9371 33.3721 85.8276 32.96 85.6654C32.4719 85.4696 32.1049 85.3396 31.8486 85.2687C31.8125 85.3537 31.7932 85.4039 31.7829 85.4297C31.6271 85.8173 31.5009 86.1341 31.4004 86.3904L30.9832 87.4323C30.9381 87.5572 30.9471 87.6576 31.018 87.7388C31.1236 87.8598 31.5164 88.0556 32.195 88.3273C32.6483 88.5037 33.045 88.6235 33.3824 88.6789C33.6232 88.7201 33.855 88.6892 34.0868 88.5836C34.3933 88.4574 34.6998 88.2268 34.9973 87.8946C35.1029 87.9242 35.1879 87.95 35.2536 87.9796C35.2884 87.9899 35.3399 88.0156 35.4094 88.0453C35.3695 88.1264 35.3347 88.1869 35.3038 88.241L35.2188 88.3724L34.6754 89.2172L34.3689 89.7362C34.1577 89.6602 33.9915 89.5997 33.8653 89.5494C33.6837 89.4786 33.206 89.2726 32.4371 88.9313C31.8937 88.6892 31.2292 88.4123 30.4552 88.1058C30.0676 87.95 29.5846 87.7735 29.0064 87.5829L28.7991 87.5018L28.2054 87.2906L28.3419 86.9532C28.4127 86.9583 28.5376 86.9944 28.7295 87.0446C29.0811 87.1399 29.3322 87.1799 29.4893 87.1657C29.5537 87.0897 29.6194 86.9738 29.6748 86.8334C29.7005 86.778 29.7353 86.6866 29.7804 86.5514L29.8461 86.4007L30.5608 84.5746L30.781 84.026L31.0682 83.2469L31.2897 82.7034L31.4854 82.084C31.4906 82.0647 31.5009 82.0337 31.5164 81.9835C31.4957 81.9333 31.4558 81.8934 31.3953 81.8573C31.3657 81.838 31.3193 81.8071 31.2639 81.7723C31.094 81.6616 30.9278 81.5663 30.7617 81.4903C30.7012 81.4658 30.6303 81.4298 30.5556 81.3847L30.7308 81.0074ZM35.9233 90.2139C35.9374 90.1135 35.9735 89.9924 36.0186 89.8508L36.6818 89.8559C36.7629 89.8508 36.8634 89.8418 36.9844 89.8212L37.2755 88.5539C37.3411 88.0852 37.3965 87.7439 37.4364 87.5121L37.4622 87.391C37.497 87.2507 37.5678 86.8991 37.6683 86.335L37.6786 86.1844L37.7687 85.7568L37.8395 85.3087L37.8743 85.0872C37.9104 84.8914 37.94 84.6544 37.9554 84.3827C37.9554 84.3582 37.9503 84.3183 37.94 84.2526C37.9104 84.2372 37.8846 84.2269 37.8498 84.2179C37.8189 84.2076 37.7842 84.1973 37.7532 84.1818C37.6232 84.1367 37.4828 84.0968 37.3308 84.0556L37.2562 84.0208C37.1647 83.9964 37.0952 83.9706 37.0552 83.9461C37.0591 83.8444 37.0643 83.78 37.0694 83.7543C37.0797 83.7143 37.1003 83.659 37.1299 83.5881C37.2059 83.583 37.3012 83.5984 37.4223 83.619C37.5472 83.6384 37.6335 83.6538 37.6837 83.659C38.0907 83.7749 38.3972 83.8547 38.5993 83.8959C38.6946 83.9101 38.7848 83.9307 38.8814 83.95C38.9715 83.9758 39.0565 83.9912 39.1273 84.0054C39.2432 84.026 39.5201 84.0556 39.967 84.102C40.0378 84.0968 40.1177 84.102 40.204 84.1161C40.334 84.1419 40.4396 84.1664 40.5208 84.1921C40.5156 84.2629 40.5053 84.3183 40.5002 84.3479C40.4911 84.4033 40.4705 84.4742 40.4396 84.5489L39.4995 84.5347C39.4235 84.554 39.3836 84.5939 39.3733 84.6596L39.3489 84.8515L39.3334 84.9365L39.2935 85.158L39.2536 85.3344L39.2433 85.3743C39.2484 85.4091 39.2432 85.4452 39.2381 85.4696L39.1119 86.1187C39.1119 86.1844 39.1067 86.2294 39.1016 86.2591C39.0964 86.2797 39.0874 86.3299 39.0617 86.42C39.0514 86.4754 39.0411 86.5308 39.032 86.5913C39.0217 86.6416 39.0011 86.7626 38.9767 86.9532C39.072 86.9892 39.148 87.0137 39.2123 87.0292L39.9722 87.1799L40.3443 87.2455L41.2703 87.4117L42.1756 87.543C42.2915 87.5623 42.4177 87.5726 42.5529 87.5726C42.5787 87.4567 42.6341 87.1747 42.7139 86.7227L42.7693 86.4909L42.9006 85.6151L42.9045 85.2481C42.9006 85.2237 42.88 85.1927 42.8504 85.1683C42.7448 85.082 42.5233 84.9622 42.1859 84.8154C42.1254 84.7909 42.0649 84.76 42.0146 84.7304C42.0455 84.6094 42.07 84.5141 42.1048 84.4432C42.1808 84.4536 42.2258 84.4587 42.2464 84.4638L42.7397 84.554C43.0462 84.6493 43.363 84.7304 43.6901 84.7858C43.7648 84.8013 43.8253 84.8103 43.8665 84.8103L44.5349 84.912C44.5954 84.9159 44.6559 84.9262 44.7165 84.9313C44.8414 84.9262 44.9676 84.9365 45.099 84.9571C45.1942 84.9764 45.3153 85.0022 45.4505 85.0369C45.4261 85.1683 45.3952 85.2893 45.3604 85.3949C45.0384 85.404 44.8272 85.4143 44.7268 85.4297C44.6212 85.44 44.5194 85.4645 44.4087 85.4954L44.3636 85.5958L44.3494 85.6808L44.3288 85.8173L44.3082 85.8817C44.2889 85.9526 44.2735 86.0079 44.2632 86.0427L44.2438 86.1689C44.2232 86.3247 44.2129 86.411 44.2078 86.4303L44.0919 87.0794L44.0172 87.5726L43.8858 88.2217C43.8511 88.3724 43.806 88.6789 43.7403 89.1476L43.609 89.8765L43.5137 90.4805C43.4943 90.5964 43.4686 90.7317 43.4338 90.8875C43.5033 90.9235 43.5639 90.9532 43.6244 90.9789C43.9309 91.0987 44.1627 91.2146 44.3134 91.315L44.258 91.6769C44.1228 91.6576 44.0417 91.6473 44.0172 91.6421C43.8511 91.6125 43.6695 91.5674 43.4583 91.5121C43.1814 91.4309 42.7345 91.3408 42.1151 91.23C41.833 91.1798 41.466 91.1386 41.0191 91.1038C40.9689 91.0935 40.9135 91.0742 40.8479 91.0381C40.8826 90.8823 40.9187 90.7716 40.9535 90.711L41.3553 90.6866L41.7738 90.6917C41.8189 90.6866 41.8743 90.6866 41.9386 90.6711C42.0249 90.4045 42.1202 89.9474 42.2361 89.3035L42.3366 88.8707C42.3417 88.684 42.3623 88.4677 42.4074 88.2165C42.2864 88.1818 42.1511 88.1509 42.0043 88.1212L39.6257 87.6782L39.5794 87.6679L39.5446 87.6576C39.5253 87.6525 39.4944 87.6486 39.4648 87.6486C39.3733 87.6332 39.2986 87.6229 39.2381 87.6126L39.0926 87.5881C39.0269 87.5778 38.9509 87.5726 38.8659 87.5778L38.7796 87.9603L38.7655 88.026C38.7603 88.1212 38.75 88.1818 38.7449 88.2062L38.468 89.7967C38.4487 89.8868 38.4384 89.977 38.4281 90.0671L38.468 90.1083L39.2123 90.3595C39.2484 90.3852 39.278 90.3942 39.2986 90.4045C39.3437 90.42 39.3785 90.4445 39.4042 90.4702C39.3991 90.5501 39.3991 90.6016 39.3939 90.6312C39.3836 90.6763 39.363 90.7368 39.3385 90.8128C39.2123 90.7922 39.1067 90.7767 39.0217 90.7626C38.9458 90.7471 38.8762 90.7368 38.8157 90.7214C38.7796 90.7111 38.7552 90.7072 38.7243 90.6969L38.0057 90.5411C37.8395 90.4947 37.5974 90.4445 37.2909 90.3891L37.1802 90.3801C37.0346 90.3595 36.9496 90.3492 36.9239 90.3492C36.7075 90.3389 36.3701 90.2938 35.9181 90.2139H35.9233ZM48.3777 89.9422C50.0429 87.9191 51.1298 86.5617 51.6436 85.8624C51.6179 85.6061 51.5973 85.4593 51.578 85.4194C51.5522 85.3846 51.4917 85.3486 51.3912 85.3087C51.2908 85.2687 51.1002 85.2288 50.8078 85.1876C50.6726 85.1683 50.5812 85.1528 50.5361 85.1374C50.531 85.0124 50.5361 84.912 50.5516 84.836L50.6971 84.8206C50.9894 84.7961 51.1852 84.7806 51.2805 84.7858C51.5574 84.7961 51.8342 84.791 52.106 84.7652C52.5541 84.7253 52.9559 84.6751 53.3178 84.6042C53.4543 84.5798 53.5599 84.5643 53.6398 84.554C53.7157 84.5488 53.8265 84.5437 53.9669 84.5437C53.9772 84.6802 53.9772 84.8064 53.972 84.912C53.5844 85.0318 53.3333 85.1181 53.2122 85.1837C53.0976 85.243 53.0422 85.3344 53.0512 85.4645L53.1169 86.214L53.2225 87.3666L53.2727 88.026L53.3693 88.9558L53.4337 89.6949L53.4994 90.3041C53.5097 90.4251 53.52 90.5655 53.5251 90.7214C53.5998 90.7368 53.6655 90.7471 53.7312 90.7522C54.0634 90.7922 54.3146 90.8424 54.491 90.9029L54.5361 91.2751L54.3146 91.2957C54.254 91.3009 54.1884 91.3047 54.1137 91.3047L53.7209 91.3202C53.4285 91.3099 52.9765 91.3356 52.3519 91.391C52.0351 91.4155 51.7892 91.4515 51.623 91.4863C51.4067 91.5314 51.2753 91.5623 51.2302 91.5623C51.1903 91.5674 51.1401 91.5623 51.0693 91.5468C51.0551 91.3807 51.0551 91.2648 51.0641 91.2043L51.4118 91.0884L51.6127 91.033C51.8239 90.9789 51.9656 90.9377 52.03 90.9081C52.0506 90.6466 52.021 90.0324 51.9347 89.0614L51.7943 87.5276L51.7235 86.5565L48.4331 90.626C48.4743 91.0085 48.4936 91.2094 48.5039 91.2249C48.5297 91.2493 48.5902 91.2597 48.6907 91.2597L49.0319 91.2854C49.3397 91.3099 49.5097 91.3356 49.5458 91.3549C49.56 91.4361 49.5702 91.4915 49.5754 91.5211C49.5805 91.5623 49.5754 91.6267 49.5702 91.7078L49.2483 91.7426C49.1131 91.7529 48.9263 91.758 48.6855 91.758L48.2927 91.7876L48.0262 91.798L47.5484 91.8237C47.3977 91.8379 47.211 91.8636 46.9946 91.9036C46.7731 91.9448 46.4769 91.9795 46.1047 92.0143C46.0944 91.9036 46.0944 91.7825 46.0996 91.637C46.1292 91.6267 46.2052 91.6125 46.3159 91.5868L46.5374 91.5262C46.7538 91.4709 46.9148 91.4155 47.0204 91.3601C46.9998 90.702 46.965 90.1328 46.9251 89.6447L46.8645 88.9558L46.7229 87.1953C46.6778 86.6673 46.6173 86.214 46.5477 85.8367C46.5426 85.8173 46.5271 85.7813 46.5014 85.7311C46.4769 85.7208 46.446 85.7207 46.4009 85.7207C46.3713 85.7207 46.3365 85.7169 46.3005 85.7117C46.1395 85.7014 45.9888 85.6963 45.8626 85.7014L45.7828 85.686C45.6823 85.686 45.6064 85.6757 45.5613 85.6615C45.5407 85.5649 45.5317 85.5057 45.5265 85.4748C45.5265 85.4349 45.5317 85.3795 45.5458 85.3035C45.6218 85.279 45.7017 85.2636 45.7879 85.2584C46.0442 85.234 46.3404 85.2236 46.683 85.2236C46.9946 85.2236 47.2522 85.2134 47.4531 85.1979C47.7338 85.1734 47.9965 85.1374 48.2271 85.0923C48.5194 85.0318 48.6907 85.0022 48.7409 84.997C48.8104 84.9918 48.8967 84.9918 48.9972 85.0021L49.0178 85.158C49.0216 85.2134 49.0178 85.279 49.0126 85.3589L48.1073 85.5855C48.0558 85.5958 48.0313 85.6808 48.0365 85.8367C48.0365 85.9925 48.0519 86.1792 48.0661 86.3956L48.097 86.6364L48.1318 87.1051L48.1627 87.3769L48.1768 87.7285C48.1768 87.7735 48.1923 87.8547 48.2077 87.9744C48.2271 88.1264 48.2477 88.2822 48.258 88.4329C48.2683 88.5591 48.2773 88.684 48.2824 88.8102L48.2876 89.082L48.3777 89.9422ZM61.6989 89.1476C61.7247 89.212 61.7401 89.2622 61.7491 89.2983C61.7594 89.3279 61.7697 89.3833 61.7852 89.4696C61.4581 89.5546 61.1361 89.6203 60.8245 89.6653L60.6171 89.7104L60.4471 89.7413C60.2952 89.7658 60.1754 89.7915 60.084 89.816C59.9436 89.8508 59.5264 89.9924 58.8168 90.2384L58.6159 90.2796C58.5901 90.2835 58.545 90.2989 58.4897 90.3144C58.4497 90.2436 58.4098 90.1225 58.3686 89.9525C58.3995 89.9216 58.5154 89.8559 58.7112 89.7606C59.0022 89.6203 59.2096 89.4837 59.3345 89.3588L59.0679 88.4174L58.8219 87.4271L58.7215 87.0949L58.6906 86.9583L58.3235 87.0395C58.1175 87.0949 57.972 87.1554 57.896 87.2211C57.8252 87.2906 57.7698 87.3859 57.7299 87.5018C57.6899 87.6177 57.6049 87.95 57.4736 88.5037C57.3422 89.0511 57.2469 89.534 57.1774 89.9474L57.046 90.6866L56.4923 90.787L55.1439 91.1798L55.0744 91.1991L54.8632 91.2493C54.8477 91.2043 54.8323 91.1695 54.8271 91.1386C54.813 91.0884 54.813 91.0382 54.822 90.9789C54.8928 90.9326 54.9932 90.863 55.1298 90.7819C55.2959 90.6814 55.4105 90.5501 55.4865 90.3942C55.5573 90.2384 55.7131 89.7658 55.9398 88.9815C56.2257 88.0053 56.4472 87.4413 56.603 87.2803C55.5573 87.2751 54.9327 86.8785 54.7267 86.0891C54.6017 85.5958 54.6867 85.1374 54.9829 84.715C55.2804 84.2926 55.8934 83.9603 56.84 83.7195C57.1169 83.6435 57.3731 83.5933 57.6191 83.5585C57.9359 83.5083 58.3132 83.4272 58.7408 83.3164L58.9378 83.261L59.1181 83.2108C59.5367 83.1001 59.8483 83.0395 60.0544 83.0253C60.0698 83.0498 60.0788 83.0653 60.084 83.0704L60.1149 83.2005C60.1394 83.3022 60.1548 83.3576 60.1497 83.3718C60.0891 83.4027 59.9938 83.4375 59.8586 83.4825C59.6461 83.5585 59.4761 83.6281 59.3345 83.6989C59.3654 83.8959 59.471 84.3376 59.6461 85.0215L60.0144 86.3402L60.1303 86.8077L60.3364 87.5276L60.442 87.9603C60.6223 88.6595 60.7382 89.0562 60.7884 89.1566C60.9198 89.1721 61.0962 89.1669 61.3074 89.1425C61.4825 89.1219 61.6139 89.1219 61.6989 89.1476ZM58.5798 86.4754L58.4343 85.9732L58.3738 85.7414L58.2385 85.1928L58.1175 84.7806L57.9217 84.0054C57.8213 84.0105 57.6796 84.0414 57.4993 84.0865C56.9803 84.2217 56.6288 84.4136 56.442 84.6699C56.2566 84.921 56.2205 85.279 56.3364 85.7311C56.442 86.1496 56.6481 86.4303 56.9507 86.5772C57.2521 86.7175 57.6796 86.7227 58.2231 86.581L58.5798 86.4754ZM67.2082 79.6036C67.2983 79.6745 67.5198 79.8908 67.8714 80.2578C68.0324 80.424 68.174 80.6159 68.2938 80.8322L67.8766 81.0576C67.3589 80.8013 66.8952 80.6661 66.4883 80.6558C66.0762 80.6403 65.6783 80.7356 65.2906 80.943C64.818 81.1992 64.5308 81.5907 64.4407 82.1149C64.3158 82.8283 64.4909 83.6332 64.9687 84.5295C65.2507 85.0472 65.4825 85.3988 65.668 85.5855C65.9706 85.8817 66.2668 86.0981 66.554 86.2346C66.7755 86.335 67.0163 86.3801 67.2829 86.3698C67.6254 86.3647 67.9525 86.2797 68.2539 86.1135C68.5965 85.9332 68.863 85.6512 69.0639 85.2739C69.2648 84.8965 69.4013 84.4239 69.467 83.8495C69.5675 83.7697 69.7078 83.6796 69.8894 83.5778C69.9396 83.6989 69.9847 83.8302 70.0246 83.9706C70.0401 84.026 70.1109 84.2372 70.2307 84.6094L70.2667 84.7704L70.317 85.0176C70.2062 85.2636 70.004 85.5147 69.7027 85.7671C69.4013 86.0234 69.0085 86.2797 68.5153 86.5462C68.138 86.7471 67.7607 86.903 67.3885 87.0137C67.0163 87.1245 66.6699 87.1657 66.3479 87.1399C65.8792 87.1103 65.4774 87.0137 65.14 86.8682C64.8025 86.7175 64.5063 86.5166 64.2449 86.2642C63.9886 86.0131 63.7568 85.7014 63.5559 85.3241C63.0679 84.4136 62.9623 83.498 63.2482 82.5823C63.5302 81.6667 64.1393 80.9571 65.0743 80.4549C65.4516 80.2527 65.8186 80.0776 66.1766 79.9359C66.5334 79.7955 66.8759 79.6848 67.2082 79.6036ZM70.9905 85.1631L70.7742 84.8708C70.8141 84.8154 70.8901 84.7253 71.006 84.5991C71.1824 84.393 71.2828 84.2578 71.3022 84.187C71.3228 84.1213 71.3125 84.0015 71.2828 83.8251L70.4226 81.0022L69.4013 77.6874C69.4915 77.6165 69.5765 77.547 69.6628 77.4813L69.8482 77.3358L69.9448 77.3809L71.977 78.5232C72.4187 78.7537 72.8372 78.9906 73.2287 79.2314C73.6215 79.4684 73.9435 79.659 74.2049 79.8007C74.3607 79.8908 74.5874 80.0222 74.8849 80.2076C75.0407 80.3081 75.2519 80.424 75.5185 80.5605C75.664 80.63 75.7541 80.6661 75.7992 80.6609C75.8803 80.6609 75.9808 80.6249 76.107 80.5553C76.228 80.4793 76.3736 80.4137 76.5397 80.3634C76.6247 80.4446 76.6852 80.5102 76.72 80.5553C76.7355 80.5746 76.7612 80.6055 76.7908 80.6455C76.5848 80.8064 76.353 80.9726 76.0967 81.1387C75.8353 81.31 75.6086 81.471 75.4129 81.6216C75.1965 81.7929 75.0407 81.9178 74.9493 81.999L74.2757 82.5772L74.0838 82.7433C74.0091 82.648 73.9383 82.5527 73.8778 82.4561L74.2603 82.0041C74.371 81.8624 74.4264 81.7723 74.4367 81.7375C74.4418 81.6873 74.4315 81.6422 74.4058 81.6062C74.3762 81.5714 74.3414 81.5405 74.2963 81.516L73.8173 81.2392L72.8669 80.6802L71.297 81.9088C71.3434 82.0788 71.4683 82.4973 71.6846 83.1503C71.7452 83.337 71.7954 83.4529 71.8353 83.5083C71.8907 83.5778 71.9512 83.6139 72.0117 83.6139C72.1173 83.6139 72.268 83.5585 72.4599 83.4426C72.4895 83.4272 72.6003 83.3666 72.787 83.261C72.8669 83.3576 72.9222 83.422 72.9531 83.4581C72.9725 83.4877 72.993 83.5224 73.0124 83.5585C72.8424 83.6937 72.4238 83.9861 71.7503 84.4432L71.6048 84.6042C71.4284 84.7961 71.2468 84.9622 71.0613 85.1078L70.9905 85.1631ZM71.1219 81.3448C71.7709 80.8567 72.1521 80.5656 72.268 80.4742L72.3646 80.3892C72.0929 80.2076 71.7658 80.0119 71.3781 79.7852C70.9956 79.5637 70.6943 79.3976 70.4779 79.292L71.1219 81.3448ZM72.0774 76.2193L71.7851 75.9475L72.6866 75.0873L73.0587 74.6739L73.1991 74.5232C73.3395 74.3674 73.5558 74.1162 73.843 73.7685C74.004 73.5676 74.1096 73.4414 74.1495 73.3912C74.447 73.0744 74.6878 72.8477 74.8745 72.7177C75.1553 72.5116 75.4219 72.3906 75.6691 72.3507C75.9151 72.3056 76.1971 72.3249 76.4985 72.4112C76.8063 72.5013 77.0471 72.6275 77.2287 72.7872C77.6756 73.2006 77.9074 73.6732 77.928 74.2115C77.9473 74.7498 77.7567 75.2328 77.3639 75.6603C77.2287 75.8059 77.078 75.9321 76.917 76.0377C76.7612 76.1381 76.5899 76.2141 76.4083 76.2695C76.3234 76.2141 76.2178 76.1227 76.0864 76.0068C76.1469 75.9475 76.2023 75.8973 76.2525 75.8471C76.3027 75.8007 76.3427 75.7556 76.3787 75.7157C76.5848 75.4994 76.6955 75.2572 76.7097 74.9958C76.7354 74.6545 76.5693 74.3171 76.2177 73.99C75.9653 73.7582 75.7194 73.6127 75.4772 73.5522C75.2364 73.4865 75.0355 73.4917 74.8694 73.5573C74.6376 73.6526 74.4264 73.8046 74.241 74.0106C74.0594 74.2012 73.9641 74.3674 73.9435 74.5039C73.9641 74.549 73.9782 74.5889 74.004 74.6288L75.8353 76.2695L75.9859 76.4201L76.1521 76.5605C76.1868 76.5914 76.2371 76.6416 76.3079 76.706L76.6247 76.9932L77.1334 77.4568L77.7309 78.0042C77.8172 78.0801 77.9383 78.1806 78.0889 78.3068L78.8938 77.6217C78.9634 77.668 79.0187 77.708 79.0548 77.7376C79.0947 77.7736 79.1398 77.8329 79.2003 77.9089C79.1501 77.9797 79.1102 78.0351 79.0793 78.0647C79.0046 78.1458 78.8578 78.2862 78.6376 78.4922C78.4212 78.6931 78.1791 78.9352 77.9228 79.2173C77.6305 79.5341 77.369 79.8509 77.1475 80.1728C77.1076 80.2282 77.0471 80.3081 76.957 80.4188C76.872 80.3634 76.8114 80.3184 76.7754 80.2836C76.7509 80.263 76.72 80.2282 76.6749 80.178L76.8114 79.8702C76.9119 79.6693 76.9814 79.4787 77.0175 79.292C76.9673 79.207 76.9119 79.131 76.8462 79.0705C76.8204 79.0511 76.7908 79.0254 76.7561 78.9958C76.6749 78.9249 76.5642 78.8245 76.4186 78.6931L75.3317 77.7131L74.08 76.6365C73.4863 76.1175 73.1592 75.8471 73.1038 75.8162C73.0124 75.7659 72.9274 75.7402 72.8462 75.7453C72.7664 75.7505 72.6659 75.7955 72.5552 75.8818C72.3234 76.0583 72.1676 76.1729 72.0774 76.2193Z" fill="#2E5943"/>
<path fill-rule="evenodd" clip-rule="evenodd" d="M80.0104 70.4536C80.2666 70.2476 80.559 70.1162 80.8912 70.0557C81.2274 70.0003 81.736 69.9965 82.4199 70.0467C83.2196 70.1059 83.7579 70.1111 84.0348 70.0518C84.3168 69.9913 84.5886 69.8496 84.8603 69.623C84.9607 69.538 85.0303 69.4878 85.0663 69.4672C85.1217 69.4981 85.1616 69.5225 85.1912 69.538C85.2222 69.5638 85.2724 69.6037 85.3329 69.6642L85.0058 70.1368L84.5473 70.7756C84.4366 70.9417 84.2962 71.1632 84.1352 71.4453C83.6227 71.3744 82.9337 71.3139 82.0683 71.2637C81.208 71.2186 80.6594 71.2379 80.4225 71.3345C80.192 71.4247 80.0104 71.5599 79.8893 71.7415C79.9898 71.8265 80.0812 71.8973 80.1662 71.9527L80.7805 72.3351C80.9054 72.4111 81.0213 72.4858 81.1321 72.5618L81.6459 72.9185L81.8069 73.0138L82.1082 73.2057C82.2138 73.1902 82.3748 73.0949 82.5912 72.9031C82.7122 72.7975 82.8268 72.7228 82.9479 72.6726C83.0084 72.697 83.0535 72.7228 83.0844 72.7421C83.1037 72.7575 83.1398 72.7833 83.1797 72.8232C83.0986 72.9533 83.029 73.0589 82.9788 73.1452C82.832 73.3564 82.6671 73.583 82.4804 73.8239L82.2692 74.1059L82.0232 74.5038L81.4991 75.2623L81.2377 75.6847L80.9968 75.5251C80.9917 75.4839 81.0265 75.3126 81.1024 75.0061L81.1321 74.8657C81.1578 74.6996 81.1771 74.5888 81.1977 74.5386C81.2029 74.4575 81.1771 74.3879 81.1269 74.3274C81.0818 74.272 80.8603 74.111 80.4727 73.8496L80.0503 73.583L79.1398 72.9636L78.4856 72.5309L78.3053 72.3957L77.7412 72.0286L77.53 71.8625C77.1978 71.641 76.957 71.5097 76.8114 71.4697C76.6749 71.5097 76.4895 71.641 76.2525 71.8522C76.1122 71.9836 76.0014 72.0583 75.9254 72.0892L75.6743 71.8767C75.7039 71.8123 75.7348 71.7518 75.7799 71.6912C75.9203 71.48 76.0709 71.2843 76.2422 71.0924C76.4084 70.9018 76.6041 70.6404 76.8256 70.3081L76.9415 70.1162L77.2738 69.5882C77.324 69.5084 77.3897 69.3976 77.4695 69.2508L77.5558 69.0898L77.6356 68.9842C77.6666 68.9945 77.6962 69.01 77.7412 69.0345C77.8378 69.1053 77.8971 69.1504 77.9228 69.1813C77.8726 69.3976 77.7966 69.614 77.7065 69.82C77.6305 69.981 77.5957 70.0866 77.5957 70.1368C77.6009 70.1871 77.6356 70.2373 77.7168 70.2927C78.0078 70.4833 78.1945 70.6095 78.295 70.6648L78.6672 70.907L78.9338 71.0975L79.2609 71.319L79.6279 71.5753C79.6884 71.3693 79.718 71.1478 79.709 70.907C79.7039 70.67 79.5777 70.2875 79.3368 69.7698C78.9132 68.8735 78.702 68.2206 78.7071 67.802C78.702 67.3848 78.8037 67.0332 78.9994 66.746C79.19 66.455 79.4115 66.2837 79.6588 66.2335C79.9099 66.1781 80.1314 66.2232 80.3323 66.3584C80.483 66.4588 80.5835 66.5953 80.6388 66.7666C80.6891 66.9379 80.6594 67.1027 80.5487 67.2689C80.4637 67.3951 80.3671 67.4801 80.2667 67.5161C80.1662 67.5509 80.0001 67.5767 79.7786 67.5767C79.5532 67.5767 79.4064 67.6269 79.3368 67.7325C79.1759 67.9733 79.2905 68.5065 79.6833 69.3319C79.9151 69.8149 80.0258 70.1871 80.0104 70.4536ZM85.0908 65.5187C83.9447 63.1646 83.1591 61.6102 82.7367 60.8555C82.4907 60.7693 82.3491 60.7293 82.304 60.7345C82.2641 60.7396 82.2035 60.7744 82.1288 60.8555C82.0477 60.9302 81.9318 61.0873 81.776 61.3333C81.7013 61.4544 81.6498 61.5239 81.6201 61.56C81.4991 61.5097 81.4089 61.4647 81.3484 61.4235L81.3935 61.2831C81.4939 61.0062 81.5596 60.8246 81.6047 60.7345C81.7309 60.4885 81.8365 60.2361 81.9318 59.9747C82.0773 59.5574 82.1984 59.1698 82.2847 58.8079C82.3194 58.6766 82.349 58.571 82.3748 58.4963C82.3993 58.4254 82.4405 58.3198 82.501 58.1898C82.6311 58.24 82.7418 58.2902 82.8371 58.3404C82.7818 58.7422 82.7624 59.0088 82.7676 59.1453C82.7727 59.2754 82.8371 59.3668 82.9582 59.4067L83.6678 59.6579L84.7585 60.0404L85.378 60.2722L86.2679 60.5684L86.962 60.8156L87.5467 61.0062C87.6613 61.0461 87.7926 61.0964 87.933 61.1569C87.9781 61.0964 88.0193 61.0371 88.0541 60.9818C88.2254 60.6997 88.376 60.4885 88.5022 60.352L88.859 60.4628L88.7881 60.6791C88.7688 60.7345 88.743 60.795 88.7134 60.8658L88.5628 61.2277C88.4366 61.484 88.2653 61.9116 88.0592 62.5001C87.9536 62.8027 87.8776 63.0384 87.8429 63.2045C87.7978 63.4209 87.7669 63.5522 87.7527 63.5921C87.7373 63.6321 87.7115 63.6772 87.6664 63.7325C87.5106 63.6772 87.405 63.6269 87.3548 63.5973L87.3947 63.2354L87.4256 63.0281C87.4655 62.8066 87.4861 62.6611 87.4861 62.5954C87.2595 62.4653 86.6864 62.2387 85.7656 61.9116L84.3117 61.4042L83.4012 61.0719L85.7347 65.7454C86.1018 65.8703 86.2936 65.936 86.3142 65.936C86.3439 65.9205 86.3786 65.8703 86.4237 65.7802L86.5847 65.4736C86.7366 65.2122 86.8319 65.0654 86.8667 65.0409C86.9427 65.0603 86.9981 65.0706 87.0225 65.0809C87.0676 65.0963 87.123 65.1259 87.1938 65.1672L87.0934 65.4736C87.0483 65.5986 86.9723 65.7699 86.8719 65.9914L86.7366 66.3584L86.6362 66.6056L86.4597 67.0525C86.4095 67.1942 86.3593 67.3745 86.3039 67.5908C86.2485 67.8072 86.1571 68.0944 86.0322 68.4459C85.9317 68.4112 85.8159 68.3558 85.6896 68.2901C85.6948 68.2605 85.7103 68.1896 85.7347 68.0737L85.7708 67.8484C85.8107 67.6269 85.8261 67.4608 85.821 67.3397C85.2119 67.0886 84.6787 66.8774 84.2164 66.7164L83.5673 66.4846L81.9073 65.8806C81.4089 65.7042 80.9711 65.5689 80.5989 65.4788C80.5783 65.4788 80.5384 65.4788 80.483 65.4788C80.4676 65.493 80.4482 65.5239 80.4328 65.5587C80.4173 65.5896 80.4032 65.6192 80.3826 65.6501C80.3027 65.7956 80.237 65.9257 80.1868 66.0467L80.1417 66.1124C80.1005 66.2026 80.0606 66.2682 80.031 66.303C79.9344 66.2837 79.8752 66.2631 79.8442 66.2579C79.8095 66.2425 79.7592 66.2129 79.6987 66.1678C79.709 66.0918 79.7283 66.012 79.7541 65.9257C79.8391 65.69 79.955 65.4131 80.0954 65.1015C80.2216 64.8194 80.322 64.5825 80.3928 64.3919C80.483 64.1253 80.559 63.8742 80.6195 63.6372C80.6839 63.35 80.7303 63.18 80.7444 63.1337C80.7702 63.0693 80.805 62.9933 80.8552 62.9032L81.002 62.9482C81.0574 62.9688 81.1166 62.9985 81.1874 63.0384L81.0162 63.954C81.0059 64.0094 81.0715 64.0648 81.217 64.1253C81.3587 64.1858 81.5351 64.2567 81.736 64.3262L81.9679 64.4022L82.4096 64.5632L82.6671 64.6482L82.9929 64.7847C83.0393 64.7988 83.114 64.8194 83.2299 64.8542C83.3806 64.9006 83.5261 64.9508 83.6729 65.001C83.7888 65.041 83.9034 65.086 84.0194 65.1311L84.2718 65.2418L85.0908 65.5187ZM83.4617 52.6109C83.5725 52.5852 83.879 52.5401 84.3864 52.4847C84.613 52.459 84.8551 52.4693 85.1011 52.504L85.0213 52.9728C84.5023 53.2239 84.1108 53.506 83.8481 53.8228C83.5866 54.1396 83.4205 54.5118 83.3458 54.9445C83.2557 55.4776 83.3909 55.9399 83.7476 56.3379C84.2357 56.8762 84.98 57.2278 85.982 57.3939C86.5653 57.4956 86.9826 57.5253 87.244 57.4905C87.6664 57.4351 88.0193 57.3334 88.3 57.1878C88.5164 57.0771 88.7031 56.9161 88.8538 56.6998C89.0599 56.4229 89.1912 56.1164 89.2466 55.7751C89.3123 55.3926 89.2569 55.0101 89.0805 54.6174C88.904 54.2297 88.613 53.8331 88.1996 53.43C88.1996 53.2999 88.2151 53.1338 88.246 52.9278C88.3709 52.9625 88.5022 53.0076 88.6375 53.063C88.6928 53.0836 88.904 53.1583 89.2711 53.2896L89.4179 53.3605L89.6484 53.4699C89.7746 53.712 89.8454 54.0237 89.8596 54.4165C89.8802 54.8092 89.8403 55.2819 89.7501 55.8343C89.6741 56.2529 89.5685 56.6444 89.4282 57.0076C89.2865 57.3694 89.1062 57.6708 88.8899 57.9077C88.5769 58.2593 88.2601 58.5207 87.933 58.692C87.6111 58.8684 87.2698 58.9792 86.9118 59.0346C86.555 59.0848 86.1623 59.0745 85.745 59.0037C84.7238 58.8285 83.9395 58.3507 83.3909 57.5652C82.8371 56.7809 82.6517 55.8652 82.8268 54.8183C82.8976 54.3958 82.9891 53.9992 83.0947 53.6322C83.2003 53.2639 83.32 52.9226 83.4617 52.6109ZM89.8956 45.8589C89.9652 45.8538 90.0167 45.8499 90.0515 45.8499C90.0811 45.8499 90.1416 45.8538 90.2227 45.8641C90.2227 46.2015 90.2021 46.5286 90.1622 46.8402L90.1571 47.0514L90.1365 47.2227C90.1262 47.3785 90.1172 47.4996 90.1172 47.5949C90.1172 47.7353 90.1416 48.1783 90.1919 48.9278L90.1777 49.1287C90.1777 49.1596 90.1815 49.2047 90.1815 49.2652C90.1068 49.2806 89.9755 49.2897 89.8004 49.2845C89.7798 49.2446 89.745 49.1197 89.7038 48.9033C89.6432 48.5865 89.5686 48.3496 89.4784 48.1989L88.5022 48.213L87.481 48.1886L87.1333 48.1989L86.9929 48.1937L86.9775 48.5659C86.9723 48.7823 86.9981 48.9381 87.0431 49.0231C87.0882 49.1145 87.1642 49.1944 87.2698 49.26C87.3702 49.3309 87.6716 49.5009 88.17 49.7687C88.6632 50.0353 89.1011 50.2555 89.4823 50.432L90.1622 50.7539L90.1172 51.3128L90.1468 52.7166L90.1416 52.7912L90.1365 53.0076C90.0863 53.0127 90.0515 53.0127 90.0206 53.0127C89.9703 53.0127 89.9201 52.9973 89.8699 52.978C89.8403 52.8968 89.8003 52.7809 89.754 52.6251C89.6986 52.4397 89.6033 52.2928 89.4733 52.1821C89.3419 52.0726 88.9298 51.8009 88.2305 51.3734C87.3651 50.8441 86.877 50.4822 86.7611 50.2916C86.4842 51.2974 85.9369 51.8009 85.1217 51.7906C84.613 51.7803 84.1958 51.5794 83.8635 51.1866C83.5313 50.7887 83.3703 50.1049 83.3806 49.1338C83.3857 48.848 83.4063 48.5865 83.436 48.3393C83.4669 48.0173 83.4862 47.6348 83.4913 47.1931V46.9909L83.4862 46.8003C83.4913 46.3728 83.5171 46.0508 83.5519 45.8499C83.5815 45.8396 83.6021 45.8344 83.6072 45.8344H83.7425C83.8442 45.8344 83.9034 45.8396 83.9137 45.8499C83.9292 45.9143 83.9395 46.0147 83.9498 46.1615C83.964 46.3779 83.9897 46.5634 84.0194 46.7192C84.2164 46.7398 84.6684 46.7501 85.378 46.7604L86.7456 46.7553L87.2286 46.7643L87.9742 46.7553L88.4211 46.7643C89.1461 46.7694 89.5582 46.7643 89.6638 46.7398C89.7141 46.6187 89.754 46.4475 89.7849 46.2363C89.8145 46.0611 89.8506 45.9349 89.8956 45.8589ZM86.4997 48.1783H85.9768L85.7399 48.1834L85.1719 48.168L84.7444 48.1731L83.9446 48.1628C83.924 48.2594 83.9137 48.4049 83.9137 48.5904C83.9034 49.1287 84 49.5163 84.1958 49.7636C84.3915 50.0147 84.7238 50.1409 85.1964 50.1448C85.6291 50.1499 85.9511 50.025 86.1674 49.7726C86.3889 49.5163 86.4997 49.1094 86.51 48.5453L86.4997 48.1783ZM90.2833 45.1094C90.1777 45.1352 90.0566 45.1506 89.9098 45.1596L89.6535 44.5466C89.6188 44.4706 89.5685 44.3856 89.508 44.2852L88.2202 44.5016C87.7669 44.6175 87.4308 44.7025 87.199 44.7527L87.0779 44.7772C86.9375 44.7978 86.5847 44.8686 86.027 44.9935L85.8867 45.045L85.454 45.1249L85.0161 45.2356L84.7946 45.2858C84.5989 45.3309 84.3722 45.3966 84.1146 45.4816C84.0902 45.4919 84.0554 45.5125 84.0052 45.5473C84 45.5782 84 45.6129 84 45.6426C84.0052 45.6786 84.009 45.7134 84.009 45.7482C84.0142 45.8847 84.0297 46.0302 84.0554 46.186L84.0502 46.2672C84.0605 46.3624 84.0644 46.4333 84.0606 46.4835C83.9588 46.5183 83.8996 46.5389 83.8738 46.544C83.8339 46.5531 83.7785 46.5531 83.6974 46.5492C83.6678 46.4835 83.642 46.3921 83.6124 46.2723C83.5866 46.1461 83.5673 46.0611 83.5519 46.0147C83.5016 45.5923 83.4566 45.2755 83.4166 45.0746C83.396 44.9845 83.3754 44.8931 83.3613 44.7978C83.3458 44.7025 83.3304 44.6213 83.311 44.5466C83.2853 44.4359 83.2093 44.1642 83.0792 43.7366C83.0483 43.6709 83.0239 43.5962 83.0033 43.5099C82.9736 43.3837 82.953 43.2781 82.9479 43.188C83.0187 43.1674 83.0689 43.1584 83.0985 43.1481C83.1591 43.1378 83.2248 43.1275 83.311 43.1223L83.6575 43.998C83.7025 44.0586 83.7631 44.083 83.8236 44.0688L84.009 44.0186L84.0902 43.998L84.3168 43.9529L84.4881 43.9182L84.528 43.913C84.5628 43.8976 84.5989 43.8873 84.6233 43.877L85.2672 43.7469C85.3278 43.7211 85.3728 43.7108 85.4025 43.7018C85.4231 43.7018 85.4733 43.6864 85.5686 43.6761C85.6188 43.6606 85.6742 43.6516 85.7347 43.6413C85.7849 43.6258 85.906 43.5962 86.0927 43.5447C86.0876 43.4494 86.0824 43.3644 86.067 43.3039L85.9163 42.5441L85.8313 42.1771L85.6291 41.2563L85.4025 40.3715C85.378 40.2556 85.3381 40.1346 85.2879 40.0135C85.1668 40.0341 84.8848 40.0895 84.4327 40.19L84.2009 40.2299L83.3458 40.4462L83.0033 40.5827C82.9788 40.5969 82.9633 40.6278 82.953 40.6677C82.9131 40.7991 82.8874 41.0451 82.8783 41.4121C82.8783 41.4778 82.8783 41.5435 82.868 41.604C82.747 41.6233 82.6465 41.6336 82.5654 41.6285C82.5461 41.5576 82.5358 41.5125 82.5306 41.4984L82.425 41.0051C82.3993 40.6832 82.349 40.3612 82.2743 40.0393C82.2589 39.9633 82.2435 39.9028 82.2293 39.8629L82.0631 39.2086C82.0425 39.1481 82.0271 39.0927 82.0129 39.0374C81.9575 38.9227 81.9163 38.8017 81.8919 38.6703C81.8661 38.575 81.8468 38.454 81.8262 38.3136C81.9576 38.2878 82.0773 38.2685 82.1881 38.2582C82.3246 38.5544 82.4147 38.7463 82.465 38.8365C82.5152 38.9227 82.5808 39.0129 82.6517 39.0979H82.7624L82.8423 39.0837L82.9788 39.0528L83.0432 39.0425C83.1192 39.0373 83.1745 39.0283 83.2093 39.0232L83.3355 38.9923C83.4862 38.9524 83.5725 38.9279 83.5866 38.9228L84.2357 38.7811L84.7186 38.66L85.3677 38.53C85.5184 38.5042 85.821 38.4295 86.2782 38.3085L86.9981 38.1423L87.5969 38.0019C87.7077 37.9762 87.8429 37.9466 88.0038 37.9157C88.009 37.841 88.009 37.7753 88.009 37.7096C88.009 37.3774 88.0245 37.1211 88.0541 36.9447L88.4108 36.8494C88.4468 36.9859 88.4662 37.0657 88.4713 37.0915C88.5074 37.2524 88.5422 37.4379 88.5679 37.6543C88.6027 37.9363 88.6877 38.3896 88.8293 39.0026C88.8899 39.2795 88.9903 39.6362 89.1307 40.0637C89.141 40.114 89.1461 40.1745 89.141 40.2453C88.9852 40.2749 88.8693 40.2852 88.7984 40.2749L88.6181 39.9131L88.4623 39.5254C88.4417 39.4855 88.4159 39.4353 88.3812 39.3799C88.0991 39.4057 87.642 39.4907 87.0032 39.631L86.5654 39.707C86.3941 39.7779 86.1829 39.8384 85.9318 39.8976C85.9511 40.0238 85.9717 40.1603 86.0013 40.3059L86.5151 42.6703L86.5203 42.7154V42.7501C86.5254 42.7759 86.5345 42.8004 86.5448 42.8313C86.5654 42.9163 86.5847 42.9923 86.6001 43.0528L86.631 43.1983C86.6452 43.2588 86.671 43.3296 86.7109 43.4095L87.0985 43.3438L87.1642 43.3297C87.2543 43.2987 87.3097 43.2833 87.3393 43.2781L88.9143 42.9214C88.9993 42.9008 89.0908 42.8815 89.1809 42.8506L89.2015 42.7952L89.1461 42.0161C89.1513 41.9762 89.1513 41.9401 89.1513 41.9208C89.1513 41.8757 89.1565 41.8345 89.1706 41.7997C89.2466 41.7701 89.2968 41.7547 89.3264 41.7443C89.3676 41.734 89.432 41.7289 89.5132 41.7237C89.5428 41.8448 89.5685 41.9504 89.5879 42.0367C89.6033 42.1114 89.6188 42.1822 89.6291 42.2479C89.6342 42.2775 89.6394 42.3084 89.6432 42.3329L89.7797 43.0579C89.8003 43.2331 89.8454 43.47 89.915 43.7765L89.9459 43.8821C89.9858 44.0277 90.0064 44.1088 90.0167 44.1294C90.0914 44.3354 90.1816 44.6625 90.2833 45.1094Z" fill="#2E5943"/>
<path fill-rule="evenodd" clip-rule="evenodd" d="M11.9428 27.4329L11.6248 27.1908L12.4399 26.2506L12.7722 25.8025L12.8984 25.6415C13.0233 25.4702 13.2152 25.1985 13.4663 24.8263C13.6067 24.61 13.6981 24.4748 13.7381 24.4245C14.0046 24.0768 14.221 23.8257 14.3974 23.6802C14.6537 23.4535 14.91 23.308 15.1521 23.2372C15.3929 23.1715 15.6698 23.1663 15.9866 23.2217C16.2983 23.2822 16.5507 23.3827 16.7464 23.5282C17.2293 23.8965 17.5062 24.3485 17.5719 24.8765C17.6466 25.4097 17.5062 25.9081 17.1482 26.3756C17.0284 26.5365 16.8919 26.6731 16.7413 26.7941C16.5957 26.9049 16.4348 27.0002 16.2583 27.0697C16.1682 27.0246 16.0523 26.9448 15.9119 26.8392C15.9711 26.7787 16.0227 26.7181 16.0626 26.6679C16.1077 26.6177 16.1476 26.5675 16.1785 26.5275C16.3588 26.2854 16.4451 26.0395 16.4348 25.778C16.4296 25.4303 16.2339 25.1135 15.8514 24.8212C15.5796 24.6151 15.3182 24.4941 15.0761 24.4542C14.8301 24.4142 14.628 24.44 14.467 24.5198C14.2468 24.6357 14.0549 24.807 13.8836 25.0285C13.7226 25.2397 13.6428 25.4097 13.6376 25.5462C13.6582 25.5913 13.6827 25.6312 13.7084 25.6673L15.6904 27.1251L15.8514 27.2616L16.0317 27.3878C16.0677 27.4123 16.1283 27.4573 16.203 27.5127L16.5455 27.7741L17.0941 28.1824L17.7419 28.6705C17.8333 28.74 17.9582 28.8314 18.1244 28.9422L18.8649 28.1824C18.9396 28.2223 18.9949 28.2519 19.0349 28.2828C19.0761 28.3176 19.1263 28.3678 19.1907 28.4387C19.1508 28.5146 19.116 28.5739 19.0902 28.6099C19.0258 28.6949 18.8893 28.8456 18.6884 29.0723C18.4914 29.2938 18.2763 29.5552 18.0445 29.8617C17.7831 30.2042 17.5564 30.5468 17.3646 30.8881C17.3349 30.9486 17.2796 31.0349 17.1997 31.1495C17.1083 31.1044 17.0426 31.0645 17.0078 31.0349C16.9782 31.0143 16.9421 30.9847 16.8971 30.9383L17.0027 30.6215C17.0838 30.4103 17.134 30.2094 17.1534 30.0227C17.0941 29.9428 17.0284 29.872 16.9628 29.8218C16.937 29.8025 16.9022 29.7767 16.8675 29.7522C16.776 29.6917 16.6563 29.6003 16.5004 29.4857L15.3234 28.6099L13.975 27.6595C13.3363 27.2011 12.9834 26.9602 12.928 26.9345C12.8327 26.8894 12.7426 26.874 12.6615 26.8894C12.5816 26.8997 12.4902 26.9551 12.3846 27.0504C12.1734 27.2513 12.0278 27.3775 11.9428 27.4329ZM18.7181 23.4484C18.4167 23.1419 18.1694 22.7748 17.984 22.3473C17.8526 22.0395 17.7676 21.7175 17.7419 21.3814C17.7123 21.0389 17.7419 20.6821 17.8333 20.3048C17.9235 19.9275 18.0638 19.5901 18.2454 19.2836C18.427 18.9758 18.6678 18.6744 18.9653 18.3769C19.4779 17.8695 20.0213 17.5218 20.5893 17.3415C21.1585 17.16 21.7109 17.1252 22.2544 17.2411C22.9588 17.3866 23.5422 17.6983 24.011 18.1657C24.7051 18.865 25.0567 19.7008 25.0773 20.6667C25.0966 21.6377 24.6845 22.543 23.8397 23.3775C23.6285 23.5887 23.4224 23.7703 23.2112 23.921C23.0541 24.0369 22.9035 24.1322 22.7682 24.1979C22.521 24.3241 22.3806 24.3936 22.3458 24.4039C21.9273 24.5147 21.5551 24.5752 21.2332 24.5752C20.9112 24.5752 20.5944 24.5353 20.2776 24.4438C20.1063 24.3885 19.8307 24.2533 19.4624 24.0369C19.2216 23.8965 18.9743 23.6995 18.7181 23.4484ZM19.1868 18.8856C18.9705 19.0968 18.8288 19.3338 18.7631 19.6004C18.6987 19.8618 18.6833 20.0975 18.7181 20.2996C18.7786 20.6461 18.9048 20.968 19.0851 21.2707C19.2667 21.572 19.5332 21.8991 19.8758 22.2455C20.087 22.4567 20.248 22.6036 20.3536 22.6731C20.3884 22.704 20.4437 22.7439 20.53 22.8096C20.7309 22.9654 20.8867 23.0762 21.0026 23.1316C21.4199 23.3376 21.6865 23.4587 21.8075 23.4883C22.0033 23.5385 22.2351 23.554 22.5068 23.5334C22.642 23.5243 22.8082 23.478 22.9988 23.393C23.1958 23.3028 23.3619 23.1921 23.5023 23.0504C23.7689 22.789 23.9556 22.4774 24.0612 22.1258C24.1668 21.7781 24.1359 21.3853 23.9801 20.9487C23.8242 20.5109 23.5074 20.0524 23.0297 19.5746C22.8339 19.3789 22.557 19.1226 22.1939 18.8096L22.1037 18.7594C22.0793 18.7453 22.0136 18.7092 21.9183 18.6448C21.425 18.3319 20.9421 18.1967 20.4746 18.2366C20.0059 18.2817 19.5732 18.498 19.1868 18.8856ZM27.2305 20.158C27.1803 20.0627 27.1288 19.9468 27.0786 19.8167C27.0992 19.7961 27.1597 19.751 27.255 19.6854L27.4314 19.5398C27.6027 19.3982 27.7276 19.2836 27.8036 19.1921L27.2357 18.0202L26.7115 17.1097L26.5506 16.8225L25.8616 15.5399L25.6401 15.1484L25.5345 14.9513C25.3336 14.5895 25.1726 14.3628 25.0515 14.2675C25.0322 14.2675 25.0013 14.2778 24.9614 14.2933C24.9305 14.3075 24.9009 14.3177 24.8661 14.328C24.7154 14.3834 24.5789 14.4337 24.463 14.489L24.3832 14.5096C24.2917 14.5496 24.2222 14.5689 24.1771 14.5792C24.1166 14.4942 24.0805 14.444 24.0715 14.4182C24.0509 14.3834 24.0303 14.328 24.0161 14.2521C24.0754 14.2018 24.1411 14.1568 24.217 14.1168C24.4025 14.0164 24.5944 13.9211 24.7953 13.8245C25.3683 13.5579 25.9826 13.2463 26.6265 12.8896L28.0856 12.0589L29.1764 11.4704C29.9864 11.0235 30.5505 10.6913 30.8622 10.4697C30.9884 10.3835 31.0734 10.3281 31.1236 10.2985C31.179 10.2689 31.2794 10.2225 31.4159 10.1633C31.4764 10.283 31.5267 10.3938 31.5666 10.4942C31.1996 10.802 30.9729 11.0274 30.8828 11.1742C30.8918 11.2489 30.9729 11.4253 31.1287 11.7073L31.3052 12.0241L31.8731 13.0351L32.3058 13.84L32.6432 14.4285L32.9999 15.0776L33.3064 15.6107C33.3618 15.7163 33.4275 15.8374 33.4983 15.9777C33.573 15.9636 33.6387 15.943 33.6992 15.9275C34.0212 15.8271 34.2723 15.7717 34.4539 15.7562L34.6445 16.073L34.4333 16.1993C34.3934 16.2199 34.338 16.2443 34.2672 16.2752L33.9207 16.4504C33.6593 16.5611 33.2511 16.7672 32.7089 17.0698C32.5273 17.1703 32.3663 17.2656 32.2208 17.3609L31.7623 17.6635C31.7173 17.688 31.6619 17.7086 31.5911 17.7189C31.5164 17.5733 31.4661 17.4665 31.4507 17.4072L31.7224 17.1651L31.8834 17.035C32.0547 16.8985 32.1654 16.8032 32.2105 16.753C32.1706 16.5817 31.667 15.621 30.7063 13.8747L29.5898 11.9134C29.4893 11.9585 29.3631 12.0242 29.2176 12.1001L27.0889 13.2463L27.0489 13.2669C27.0386 13.272 27.0232 13.2772 27.0142 13.2811C26.9936 13.2965 26.9691 13.3068 26.9433 13.3274L26.7424 13.442C26.5763 13.5335 26.4759 13.603 26.4347 13.6494C26.5956 13.9713 26.7373 14.2521 26.8674 14.489L28.1758 16.8277L28.9008 18.1413C28.991 18.3126 29.0566 18.4181 29.1017 18.4735C29.1313 18.4838 29.1919 18.4684 29.2872 18.4285L29.5138 18.3473C29.6091 18.3074 29.7005 18.2765 29.7907 18.2469L29.9813 18.1864C30.0264 18.1709 30.0676 18.1658 30.1024 18.1761C30.1526 18.2366 30.1835 18.2868 30.1976 18.3074C30.2183 18.3473 30.2427 18.4079 30.2685 18.4838L29.9864 18.6448C29.8705 18.7092 29.7044 18.7903 29.4893 18.8959L29.1416 19.0814L28.9008 19.1921L28.4166 19.4536C28.2917 19.5192 28.1552 19.6055 28.0097 19.7111L27.7186 19.8914L27.2305 20.158ZM45.1994 14.1117L44.616 14.2019L44.5195 14.122L40.1435 9.44851L40.0829 9.4086L40.4397 12.14C40.5208 12.8136 40.5156 13.312 40.4255 13.6442C40.3392 13.9713 40.1782 14.2328 39.9477 14.4285C39.7159 14.6243 39.4094 14.7453 39.0218 14.7904C38.8054 14.8161 38.5891 14.7608 38.3779 14.6242C38.1718 14.489 38.0507 14.2984 38.0211 14.046C38.0005 13.8606 38.0405 13.6996 38.1512 13.5682C38.2568 13.4382 38.3933 13.3622 38.5543 13.3416C38.6393 13.3326 38.7346 13.3416 38.8402 13.3828C38.9406 13.4176 39.0668 13.5232 39.2175 13.7048C39.4042 13.925 39.5549 14.0318 39.676 14.0164C40.0224 13.9765 40.128 13.3776 39.9928 12.2251L39.8717 11.4459L39.6051 9.60434C39.5601 9.27208 39.4841 9.02096 39.3785 8.85483C39.2729 8.6887 39.1377 8.57795 38.9767 8.52258C38.8157 8.4672 38.5337 8.43243 38.1216 8.41698L38.0611 8.06024L38.4938 8.00487L38.6844 7.97912L38.9612 7.93405L39.5549 7.87352C39.6554 7.86322 39.8009 7.83874 39.9876 7.80783L40.204 7.77822C40.2387 7.77307 40.289 7.76792 40.3547 7.76277L44.5053 12.3203L44.0275 9.14717C43.9721 8.6681 43.967 8.29076 44.0224 8.02418C44.0726 7.75245 44.2027 7.52709 44.4139 7.34551C44.6212 7.16393 44.8916 7.04932 45.2239 7.01326C45.5613 6.97334 45.833 7.02355 46.0494 7.16392C46.2606 7.30558 46.3816 7.49618 46.4113 7.73829C46.4319 7.92888 46.3868 8.08986 46.2812 8.22122C46.1704 8.35644 46.0339 8.43242 45.8729 8.45174C45.7828 8.46204 45.6875 8.44789 45.5871 8.41183C45.4905 8.37706 45.3655 8.26631 45.2097 8.08473C45.0281 7.86322 44.8826 7.76277 44.7719 7.77307C44.6251 7.79367 44.5298 7.87351 44.4847 8.02418C44.4396 8.17099 44.4641 8.63847 44.5555 9.4176C44.5851 9.68418 44.6251 9.9366 44.6663 10.1684C44.8015 10.9475 44.8916 11.5206 44.938 11.8876L45.0127 12.7286L45.0333 12.9089L45.099 13.2862L45.1183 13.5837L45.184 13.916C45.1891 13.9713 45.1943 14.0357 45.1994 14.1117ZM47.9811 12.0692C47.4724 12.1297 47.0152 12.0345 46.6083 11.773C46.2052 11.5103 45.9734 11.1343 45.9129 10.6307C45.8536 10.1323 45.9734 9.70479 46.2812 9.34291C46.5825 8.98103 47.0152 8.76468 47.578 8.699C48.1575 8.62817 48.6302 8.75438 49.0075 9.06603C49.3797 9.37769 49.5909 9.71509 49.636 10.0873C49.7016 10.641 49.5806 11.093 49.2792 11.4459C48.9714 11.7923 48.5439 12.0035 47.9811 12.0692ZM47.6244 9.05059C47.408 9.07634 47.2419 9.17678 47.1208 9.36223C46.9946 9.54896 46.9753 9.95592 47.05 10.5908C47.1453 11.4047 47.4428 11.7782 47.9502 11.7228C48.4331 11.6623 48.625 11.1742 48.5143 10.2534C48.4138 9.39314 48.1163 8.99006 47.6244 9.05059ZM46.6933 12.8239L48.3185 12.6281L49.1479 12.5225C49.2741 12.5071 49.3848 12.5019 49.4647 12.5019C49.4956 12.6629 49.52 12.784 49.5406 12.8638L49.5561 12.9449L49.5651 13.2167C49.5651 13.2514 49.5754 13.3364 49.5909 13.4729L46.7886 13.8104L46.7538 13.5837C46.7435 13.4935 46.7332 13.3918 46.7281 13.2862L46.7229 13.1754L46.6881 12.914C46.683 12.9037 46.6881 12.8741 46.6933 12.8239ZM53.4234 7.35066C53.4389 7.35066 53.5548 7.36097 53.7763 7.37642L53.9424 7.39574L54.2644 7.44082C54.2644 7.55672 54.2644 7.63784 54.2541 7.68806C54.2541 7.70738 54.2489 7.7576 54.2335 7.84904C54.2244 7.89411 54.2038 8.07956 54.1639 8.40151L54.0673 9.18193L54.0171 9.68033L53.5947 13.1754L53.5651 13.4678C53.5496 13.5734 53.5702 13.6494 53.6102 13.7048C53.6552 13.7498 53.7814 13.8052 53.9875 13.8606C54.0673 13.8747 54.2283 13.925 54.4704 13.9958C54.4756 14.0319 54.4756 14.0666 54.4704 14.0963C54.4653 14.1375 54.455 14.2173 54.4356 14.3487L54.209 14.3229C54.0583 14.3023 53.842 14.2727 53.5496 14.2224C53.3732 14.1915 53.2586 14.1722 53.1929 14.1671C53.1066 14.1568 52.8001 14.1323 52.2721 14.0963C52.2116 14.0911 52.1614 14.0911 52.1266 14.0859L52.03 14.0769L51.8845 14.046L51.7441 14.0409L51.4878 14.0009C51.4518 14.0009 51.3771 13.9958 51.2715 13.9958C51.2715 13.9211 51.2753 13.8606 51.2805 13.8194C51.2856 13.7794 51.2959 13.7241 51.3114 13.6494C51.4518 13.6236 51.6179 13.603 51.8046 13.5837C52.0609 13.5631 52.2219 13.5283 52.2824 13.4832C52.3481 13.442 52.3829 13.3777 52.3932 13.2914L52.4228 12.9398L52.4833 12.5573L52.5683 11.773L52.5941 11.5657C52.5941 11.5412 52.6095 11.4356 52.634 11.254C52.6443 11.1639 52.6546 11.0827 52.6649 11.0081C52.67 10.963 52.6791 10.8213 52.6997 10.5856L52.755 10.2933C52.7653 10.0667 52.7756 9.93661 52.7756 9.89153C52.7847 9.84131 52.7898 9.79108 52.8001 9.7357L52.8207 9.60949L52.8503 9.25277L52.8812 9.09565C52.8954 9.02095 52.9057 8.92566 52.9212 8.8046C52.9315 8.6887 52.9456 8.54318 52.9559 8.37705C52.6894 8.52772 52.3932 8.68354 52.0558 8.82907C52.021 8.84967 51.8549 8.8999 51.5677 8.99004C51.4775 8.8149 51.417 8.68354 51.3964 8.59855C51.784 8.44787 52.0506 8.33713 52.191 8.26115C52.4228 8.12979 52.6842 7.96496 52.9611 7.76792C53.077 7.67777 53.2328 7.53739 53.4234 7.35066Z" fill="#2E5943"/>
<path fill-rule="evenodd" clip-rule="evenodd" d="M13.4715 67.5355C12.2789 65.2972 11.3182 62.9586 10.5996 60.5027C9.87974 58.0533 9.39166 55.4879 9.14054 52.817L9.13538 52.8119C8.7529 47.9066 9.18046 43.2833 10.4232 38.9369V38.9318C10.8662 37.4083 11.3582 35.975 11.9016 34.6369C12.4502 33.2937 13.0491 32.0355 13.7084 30.8585L14.4373 31.2654C13.8037 32.4026 13.2203 33.635 12.682 34.9537C12.1437 36.2763 11.6608 37.68 11.2281 39.1636C10.015 43.4198 9.59771 47.9426 9.97504 52.7462C10.2223 55.3617 10.7001 57.8678 11.4045 60.267C12.1077 62.6662 13.0439 64.9598 14.2107 67.1388L13.4715 67.5355Z" fill="#2E5943"/>
<path fill-rule="evenodd" clip-rule="evenodd" d="M56.7344 11.6159C60.5476 12.4916 64.1342 13.9301 67.489 15.9378C70.845 17.9404 73.9641 20.5109 76.8514 23.639L76.8565 23.6441C80.0606 27.2358 82.541 31.3865 84.2911 36.0896L83.5068 36.3819C81.7966 31.7793 79.3716 27.7188 76.2319 24.2082C73.4 21.1342 70.3415 18.6191 67.0562 16.6577C63.7813 14.7002 60.2759 13.2914 56.5425 12.4363L56.7344 11.6159Z" fill="#2E5943"/>
</svg>
