<svg width="13" height="13" viewBox="0 0 13 13" fill="none" xmlns="http://www.w3.org/2000/svg">
<path fill-rule="evenodd" clip-rule="evenodd" d="M6.73935 0.444946C8.45435 0.444946 10.0013 1.14096 11.1263 2.26196C12.2473 3.38296 12.9423 4.93395 12.9423 6.64795C12.9423 8.35895 12.2473 9.91001 11.1263 11.031C10.0013 12.152 8.45435 12.848 6.73935 12.848C5.02835 12.848 3.47834 12.152 2.35634 11.031C1.23134 9.91001 0.540344 8.35895 0.540344 6.64795C0.540344 4.93395 1.23134 3.38296 2.35634 2.26196C3.47834 1.14096 5.02835 0.444946 6.73935 0.444946ZM10.6853 2.703C9.67335 1.695 8.27835 1.06995 6.73935 1.06995C5.20035 1.06995 3.80634 1.695 2.79834 2.703C1.79034 3.711 1.16534 5.10495 1.16534 6.64795C1.16534 8.18795 1.79034 9.58197 2.79834 10.59C3.80634 11.598 5.20035 12.223 6.73935 12.223C8.27835 12.223 9.67335 11.598 10.6853 10.59C11.6923 9.58197 12.3173 8.18795 12.3173 6.64795C12.3173 5.10495 11.6923 3.711 10.6853 2.703Z" fill="#565757"/>
<path fill-rule="evenodd" clip-rule="evenodd" d="M5.74734 5.09394C6.15735 4.61294 5.71235 3.98796 5.43535 3.56196C5.28235 3.31596 5.05234 2.96494 4.73134 2.92194C4.42734 2.88694 4.14935 3.22688 3.94635 3.41388C3.46235 3.85188 3.19234 4.42997 3.16534 5.08197L3.15735 5.16791C3.20435 5.55891 3.24734 5.934 3.38834 6.305C3.51734 6.66 3.69234 6.97991 3.89534 7.29291C4.32934 7.94891 4.82934 8.58195 5.42734 9.10895C6.00534 9.62495 6.65735 10.086 7.43535 10.254C8.16135 10.402 8.86834 10.2419 9.44234 9.77692C9.64934 9.60492 10.0283 9.36298 10.0483 9.06598C10.0633 8.77298 9.82534 8.53492 9.62634 8.35492C9.19634 7.97292 8.56035 7.32794 7.97435 7.79694C7.74335 7.98394 7.50134 8.332 7.19234 8.383C6.89234 8.43 6.59934 8.21098 6.37634 8.03498C5.88434 7.63698 5.40335 7.08996 5.11435 6.51996C4.99335 6.26996 4.88434 5.94098 5.06334 5.69098C5.24734 5.44098 5.55235 5.32394 5.74734 5.09394Z" fill="#565757"/>
</svg>
