<svg width="64" height="67" viewBox="0 0 64 67" fill="none" xmlns="http://www.w3.org/2000/svg">
<path fill-rule="evenodd" clip-rule="evenodd" d="M12.7381 40.1513H23.3781L26.6361 35.5693H18.8271V30.2953H30.3591V25.7133H18.8271V20.9523H33.6051V16.3583H12.7381V40.1513Z" fill="#2E5943"/>
<path fill-rule="evenodd" clip-rule="evenodd" d="M30.9251 49.2253C29.2881 47.9323 28.0501 46.2023 27.2101 44.0303C30.9641 38.6943 32.8431 36.0263 32.8431 36.0263C31.6011 38.2493 31.3631 40.5343 32.1281 42.8893C33.1091 45.3033 34.8701 46.8543 37.4131 47.5423C39.4561 47.9523 41.3081 47.7993 42.9681 47.0883C44.3001 46.5263 45.4491 45.6673 46.4211 44.5103C48.4641 46.5813 49.4841 47.6163 49.4841 47.6163C47.3821 50.1983 44.4561 51.7063 40.7061 52.1393C36.5851 52.3313 33.3241 51.3583 30.9251 49.2253Z" fill="#2E5943"/>
<path fill-rule="evenodd" clip-rule="evenodd" d="M38.2061 28.4013C34.7451 33.3233 33.0151 35.7803 33.0151 35.7803C34.4841 34.0653 36.2691 33.0813 38.3741 32.8193C40.0931 32.6353 41.6751 32.8893 43.1201 33.5843C44.0701 33.9713 45.0621 34.7883 46.0891 36.0223C48.2381 33.9523 49.3161 32.9133 49.3161 32.9133C47.5421 30.8743 45.5071 29.5263 43.2141 28.8703C41.6441 28.4133 39.9761 28.2603 38.2061 28.4013Z" fill="#2E5943"/>
<path fill-rule="evenodd" clip-rule="evenodd" d="M14.3201 53.0143L14.7061 53.2843L40.7691 16.0533L40.3821 15.7843L14.3201 53.0143Z" fill="#2E5943"/>
<path fill-rule="evenodd" clip-rule="evenodd" d="M18.7921 55.8773L19.1751 56.1473L45.2381 18.9173L44.8551 18.6473L18.7921 55.8773Z" fill="#2E5943"/>
<path fill-rule="evenodd" clip-rule="evenodd" d="M6.24513 47.2103C6.33113 47.3383 6.40213 47.4523 6.45613 47.5533C6.55813 47.7413 6.69513 47.9483 6.86313 48.1743C6.92113 48.2523 7.07713 48.4443 7.33113 48.7563C7.71413 49.2253 8.05013 49.6513 8.34313 50.0423L8.78813 50.6203C8.89013 50.7523 9.01913 50.9603 9.17913 51.2413C9.16313 51.3113 9.12013 51.3743 9.04613 51.4283L8.38213 51.9323L8.25313 52.0383C8.24213 52.0453 8.22213 52.0613 8.19513 52.0773L8.08913 51.9523C8.07413 51.9323 8.05013 51.8973 8.01113 51.8343C8.03813 51.7843 8.08513 51.7103 8.14413 51.6123L8.27713 51.3073C8.33513 51.1823 8.38213 51.0383 8.41713 50.8743C8.39413 50.8073 8.34713 50.7293 8.28813 50.6433C8.27313 50.6203 8.23013 50.5533 8.15613 50.4363C8.01913 50.2213 7.86713 49.9993 7.69113 49.7683C7.49213 49.5063 7.31213 49.2723 7.14413 49.0733C7.09313 49.1123 6.88213 49.2723 6.51513 49.5493L5.97213 49.9563L5.56613 50.2603C5.60113 50.3193 5.63213 50.3663 5.66013 50.4053C5.94913 50.7923 6.16313 51.0573 6.30013 51.2103C6.43713 51.3623 6.53513 51.4483 6.58913 51.4673C6.64813 51.4833 6.72213 51.4833 6.80813 51.4633C6.87013 51.4483 7.05813 51.3663 7.36713 51.2213L7.40213 51.2603L7.54613 51.4523C7.35913 51.6043 7.21813 51.7173 7.11713 51.7923C6.89013 51.9633 6.74513 52.0733 6.67913 52.1163C6.61313 52.1633 6.56213 52.2023 6.52313 52.2293C6.46413 52.2723 6.37413 52.3463 6.25313 52.4483C6.12813 52.5533 6.03513 52.6273 5.97613 52.6743L5.90213 52.7293L5.73013 52.4953C5.75713 52.4603 5.81613 52.3933 5.90213 52.2883C6.07013 52.0923 6.16713 51.9633 6.19113 51.8893C6.21013 51.8343 6.20613 51.7683 6.17913 51.6943C6.16313 51.6433 6.05013 51.4753 5.84313 51.2023C5.59713 50.8743 5.40613 50.6393 5.26513 50.4873C5.20613 50.5303 5.17113 50.5573 5.15613 50.5693C4.89813 50.7603 4.68313 50.9203 4.51513 51.0493L3.82013 51.5733C3.73413 51.6353 3.70313 51.7103 3.71413 51.7923C3.73813 51.9133 3.91713 52.2023 4.26113 52.6553C4.48813 52.9563 4.70313 53.1943 4.90613 53.3703C5.04613 53.4913 5.21413 53.5653 5.41013 53.5923C5.66713 53.6313 5.96013 53.6003 6.29213 53.5023C6.35113 53.5653 6.39413 53.6163 6.42513 53.6593C6.44513 53.6823 6.47213 53.7213 6.50313 53.7683C6.44513 53.8033 6.39413 53.8313 6.35513 53.8543L6.24513 53.9093L5.54613 54.2493L5.13213 54.4673C5.01913 54.3343 4.93313 54.2253 4.87013 54.1433C4.78113 54.0223 4.55013 53.6943 4.17513 53.1513C3.91313 52.7723 3.58513 52.3233 3.19513 51.8033C2.99913 51.5453 2.74913 51.2373 2.44513 50.8743L2.34313 50.7373L2.03513 50.3583L2.26113 50.1863C2.30013 50.2213 2.37413 50.2953 2.48013 50.4053C2.67513 50.6083 2.82413 50.7373 2.93313 50.7923C3.01113 50.7683 3.09713 50.7173 3.19113 50.6473C3.23013 50.6203 3.29213 50.5733 3.37813 50.5023L3.48013 50.4323L4.69113 49.5063L5.05813 49.2333L5.56613 48.8313L5.93313 48.5613L6.31213 48.2293C6.32413 48.2213 6.34313 48.2023 6.37013 48.1743C6.37813 48.1353 6.37013 48.0923 6.34313 48.0423C6.33113 48.0143 6.31213 47.9793 6.28813 47.9323C6.22213 47.7923 6.15213 47.6593 6.07013 47.5423C6.03813 47.5023 6.01113 47.4523 5.97613 47.3933L6.24513 47.2103ZM5.69913 55.1473L5.92513 54.9243C5.98413 54.9563 6.05013 54.9993 6.12413 55.0493C6.26513 55.1553 6.39413 55.2253 6.50313 55.2683C6.57413 55.2493 6.63213 55.2253 6.67913 55.1903C6.80013 55.0963 6.96013 54.9403 7.16313 54.7293L8.34713 53.4753C8.46813 53.3463 8.78513 53.0063 9.29213 52.4483C9.42913 52.2993 9.50713 52.1983 9.52313 52.1513C9.53113 52.1313 9.53113 52.1123 9.52313 52.0923C9.51113 52.0423 9.46413 51.9713 9.38213 51.8853C9.34713 51.8463 9.26113 51.7453 9.12413 51.5813L9.32013 51.3623L9.99213 51.9753L10.9761 52.8583L11.0931 52.9633C11.1171 52.9833 11.1401 53.0023 11.1671 53.0263C11.1831 53.0453 11.2341 53.0963 11.3201 53.1783L11.5031 53.3543C11.6561 53.4953 11.7961 53.6703 11.9251 53.8853C11.9681 53.9563 12.0151 54.0653 12.0701 54.2103C12.1201 54.3543 12.1481 54.5023 12.1481 54.6473C12.1481 54.7953 12.1171 54.9323 12.0621 55.0613C12.0071 55.1903 11.9251 55.3113 11.8241 55.4173C11.7101 55.5343 11.5811 55.6163 11.4411 55.6633C11.2961 55.7063 11.1321 55.7173 10.9491 55.6943C10.8591 55.6783 10.6711 55.6243 10.3861 55.5263C10.6201 55.8743 10.7301 56.2103 10.7141 56.5383C10.7031 56.8623 10.5891 57.1313 10.3821 57.3463C10.2611 57.4753 10.1091 57.5883 9.92513 57.6823C9.78813 57.7563 9.63613 57.7953 9.46413 57.8073C9.24213 57.8193 9.03813 57.7953 8.85513 57.7373C8.67113 57.6823 8.45313 57.5693 8.19913 57.3973C8.07013 57.3153 7.89413 57.1673 7.67113 56.9523L7.18713 56.4673C6.97613 56.2643 6.71813 56.0343 6.40613 55.7763C6.32013 55.7023 6.08513 55.4953 5.69913 55.1473ZM9.17913 54.2213C9.24513 54.3073 9.33113 54.4013 9.43713 54.5023C9.73013 54.7803 10.0031 54.9363 10.2571 54.9713C10.5111 55.0063 10.7651 54.8933 11.0191 54.6273C11.1991 54.4403 11.2771 54.2133 11.2531 53.9563C11.2301 53.6943 11.0771 53.4283 10.7921 53.1553C10.7101 53.0773 10.5891 52.9833 10.4331 52.8773C10.3901 52.9203 10.3311 52.9873 10.2531 53.0733C10.1051 53.2493 9.88613 53.4833 9.60113 53.7843L9.35913 54.0223C9.32013 54.0653 9.25713 54.1313 9.17913 54.2213ZM7.43313 56.1273C7.51113 56.2993 7.60113 56.4403 7.71013 56.5423C7.93313 56.7563 8.14813 56.8933 8.35113 56.9633C8.55813 57.0303 8.74913 57.0303 8.92913 56.9713C9.10913 56.9133 9.28813 56.7923 9.46013 56.6083C9.64013 56.4243 9.74913 56.2373 9.78513 56.0573C9.83913 55.8073 9.82013 55.5923 9.73013 55.4053C9.64413 55.2173 9.46413 54.9953 9.18713 54.7293C9.06213 54.6123 8.96813 54.5423 8.90613 54.5143L8.56213 54.8743L8.14013 55.3033L7.50713 55.9833C7.48013 56.0183 7.45613 56.0653 7.43313 56.1273ZM15.9061 58.4793L15.7611 58.3893C15.7341 58.3703 15.6991 58.3423 15.6561 58.3033C15.6631 58.2493 15.6831 58.1633 15.7141 58.0533L15.7491 57.7253C15.7651 57.5843 15.7651 57.4283 15.7451 57.2683C15.7221 57.2333 15.6601 57.1743 15.5541 57.0923L14.8241 56.5223L14.3701 56.2133L14.1711 56.0773C14.1321 56.1003 14.0931 56.1393 14.0541 56.1983L12.9681 57.7563L12.8081 57.9673L12.5271 58.4243C12.4841 58.4833 12.4101 58.5843 12.3001 58.7213C12.2451 58.7843 12.2031 58.8423 12.1711 58.8893L11.9951 59.1703L11.9171 59.2723C11.8551 59.3773 11.8081 59.4523 11.7771 59.4953C11.7491 59.5383 11.7301 59.5813 11.7181 59.6313C11.7261 59.6553 11.7811 59.7213 11.8781 59.8313L11.9641 59.9363C12.0151 59.9993 12.0621 60.0453 12.0971 60.0813C12.1711 60.1393 12.2101 60.1903 12.2181 60.2253C12.2261 60.2603 12.2061 60.3113 12.1631 60.3773C12.0971 60.4713 12.0311 60.4953 11.9681 60.4523C11.9451 60.4323 11.8511 60.3583 11.6911 60.2293L11.5231 60.1003L11.4801 60.0693C11.4021 60.0063 11.3351 59.9603 11.2811 59.9203L10.9251 59.6823L10.4491 59.3503L9.98813 59.0493L9.85913 58.9673C9.83513 58.9523 9.82013 58.9323 9.80813 58.9053C9.83113 58.8703 9.84713 58.8383 9.86313 58.8233C9.88213 58.7883 9.91713 58.7453 9.96013 58.6943C9.99913 58.6863 10.0701 58.7023 10.1671 58.7413C10.2221 58.7603 10.2851 58.7803 10.3551 58.7953L10.5111 58.8383C10.6321 58.8743 10.7101 58.8893 10.7341 58.8853C10.7611 58.8813 10.8161 58.8313 10.9021 58.7373C10.9881 58.6433 11.0461 58.5773 11.0741 58.5303L11.5541 57.8273L11.8431 57.3973L12.0891 57.0613L12.3121 56.7333C12.4331 56.5613 12.5891 56.3193 12.7851 56.0143L13.0851 55.6003C13.1401 55.5223 13.1631 55.4633 13.1561 55.4283C13.1481 55.3973 13.1011 55.3463 13.0151 55.2883C12.9841 55.2683 12.9061 55.1903 12.7771 55.0613C12.6481 54.9363 12.5771 54.8623 12.5701 54.8423C12.5741 54.8033 12.6091 54.7293 12.6831 54.6273C12.6951 54.6083 12.7141 54.5843 12.7381 54.5653L12.8311 54.6273C12.8741 54.6553 12.9681 54.7293 13.1131 54.8463L14.0461 55.5533L15.3591 56.4603L15.8041 56.7603C16.1011 56.9673 16.3591 57.1743 16.5811 57.3773C16.5971 57.4443 16.5741 57.5183 16.5191 57.6003L15.9061 58.4793ZM16.8741 57.4673C17.0111 57.5343 17.1321 57.5923 17.2301 57.6513C17.4171 57.7563 17.6441 57.8623 17.9021 57.9673C17.9951 58.0023 18.2301 58.0883 18.6091 58.2213C19.1751 58.4243 19.6831 58.6123 20.1361 58.7923L20.8201 59.0573C20.9761 59.1163 21.1911 59.2253 21.4761 59.3813C21.4991 59.4523 21.4951 59.5263 21.4641 59.6123L21.1561 60.3853L21.1011 60.5423C21.0971 60.5573 21.0851 60.5813 21.0701 60.6083L20.9131 60.5573C20.8941 60.5493 20.8511 60.5303 20.7881 60.4993C20.7851 60.4403 20.7851 60.3503 20.7851 60.2373L20.7381 59.9093C20.7261 59.7723 20.6911 59.6243 20.6321 59.4633C20.5771 59.4203 20.5031 59.3773 20.4061 59.3383C20.3781 59.3233 20.3081 59.2883 20.1831 59.2293C19.9561 59.1163 19.7061 59.0063 19.4371 58.8973C19.1321 58.7763 18.8551 58.6743 18.6091 58.5883C18.5851 58.6513 18.4921 58.8973 18.3201 59.3273L18.0661 59.9523L17.8781 60.4243C17.9411 60.4563 17.9921 60.4833 18.0381 60.4993C18.4841 60.6783 18.8041 60.7953 19.0031 60.8543C19.1991 60.9133 19.3271 60.9363 19.3821 60.9203C19.4411 60.9093 19.5031 60.8703 19.5701 60.8073C19.6131 60.7603 19.7301 60.5923 19.9171 60.3073L19.9681 60.3233L20.1911 60.4133C20.1131 60.6393 20.0501 60.8113 20.0031 60.9243C19.8981 61.1903 19.8311 61.3583 19.7961 61.4323C19.7651 61.5063 19.7421 61.5653 19.7221 61.6083C19.6951 61.6743 19.6561 61.7843 19.6051 61.9363C19.5541 62.0883 19.5151 62.2023 19.4841 62.2723L19.4531 62.3583L19.1831 62.2493C19.1871 62.2063 19.2031 62.1163 19.2221 61.9793C19.2651 61.7293 19.2811 61.5653 19.2611 61.4913C19.2491 61.4363 19.2141 61.3813 19.1521 61.3313C19.1091 61.2953 18.9251 61.2103 18.6051 61.0843C18.2261 60.9323 17.9411 60.8313 17.7421 60.7763C17.7141 60.8423 17.6991 60.8813 17.6911 60.9013C17.5701 61.2023 17.4721 61.4483 17.3941 61.6473L17.0701 62.4563C17.0351 62.5533 17.0421 62.6313 17.0971 62.6943C17.1791 62.7883 17.4841 62.9403 18.0111 63.1513C18.3631 63.2883 18.6711 63.3813 18.9331 63.4243C19.1201 63.4563 19.3001 63.4323 19.4801 63.3503C19.7181 63.2523 19.9561 63.0733 20.1871 62.8153C20.2691 62.8383 20.3351 62.8583 20.3861 62.8813C20.4131 62.8893 20.4531 62.9093 20.5071 62.9323C20.4761 62.9953 20.4491 63.0423 20.4251 63.0843L20.3591 63.1863L19.9371 63.8423L19.6991 64.2453C19.5351 64.1863 19.4061 64.1393 19.3081 64.1003C19.1671 64.0453 18.7961 63.8853 18.1991 63.6203C17.7771 63.4323 17.2611 63.2173 16.6601 62.9793C16.3591 62.8583 15.9841 62.7213 15.5351 62.5733L15.3741 62.5103L14.9131 62.3463L15.0191 62.0843C15.0741 62.0883 15.1711 62.1163 15.3201 62.1553C15.5931 62.2293 15.7881 62.2603 15.9101 62.2493C15.9601 62.1903 16.0111 62.1003 16.0541 61.9913C16.0741 61.9483 16.1011 61.8773 16.1361 61.7723L16.1871 61.6553L16.7421 60.2373L16.9131 59.8113L17.1361 59.2063L17.3081 58.7843L17.4601 58.3033C17.4641 58.2883 17.4721 58.2643 17.4841 58.2253C17.4681 58.1863 17.4371 58.1553 17.3901 58.1273C17.3671 58.1123 17.3311 58.0883 17.2881 58.0613C17.1561 57.9753 17.0271 57.9013 16.8981 57.8423C16.8511 57.8233 16.7961 57.7953 16.7381 57.7603L16.8741 57.4673ZM20.9061 64.6163C20.9171 64.5383 20.9451 64.4443 20.9801 64.3343L21.4951 64.3383C21.5581 64.3343 21.6361 64.3273 21.7301 64.3113L21.9561 63.3273C22.0071 62.9633 22.0501 62.6983 22.0811 62.5183L22.1011 62.4243C22.1281 62.3153 22.1831 62.0423 22.2611 61.6043L22.2691 61.4873L22.3391 61.1553L22.3941 60.8073L22.4211 60.6353C22.4491 60.4833 22.4721 60.2993 22.4841 60.0883C22.4841 60.0693 22.4801 60.0383 22.4721 59.9873C22.4491 59.9753 22.4291 59.9673 22.4021 59.9603C22.3781 59.9523 22.3511 59.9443 22.3271 59.9323C22.2261 59.8973 22.1171 59.8663 21.9991 59.8343L21.9411 59.8073C21.8701 59.7883 21.8161 59.7683 21.7851 59.7493C21.7881 59.6703 21.7921 59.6203 21.7961 59.6003C21.8041 59.5693 21.8201 59.5263 21.8431 59.4713C21.9021 59.4673 21.9761 59.4793 22.0701 59.4953C22.1671 59.5103 22.2341 59.5223 22.2731 59.5263C22.5891 59.6163 22.8271 59.6783 22.9841 59.7103C23.0581 59.7213 23.1281 59.7373 23.2031 59.7523C23.2731 59.7723 23.3391 59.7843 23.3941 59.7953C23.4841 59.8113 23.6991 59.8343 24.0461 59.8703C24.1011 59.8663 24.1631 59.8703 24.2301 59.8813C24.3311 59.9013 24.4131 59.9203 24.4761 59.9403C24.4721 59.9953 24.4641 60.0383 24.4601 60.0613C24.4531 60.1043 24.4371 60.1593 24.4131 60.2173L23.6831 60.2063C23.6241 60.2213 23.5931 60.2523 23.5851 60.3033L23.5661 60.4523L23.5541 60.5183L23.5231 60.6903L23.4921 60.8273L23.4841 60.8583C23.4881 60.8853 23.4841 60.9133 23.4801 60.9323L23.3821 61.4363C23.3821 61.4873 23.3781 61.5223 23.3741 61.5453C23.3701 61.5613 23.3631 61.6003 23.3431 61.6703C23.3351 61.7133 23.3271 61.7563 23.3201 61.8033C23.3121 61.8423 23.2961 61.9363 23.2771 62.0843C23.3511 62.1123 23.4101 62.1313 23.4601 62.1433L24.0501 62.2603L24.3391 62.3113L25.0581 62.4403L25.7611 62.5423C25.8511 62.5573 25.9491 62.5653 26.0541 62.5653C26.0741 62.4753 26.1171 62.2563 26.1791 61.9053L26.2221 61.7253L26.3241 61.0453L26.3271 60.7603C26.3241 60.7413 26.3081 60.7173 26.2851 60.6983C26.2031 60.6313 26.0311 60.5383 25.7691 60.4243C25.7221 60.4053 25.6751 60.3813 25.6361 60.3583C25.6601 60.2643 25.6791 60.1903 25.7061 60.1353C25.7651 60.1433 25.8001 60.1473 25.8161 60.1513L26.1991 60.2213C26.4371 60.2953 26.6831 60.3583 26.9371 60.4013C26.9951 60.4133 27.0421 60.4203 27.0741 60.4203L27.5931 60.4993C27.6401 60.5023 27.6871 60.5103 27.7341 60.5143C27.8311 60.5103 27.9291 60.5183 28.0311 60.5343C28.1051 60.5493 28.1991 60.5693 28.3041 60.5963C28.2851 60.6983 28.2611 60.7923 28.2341 60.8743C27.9841 60.8813 27.8201 60.8893 27.7421 60.9013C27.6601 60.9093 27.5811 60.9283 27.4951 60.9523L27.4601 61.0303L27.4491 61.0963L27.4331 61.2023L27.4171 61.2523C27.4021 61.3073 27.3901 61.3503 27.3821 61.3773L27.3671 61.4753C27.3511 61.5963 27.3431 61.6633 27.3391 61.6783L27.2491 62.1823L27.1911 62.5653L27.0891 63.0693C27.0621 63.1863 27.0271 63.4243 26.9761 63.7883L26.8741 64.3543L26.8001 64.8233C26.7851 64.9133 26.7651 65.0183 26.7381 65.1393C26.7921 65.1673 26.8391 65.1903 26.8861 65.2103C27.1241 65.3033 27.3041 65.3933 27.4211 65.4713L27.3781 65.7523C27.2731 65.7373 27.2101 65.7293 27.1911 65.7253C27.0621 65.7023 26.9211 65.6673 26.7571 65.6243C26.5421 65.5613 26.1951 65.4913 25.7141 65.4053C25.4951 65.3663 25.2101 65.3343 24.8631 65.3073C24.8241 65.2993 24.7811 65.2843 24.7301 65.2563C24.7571 65.1353 24.7851 65.0493 24.8121 65.0023L25.1241 64.9833L25.4491 64.9873C25.4841 64.9833 25.5271 64.9833 25.5771 64.9713C25.6441 64.7643 25.7181 64.4093 25.8081 63.9093L25.8861 63.5733C25.8901 63.4283 25.9061 63.2603 25.9411 63.0653C25.8471 63.0383 25.7421 63.0143 25.6281 62.9913L23.7811 62.6473L23.7451 62.6393L23.7181 62.6313C23.7031 62.6273 23.6791 62.6243 23.6561 62.6243C23.5851 62.6123 23.5271 62.6043 23.4801 62.5963L23.3671 62.5773C23.3161 62.5693 23.2571 62.5653 23.1911 62.5693L23.1241 62.8663L23.1131 62.9173C23.1091 62.9913 23.1011 63.0383 23.0971 63.0573L22.8821 64.2923C22.8671 64.3623 22.8591 64.4323 22.8511 64.5023L22.8821 64.5343L23.4601 64.7293C23.4881 64.7493 23.5111 64.7563 23.5271 64.7643C23.5621 64.7763 23.5891 64.7953 23.6091 64.8153C23.6051 64.8773 23.6051 64.9173 23.6011 64.9403C23.5931 64.9753 23.5771 65.0223 23.5581 65.0813C23.4601 65.0653 23.3781 65.0533 23.3121 65.0423C23.2531 65.0303 23.1991 65.0223 23.1521 65.0103C23.1241 65.0023 23.1051 64.9993 23.0811 64.9913L22.5231 64.8703C22.3941 64.8343 22.2061 64.7953 21.9681 64.7523L21.8821 64.7453C21.7691 64.7293 21.7031 64.7213 21.6831 64.7213C21.5151 64.7133 21.2531 64.6783 20.9021 64.6163H20.9061ZM30.5771 64.4053C31.8701 62.8343 32.7141 61.7803 33.1131 61.2373C33.0931 61.0383 33.0771 60.9243 33.0621 60.8933C33.0421 60.8663 32.9951 60.8383 32.9171 60.8073C32.8391 60.7763 32.6911 60.7453 32.4641 60.7133C32.3591 60.6983 32.2881 60.6863 32.2531 60.6743C32.2491 60.5773 32.2531 60.4993 32.2651 60.4403L32.3781 60.4283C32.6051 60.4093 32.7571 60.3973 32.8311 60.4013C33.0461 60.4093 33.2611 60.4053 33.4721 60.3853C33.8201 60.3543 34.1321 60.3153 34.4131 60.2603C34.5191 60.2413 34.6011 60.2293 34.6631 60.2213C34.7221 60.2173 34.8081 60.2133 34.9171 60.2133C34.9251 60.3193 34.9251 60.4173 34.9211 60.4993C34.6201 60.5923 34.4251 60.6593 34.3311 60.7103C34.2421 60.7563 34.1991 60.8273 34.2061 60.9283L34.2571 61.5103L34.3391 62.4053L34.3781 62.9173L34.4531 63.6393L34.5031 64.2133L34.5541 64.6863C34.5621 64.7803 34.5701 64.8893 34.5741 65.0103C34.6321 65.0223 34.6831 65.0303 34.7341 65.0343C34.9921 65.0653 35.1871 65.1043 35.3241 65.1513L35.3591 65.4403L35.1871 65.4563C35.1401 65.4603 35.0891 65.4633 35.0311 65.4633L34.7261 65.4753C34.4991 65.4673 34.1481 65.4873 33.6631 65.5303C33.4171 65.5493 33.2261 65.5773 33.0971 65.6043C32.9291 65.6393 32.8271 65.6633 32.7921 65.6633C32.7611 65.6673 32.7221 65.6633 32.6671 65.6513C32.6561 65.5223 32.6561 65.4323 32.6631 65.3853L32.9331 65.2953L33.0891 65.2523C33.2531 65.2103 33.3631 65.1783 33.4131 65.1553C33.4291 64.9523 33.4061 64.4753 33.3391 63.7213L33.2301 62.5303L33.1751 61.7763L30.6201 64.9363C30.6521 65.2333 30.6671 65.3893 30.6751 65.4013C30.6951 65.4203 30.7421 65.4283 30.8201 65.4283L31.0851 65.4483C31.3241 65.4673 31.4561 65.4873 31.4841 65.5023C31.4951 65.5653 31.5031 65.6083 31.5071 65.6313C31.5111 65.6633 31.5071 65.7133 31.5031 65.7763L31.2531 65.8033C31.1481 65.8113 31.0031 65.8153 30.8161 65.8153L30.5111 65.8383L30.3041 65.8463L29.9331 65.8663C29.8161 65.8773 29.6711 65.8973 29.5031 65.9283C29.3311 65.9603 29.1011 65.9873 28.8121 66.0143C28.8041 65.9283 28.8041 65.8343 28.8081 65.7213C28.8311 65.7133 28.8901 65.7023 28.9761 65.6823L29.1481 65.6353C29.3161 65.5923 29.4411 65.5493 29.5231 65.5063C29.5071 64.9953 29.4801 64.5533 29.4491 64.1743L29.4021 63.6393L29.2921 62.2723C29.2571 61.8623 29.2101 61.5103 29.1561 61.2173C29.1521 61.2023 29.1401 61.1743 29.1201 61.1353C29.1011 61.1273 29.0771 61.1273 29.0421 61.1273C29.0191 61.1273 28.9921 61.1243 28.9641 61.1203C28.8391 61.1123 28.7221 61.1083 28.6241 61.1123L28.5621 61.1003C28.4841 61.1003 28.4251 61.0923 28.3901 61.0813C28.3741 61.0063 28.3671 60.9603 28.3631 60.9363C28.3631 60.9053 28.3671 60.8623 28.3781 60.8033C28.4371 60.7843 28.4991 60.7723 28.5661 60.7683C28.7651 60.7493 28.9951 60.7413 29.2611 60.7413C29.5031 60.7413 29.7031 60.7333 29.8591 60.7213C30.0771 60.7023 30.2811 60.6743 30.4601 60.6393C30.6871 60.5923 30.8201 60.5693 30.8591 60.5653C30.9131 60.5613 30.9801 60.5613 31.0581 60.5693L31.0741 60.6903C31.0771 60.7333 31.0741 60.7843 31.0701 60.8463L30.3671 61.0223C30.3271 61.0303 30.3081 61.0963 30.3121 61.2173C30.3121 61.3383 30.3241 61.4833 30.3351 61.6513L30.3591 61.8383L30.3861 62.2023L30.4101 62.4133L30.4211 62.6863C30.4211 62.7213 30.4331 62.7843 30.4451 62.8773C30.4601 62.9953 30.4761 63.1163 30.4841 63.2333C30.4921 63.3313 30.4991 63.4283 30.5031 63.5263L30.5071 63.7373L30.5771 64.4053ZM40.9211 63.7883C40.9411 63.8383 40.9531 63.8773 40.9601 63.9053C40.9681 63.9283 40.9761 63.9713 40.9881 64.0383C40.7341 64.1043 40.4841 64.1553 40.2421 64.1903L40.0811 64.2253L39.9491 64.2493C39.8311 64.2683 39.7381 64.2883 39.6671 64.3073C39.5581 64.3343 39.2341 64.4443 38.6831 64.6353L38.5271 64.6673C38.5071 64.6703 38.4721 64.6823 38.4291 64.6943C38.3981 64.6393 38.3671 64.5453 38.3351 64.4133C38.3591 64.3893 38.4491 64.3383 38.6011 64.2643C38.8271 64.1553 38.9881 64.0493 39.0851 63.9523L38.8781 63.2213L38.6871 62.4523L38.6091 62.1943L38.5851 62.0883L38.3001 62.1513C38.1401 62.1943 38.0271 62.2413 37.9681 62.2923C37.9131 62.3463 37.8701 62.4203 37.8391 62.5103C37.8081 62.6003 37.7421 62.8583 37.6401 63.2883C37.5381 63.7133 37.4641 64.0883 37.4101 64.4093L37.3081 64.9833L36.8781 65.0613L35.8311 65.3663L35.7771 65.3813L35.6131 65.4203C35.6011 65.3853 35.5891 65.3583 35.5851 65.3343C35.5741 65.2953 35.5741 65.2563 35.5811 65.2103C35.6361 65.1743 35.7141 65.1203 35.8201 65.0573C35.9491 64.9793 36.0381 64.8773 36.0971 64.7563C36.1521 64.6353 36.2731 64.2683 36.4491 63.6593C36.6711 62.9013 36.8431 62.4633 36.9641 62.3383C36.1521 62.3343 35.6671 62.0263 35.5071 61.4133C35.4101 61.0303 35.4761 60.6743 35.7061 60.3463C35.9371 60.0183 36.4131 59.7603 37.1481 59.5733C37.3631 59.5143 37.5621 59.4753 37.7531 59.4483C37.9991 59.4093 38.2921 59.3463 38.6241 59.2603L38.7771 59.2173L38.9171 59.1783C39.2421 59.0923 39.4841 59.0453 39.6441 59.0343C39.6561 59.0533 39.6631 59.0653 39.6671 59.0693L39.6911 59.1703C39.7101 59.2493 39.7221 59.2923 39.7181 59.3033C39.6711 59.3273 39.5971 59.3543 39.4921 59.3893C39.3271 59.4483 39.1951 59.5023 39.0851 59.5573C39.1091 59.7103 39.1911 60.0533 39.3271 60.5843L39.6131 61.6083L39.7031 61.9713L39.8631 62.5303L39.9451 62.8663C40.0851 63.4093 40.1751 63.7173 40.2141 63.7953C40.3161 63.8073 40.4531 63.8033 40.6171 63.7843C40.7531 63.7683 40.8551 63.7683 40.9211 63.7883ZM38.4991 61.7133L38.3861 61.3233L38.3391 61.1433L38.2341 60.7173L38.1401 60.3973L37.9881 59.7953C37.9101 59.7993 37.8001 59.8233 37.6601 59.8583C37.2571 59.9633 36.9841 60.1123 36.8391 60.3113C36.6951 60.5063 36.6671 60.7843 36.7571 61.1353C36.8391 61.4603 36.9991 61.6783 37.2341 61.7923C37.4681 61.9013 37.8001 61.9053 38.2221 61.7953L38.4991 61.7133ZM45.1991 56.3773C45.2691 56.4323 45.4411 56.6003 45.7141 56.8853C45.8391 57.0143 45.9491 57.1633 46.0421 57.3313L45.7181 57.5063C45.3161 57.3073 44.9561 57.2023 44.6401 57.1943C44.3201 57.1823 44.0111 57.2563 43.7101 57.4173C43.3431 57.6163 43.1201 57.9203 43.0501 58.3273C42.9531 58.8813 43.0891 59.5063 43.4601 60.2023C43.6791 60.6043 43.8591 60.8773 44.0031 61.0223C44.2381 61.2523 44.4681 61.4203 44.6911 61.5263C44.8631 61.6043 45.0501 61.6393 45.2571 61.6313C45.5231 61.6273 45.7771 61.5613 46.0111 61.4323C46.2771 61.2923 46.4841 61.0733 46.6401 60.7803C46.7961 60.4873 46.9021 60.1203 46.9531 59.6743C47.0311 59.6123 47.1401 59.5423 47.2811 59.4633C47.3201 59.5573 47.3551 59.6593 47.3861 59.7683C47.3981 59.8113 47.4531 59.9753 47.5461 60.2643L47.5741 60.3893L47.6131 60.5813C47.5271 60.7723 47.3701 60.9673 47.1361 61.1633C46.9021 61.3623 46.5971 61.5613 46.2141 61.7683C45.9211 61.9243 45.6281 62.0453 45.3391 62.1313C45.0501 62.2173 44.7811 62.2493 44.5311 62.2293C44.1671 62.2063 43.8551 62.1313 43.5931 62.0183C43.3311 61.9013 43.1011 61.7453 42.8981 61.5493C42.6991 61.3543 42.5191 61.1123 42.3631 60.8193C41.9841 60.1123 41.9021 59.4013 42.1241 58.6903C42.3431 57.9793 42.8161 57.4283 43.5421 57.0383C43.8351 56.8813 44.1201 56.7453 44.3981 56.6353C44.6751 56.5263 44.9411 56.4403 45.1991 56.3773ZM48.1361 60.6943L47.9681 60.4673C47.9991 60.4243 48.0581 60.3543 48.1481 60.2563C48.2851 60.0963 48.3631 59.9913 48.3781 59.9363C48.3941 59.8853 48.3861 59.7923 48.3631 59.6553L47.6951 57.4633L46.9021 54.8893C46.9721 54.8343 47.0381 54.7803 47.1051 54.7293L47.2491 54.6163L47.3241 54.6513L48.9021 55.5383C49.2451 55.7173 49.5701 55.9013 49.8741 56.0883C50.1791 56.2723 50.4291 56.4203 50.6321 56.5303C50.7531 56.6003 50.9291 56.7023 51.1601 56.8463C51.2811 56.9243 51.4451 57.0143 51.6521 57.1203C51.7651 57.1743 51.8351 57.2023 51.8701 57.1983C51.9331 57.1983 52.0111 57.1703 52.1091 57.1163C52.2031 57.0573 52.3161 57.0063 52.4451 56.9673C52.5111 57.0303 52.5581 57.0813 52.5851 57.1163C52.5971 57.1313 52.6171 57.1553 52.6401 57.1863C52.4801 57.3113 52.3001 57.4403 52.1011 57.5693C51.8981 57.7023 51.7221 57.8273 51.5701 57.9443C51.4021 58.0773 51.2811 58.1743 51.2101 58.2373L50.6871 58.6863L50.5381 58.8153C50.4801 58.7413 50.4251 58.6673 50.3781 58.5923L50.6751 58.2413C50.7611 58.1313 50.8041 58.0613 50.8121 58.0343C50.8161 57.9953 50.8081 57.9603 50.7881 57.9323C50.7651 57.9053 50.7381 57.8813 50.7031 57.8623L50.3311 57.6473L49.5931 57.2133L48.3741 58.1673C48.4101 58.2993 48.5071 58.6243 48.6751 59.1313C48.7221 59.2763 48.7611 59.3663 48.7921 59.4093C48.8351 59.4633 48.8821 59.4913 48.9291 59.4913C49.0111 59.4913 49.1281 59.4483 49.2771 59.3583C49.3001 59.3463 49.3861 59.2993 49.5311 59.2173C49.5931 59.2923 49.6361 59.3423 49.6601 59.3703C49.6751 59.3933 49.6911 59.4203 49.7061 59.4483C49.5741 59.5533 49.2491 59.7803 48.7261 60.1353L48.6131 60.2603C48.4761 60.4093 48.3351 60.5383 48.1911 60.6513L48.1361 60.6943ZM48.2381 57.7293C48.7421 57.3503 49.0381 57.1243 49.1281 57.0533L49.2031 56.9873C48.9921 56.8463 48.7381 56.6943 48.4371 56.5183C48.1401 56.3463 47.9061 56.2173 47.7381 56.1353L48.2381 57.7293ZM48.9801 53.7493L48.7531 53.5383L49.4531 52.8703L49.7421 52.5493L49.8511 52.4323C49.9601 52.3113 50.1281 52.1163 50.3511 51.8463C50.4761 51.6903 50.5581 51.5923 50.5891 51.5533C50.8201 51.3073 51.0071 51.1313 51.1521 51.0303C51.3701 50.8703 51.5771 50.7763 51.7691 50.7453C51.9601 50.7103 52.1791 50.7253 52.4131 50.7923C52.6521 50.8623 52.8391 50.9603 52.9801 51.0843C53.3271 51.4053 53.5071 51.7723 53.5231 52.1903C53.5381 52.6083 53.3901 52.9833 53.0851 53.3153C52.9801 53.4283 52.8631 53.5263 52.7381 53.6083C52.6171 53.6863 52.4841 53.7453 52.3431 53.7883C52.2771 53.7453 52.1951 53.6743 52.0931 53.5843C52.1401 53.5383 52.1831 53.4993 52.2221 53.4603C52.2611 53.4243 52.2921 53.3893 52.3201 53.3583C52.4801 53.1903 52.5661 53.0023 52.5771 52.7993C52.5971 52.5343 52.4681 52.2723 52.1951 52.0183C51.9991 51.8383 51.8081 51.7253 51.6201 51.6783C51.4331 51.6273 51.2771 51.6313 51.1481 51.6823C50.9681 51.7563 50.8041 51.8743 50.6601 52.0343C50.5191 52.1823 50.4451 52.3113 50.4291 52.4173C50.4451 52.4523 50.4561 52.4833 50.4761 52.5143L51.8981 53.7883L52.0151 53.9053L52.1441 54.0143C52.1711 54.0383 52.2101 54.0773 52.2651 54.1273L52.5111 54.3503L52.9061 54.7103L53.3701 55.1353C53.4371 55.1943 53.5311 55.2723 53.6481 55.3703L54.2731 54.8383C54.3271 54.8743 54.3701 54.9053 54.3981 54.9283C54.4291 54.9563 54.4641 55.0023 54.5111 55.0613C54.4721 55.1163 54.4411 55.1593 54.4171 55.1823C54.3591 55.2453 54.2451 55.3543 54.0741 55.5143C53.9061 55.6703 53.7181 55.8583 53.5191 56.0773C53.2921 56.3233 53.0891 56.5693 52.9171 56.8193C52.8861 56.8623 52.8391 56.9243 52.7691 57.0103C52.7031 56.9673 52.6561 56.9323 52.6281 56.9053C52.6091 56.8893 52.5851 56.8623 52.5501 56.8233L52.6561 56.5843C52.7341 56.4283 52.7881 56.2803 52.8161 56.1353C52.7771 56.0693 52.7341 56.0103 52.6831 55.9633C52.6631 55.9483 52.6401 55.9283 52.6131 55.9053C52.5501 55.8503 52.4641 55.7723 52.3511 55.6703L51.5071 54.9093L50.5351 54.0733C50.0741 53.6703 49.8201 53.4603 49.7771 53.4363C49.7061 53.3973 49.6401 53.3773 49.5771 53.3813C49.5151 53.3853 49.4371 53.4203 49.3511 53.4873C49.1711 53.6243 49.0501 53.7133 48.9801 53.7493Z" fill="#2E5943"/>
<path fill-rule="evenodd" clip-rule="evenodd" d="M55.1401 49.2723C55.3391 49.1123 55.5661 49.0103 55.8241 48.9633C56.0851 48.9203 56.4801 48.9173 57.0111 48.9563C57.6321 49.0023 58.0501 49.0063 58.2651 48.9603C58.4841 48.9133 58.6951 48.8033 58.9061 48.6273C58.9841 48.5613 59.0381 48.5223 59.0661 48.5063C59.1091 48.5303 59.1401 48.5493 59.1631 48.5613C59.1871 48.5813 59.2261 48.6123 59.2731 48.6593L59.0191 49.0263L58.6631 49.5223C58.5771 49.6513 58.4681 49.8233 58.3431 50.0423C57.9451 49.9873 57.4101 49.9403 56.7381 49.9013C56.0701 49.8663 55.6441 49.8813 55.4601 49.9563C55.2811 50.0263 55.1401 50.1313 55.0461 50.2723C55.1241 50.3383 55.1951 50.3933 55.2611 50.4363L55.7381 50.7333C55.8351 50.7923 55.9251 50.8503 56.0111 50.9093L56.4101 51.1863L56.5351 51.2603L56.7691 51.4093C56.8511 51.3973 56.9761 51.3233 57.1441 51.1743C57.2381 51.0923 57.3271 51.0343 57.4211 50.9953C57.4681 51.0143 57.5031 51.0343 57.5271 51.0493C57.5421 51.0613 57.5701 51.0813 57.6011 51.1123C57.5381 51.2133 57.4841 51.2953 57.4451 51.3623C57.3311 51.5263 57.2031 51.7023 57.0581 51.8893L56.8941 52.1083L56.7031 52.4173L56.2961 53.0063L56.0931 53.3343L55.9061 53.2103C55.9021 53.1783 55.9291 53.0453 55.9881 52.8073L56.0111 52.6983C56.0311 52.5693 56.0461 52.4833 56.0621 52.4443C56.0661 52.3813 56.0461 52.3273 56.0071 52.2803C55.9721 52.2373 55.8001 52.1123 55.4991 51.9093L55.1711 51.7023L54.4641 51.2213L53.9561 50.8853L53.8161 50.7803L53.3781 50.4953L53.2141 50.3663C52.9561 50.1943 52.7691 50.0923 52.6561 50.0613C52.5501 50.0923 52.4061 50.1943 52.2221 50.3583C52.1131 50.4603 52.0271 50.5183 51.9681 50.5423L51.7731 50.3773C51.7961 50.3273 51.8201 50.2803 51.8551 50.2333C51.9641 50.0693 52.0811 49.9173 52.2141 49.7683C52.3431 49.6203 52.4951 49.4173 52.6671 49.1593L52.7571 49.0103L53.0151 48.6003C53.0541 48.5383 53.1051 48.4523 53.1671 48.3383L53.2341 48.2133L53.2961 48.1313C53.3201 48.1393 53.3431 48.1513 53.3781 48.1703C53.4531 48.2253 53.4991 48.2603 53.5191 48.2843C53.4801 48.4523 53.4211 48.6203 53.3511 48.7803C53.2921 48.9053 53.2651 48.9873 53.2651 49.0263C53.2691 49.0653 53.2961 49.1043 53.3591 49.1473C53.5851 49.2953 53.7301 49.3933 53.8081 49.4363L54.0971 49.6243L54.3041 49.7723L54.5581 49.9443L54.8431 50.1433C54.8901 49.9833 54.9131 49.8113 54.9061 49.6243C54.9021 49.4403 54.8041 49.1433 54.6171 48.7413C54.2881 48.0453 54.1241 47.5383 54.1281 47.2133C54.1241 46.8893 54.2031 46.6163 54.3551 46.3933C54.5031 46.1673 54.6751 46.0343 54.8671 45.9953C55.0621 45.9523 55.2341 45.9873 55.3901 46.0923C55.5071 46.1703 55.5851 46.2763 55.6281 46.4093C55.6671 46.5423 55.6441 46.6703 55.5581 46.7993C55.4921 46.8973 55.4171 46.9633 55.3391 46.9913C55.2611 47.0183 55.1321 47.0383 54.9601 47.0383C54.7851 47.0383 54.6711 47.0773 54.6171 47.1593C54.4921 47.3463 54.5811 47.7603 54.8861 48.4013C55.0661 48.7763 55.1521 49.0653 55.1401 49.2723ZM59.0851 45.4403C58.1951 43.6123 57.5851 42.4053 57.2571 41.8193C57.0661 41.7523 56.9561 41.7213 56.9211 41.7253C56.8901 41.7293 56.8431 41.7563 56.7851 41.8193C56.7221 41.8773 56.6321 41.9993 56.5111 42.1903C56.4531 42.2843 56.4131 42.3383 56.3901 42.3663C56.2961 42.3273 56.2261 42.2923 56.1791 42.2603L56.2141 42.1513C56.2921 41.9363 56.3431 41.7953 56.3781 41.7253C56.4761 41.5343 56.5581 41.3383 56.6321 41.1353C56.7451 40.8113 56.8391 40.5103 56.9061 40.2293C56.9331 40.1273 56.9561 40.0453 56.9761 39.9873C56.9951 39.9323 57.0271 39.8503 57.0741 39.7493C57.1751 39.7883 57.2611 39.8273 57.3351 39.8663C57.2921 40.1783 57.2771 40.3853 57.2811 40.4913C57.2851 40.5923 57.3351 40.6633 57.4291 40.6943L57.9801 40.8893L58.8271 41.1863L59.3081 41.3663L59.9991 41.5963L60.5381 41.7883L60.9921 41.9363C61.0811 41.9673 61.1831 42.0063 61.2921 42.0533C61.3271 42.0063 61.3591 41.9603 61.3861 41.9173C61.5191 41.6983 61.6361 41.5343 61.7341 41.4283L62.0111 41.5143L61.9561 41.6823C61.9411 41.7253 61.9211 41.7723 61.8981 41.8273L61.7811 42.1083C61.6831 42.3073 61.5501 42.6393 61.3901 43.0963C61.3081 43.3313 61.2491 43.5143 61.2221 43.6433C61.1871 43.8113 61.1631 43.9133 61.1521 43.9443C61.1401 43.9753 61.1201 44.0103 61.0851 44.0533C60.9641 44.0103 60.8821 43.9713 60.8431 43.9483L60.8741 43.6673L60.8981 43.5063C60.9291 43.3343 60.9451 43.2213 60.9451 43.1703C60.7691 43.0693 60.3241 42.8933 59.6091 42.6393L58.4801 42.2453L57.7731 41.9873L59.5851 45.6163C59.8701 45.7133 60.0191 45.7643 60.0351 45.7643C60.0581 45.7523 60.0851 45.7133 60.1201 45.6433L60.2451 45.4053C60.3631 45.2023 60.4371 45.0883 60.4641 45.0693C60.5231 45.0843 60.5661 45.0923 60.5851 45.1003C60.6201 45.1123 60.6631 45.1353 60.7181 45.1673L60.6401 45.4053C60.6051 45.5023 60.5461 45.6353 60.4681 45.8073L60.3631 46.0923L60.2851 46.2843L60.1481 46.6313C60.1091 46.7413 60.0701 46.8813 60.0271 47.0493C59.9841 47.2173 59.9131 47.4403 59.8161 47.7133C59.7381 47.6863 59.6481 47.6433 59.5501 47.5923C59.5541 47.5693 59.5661 47.5143 59.5851 47.4243L59.6131 47.2493C59.6441 47.0773 59.6561 46.9483 59.6521 46.8543C59.1791 46.6593 58.7651 46.4953 58.4061 46.3703L57.9021 46.1903L56.6131 45.7213C56.2261 45.5843 55.8861 45.4793 55.5971 45.4093C55.5811 45.4093 55.5501 45.4093 55.5071 45.4093C55.4951 45.4203 55.4801 45.4443 55.4681 45.4713C55.4561 45.4953 55.4451 45.5183 55.4291 45.5423C55.3671 45.6553 55.3161 45.7563 55.2771 45.8503L55.2421 45.9013C55.2101 45.9713 55.1791 46.0223 55.1561 46.0493C55.0811 46.0343 55.0351 46.0183 55.0111 46.0143C54.9841 46.0023 54.9451 45.9793 54.8981 45.9443C54.9061 45.8853 54.9211 45.8233 54.9411 45.7563C55.0071 45.5733 55.0971 45.3583 55.2061 45.1163C55.3041 44.8973 55.3821 44.7133 55.4371 44.5653C55.5071 44.3583 55.5661 44.1633 55.6131 43.9793C55.6631 43.7563 55.6991 43.6243 55.7101 43.5883C55.7301 43.5383 55.7571 43.4793 55.7961 43.4093L55.9101 43.4443C55.9531 43.4603 55.9991 43.4833 56.0541 43.5143L55.9211 44.2253C55.9131 44.2683 55.9641 44.3113 56.0771 44.3583C56.1871 44.4053 56.3241 44.4603 56.4801 44.5143L56.6601 44.5733L57.0031 44.6983L57.2031 44.7643L57.4561 44.8703C57.4921 44.8813 57.5501 44.8973 57.6401 44.9243C57.7571 44.9603 57.8701 44.9993 57.9841 45.0383C58.0741 45.0693 58.1631 45.1043 58.2531 45.1393L58.4491 45.2253L59.0851 45.4403ZM57.8201 35.4173C57.9061 35.3973 58.1441 35.3623 58.5381 35.3193C58.7141 35.2993 58.9021 35.3073 59.0931 35.3343L59.0311 35.6983C58.6281 35.8933 58.3241 36.1123 58.1201 36.3583C57.9171 36.6043 57.7881 36.8933 57.7301 37.2293C57.6601 37.6433 57.7651 38.0023 58.0421 38.3113C58.4211 38.7293 58.9991 39.0023 59.7771 39.1313C60.2301 39.2103 60.5541 39.2333 60.7571 39.2063C61.0851 39.1633 61.3591 39.0843 61.5771 38.9713C61.7451 38.8853 61.8901 38.7603 62.0071 38.5923C62.1671 38.3773 62.2691 38.1393 62.3121 37.8743C62.3631 37.5773 62.3201 37.2803 62.1831 36.9753C62.0461 36.6743 61.8201 36.3663 61.4991 36.0533C61.4991 35.9523 61.5111 35.8233 61.5351 35.6633C61.6321 35.6903 61.7341 35.7253 61.8391 35.7683C61.8821 35.7843 62.0461 35.8423 62.3311 35.9443L62.4451 35.9993L62.6241 36.0843C62.7221 36.2723 62.7771 36.5143 62.7881 36.8193C62.8041 37.1243 62.7731 37.4913 62.7031 37.9203C62.6441 38.2453 62.5621 38.5493 62.4531 38.8313C62.3431 39.1123 62.2031 39.3463 62.0351 39.5303C61.7921 39.8033 61.5461 40.0063 61.2921 40.1393C61.0421 40.2763 60.7771 40.3623 60.4991 40.4053C60.2221 40.4443 59.9171 40.4363 59.5931 40.3813C58.8001 40.2453 58.1911 39.8743 57.7651 39.2643C57.3351 38.6553 57.1911 37.9443 57.3271 37.1313C57.3821 36.8033 57.4531 36.4953 57.5351 36.2103C57.6171 35.9243 57.7101 35.6593 57.8201 35.4173ZM62.8161 30.1743C62.8701 30.1703 62.9101 30.1673 62.9371 30.1673C62.9601 30.1673 63.0071 30.1703 63.0701 30.1783C63.0701 30.4403 63.0541 30.6943 63.0231 30.9363L63.0191 31.1003L63.0031 31.2333C62.9951 31.3543 62.9881 31.4483 62.9881 31.5223C62.9881 31.6313 63.0071 31.9753 63.0461 32.5573L63.0351 32.7133C63.0351 32.7373 63.0381 32.7723 63.0381 32.8193C62.9801 32.8313 62.8781 32.8383 62.7421 32.8343C62.7261 32.8033 62.6991 32.7063 62.6671 32.5383C62.6201 32.2923 62.5621 32.1083 62.4921 31.9913L61.7341 32.0023L60.9411 31.9833L60.6711 31.9913L60.5621 31.9873L60.5501 32.2763C60.5461 32.4443 60.5661 32.5653 60.6011 32.6313C60.6361 32.7023 60.6951 32.7643 60.7771 32.8153C60.8551 32.8703 61.0891 33.0023 61.4761 33.2103C61.8591 33.4173 62.1991 33.5883 62.4951 33.7253L63.0231 33.9753L62.9881 34.4093L63.0111 35.4993L63.0071 35.5573L63.0031 35.7253C62.9641 35.7293 62.9371 35.7293 62.9131 35.7293C62.8741 35.7293 62.8351 35.7173 62.7961 35.7023C62.7731 35.6393 62.7421 35.5493 62.7061 35.4283C62.6631 35.2843 62.5891 35.1703 62.4881 35.0843C62.3861 34.9993 62.0661 34.7883 61.5231 34.4563C60.8511 34.0453 60.4721 33.7643 60.3821 33.6163C60.1671 34.3973 59.7421 34.7883 59.1091 34.7803C58.7141 34.7723 58.3901 34.6163 58.1321 34.3113C57.8741 34.0023 57.7491 33.4713 57.7571 32.7173C57.7611 32.4953 57.7771 32.2923 57.8001 32.1003C57.8241 31.8503 57.8391 31.5533 57.8431 31.2103V31.0533L57.8391 30.9053C57.8431 30.5733 57.8631 30.3233 57.8901 30.1673C57.9131 30.1593 57.9291 30.1553 57.9331 30.1553H58.0381C58.1171 30.1553 58.1631 30.1593 58.1711 30.1673C58.1831 30.2173 58.1911 30.2953 58.1991 30.4093C58.2101 30.5773 58.2301 30.7213 58.2531 30.8423C58.4061 30.8583 58.7571 30.8663 59.3081 30.8743L60.3701 30.8703L60.7451 30.8773L61.3241 30.8703L61.6711 30.8773C62.2341 30.8813 62.5541 30.8773 62.6361 30.8583C62.6751 30.7643 62.7061 30.6313 62.7301 30.4673C62.7531 30.3313 62.7811 30.2333 62.8161 30.1743ZM60.1791 31.9753H59.7731L59.5891 31.9793L59.1481 31.9673L58.8161 31.9713L58.1951 31.9633C58.1791 32.0383 58.1711 32.1513 58.1711 32.2953C58.1631 32.7133 58.2381 33.0143 58.3901 33.2063C58.5421 33.4013 58.8001 33.4993 59.1671 33.5023C59.5031 33.5063 59.7531 33.4093 59.9211 33.2133C60.0931 33.0143 60.1791 32.6983 60.1871 32.2603L60.1791 31.9753ZM63.1171 29.5923C63.0351 29.6123 62.9411 29.6243 62.8271 29.6313L62.6281 29.1553C62.6011 29.0963 62.5621 29.0303 62.5151 28.9523L61.5151 29.1203C61.1631 29.2103 60.9021 29.2763 60.7221 29.3153L60.6281 29.3343C60.5191 29.3503 60.2451 29.4053 59.8121 29.5023L59.7031 29.5423L59.3671 29.6043L59.0271 29.6903L58.8551 29.7293C58.7031 29.7643 58.5271 29.8153 58.3271 29.8813C58.3081 29.8893 58.2811 29.9053 58.2421 29.9323C58.2381 29.9563 58.2381 29.9833 58.2381 30.0063C58.2421 30.0343 58.2451 30.0613 58.2451 30.0883C58.2491 30.1943 58.2611 30.3073 58.2811 30.4283L58.2771 30.4913C58.2851 30.5653 58.2881 30.6203 58.2851 30.6593C58.2061 30.6863 58.1601 30.7023 58.1401 30.7063C58.1091 30.7133 58.0661 30.7133 58.0031 30.7103C57.9801 30.6593 57.9601 30.5883 57.9371 30.4953C57.9171 30.3973 57.9021 30.3313 57.8901 30.2953C57.8511 29.9673 57.8161 29.7213 57.7851 29.5653C57.7691 29.4953 57.7531 29.4243 57.7421 29.3503C57.7301 29.2763 57.7181 29.2133 57.7031 29.1553C57.6831 29.0693 57.6241 28.8583 57.5231 28.5263C57.4991 28.4753 57.4801 28.4173 57.4641 28.3503C57.4411 28.2523 57.4251 28.1703 57.4211 28.1003C57.4761 28.0843 57.5151 28.0773 57.5381 28.0693C57.5851 28.0613 57.6361 28.0533 57.7031 28.0493L57.9721 28.7293C58.0071 28.7763 58.0541 28.7953 58.1011 28.7843L58.2451 28.7453L58.3081 28.7293L58.4841 28.6943L58.6171 28.6673L58.6481 28.6633C58.6751 28.6513 58.7031 28.6433 58.7221 28.6353L59.2221 28.5343C59.2691 28.5143 59.3041 28.5063 59.3271 28.4993C59.3431 28.4993 59.3821 28.4873 59.4561 28.4793C59.4951 28.4673 59.5381 28.4603 59.5851 28.4523C59.6241 28.4403 59.7181 28.4173 59.8631 28.3773C59.8591 28.3033 59.8551 28.2373 59.8431 28.1903L59.7261 27.6003L59.6601 27.3153L59.5031 26.6003L59.3271 25.9133C59.3081 25.8233 59.2771 25.7293 59.2381 25.6353C59.1441 25.6513 58.9251 25.6943 58.5741 25.7723L58.3941 25.8033L57.7301 25.9713L57.4641 26.0773C57.4451 26.0883 57.4331 26.1123 57.4251 26.1433C57.3941 26.2453 57.3741 26.4363 57.3671 26.7213C57.3671 26.7723 57.3671 26.8233 57.3591 26.8703C57.2651 26.8853 57.1871 26.8933 57.1241 26.8893C57.1091 26.8343 57.1011 26.7993 57.0971 26.7883L57.0151 26.4053C56.9951 26.1553 56.9561 25.9053 56.8981 25.6553C56.8861 25.5963 56.8741 25.5493 56.8631 25.5183L56.7341 25.0103C56.7181 24.9633 56.7061 24.9203 56.6951 24.8773C56.6521 24.7883 56.6201 24.6943 56.6011 24.5923C56.5811 24.5183 56.5661 24.4243 56.5501 24.3153C56.6521 24.2953 56.7451 24.2803 56.8311 24.2723C56.9371 24.5023 57.0071 24.6513 57.0461 24.7213C57.0851 24.7883 57.1361 24.8583 57.1911 24.9243H57.2771L57.3391 24.9133L57.4451 24.8893L57.4951 24.8813C57.5541 24.8773 57.5971 24.8703 57.6241 24.8663L57.7221 24.8423C57.8391 24.8113 57.9061 24.7923 57.9171 24.7883L58.4211 24.6783L58.7961 24.5843L59.3001 24.4833C59.4171 24.4633 59.6521 24.4053 60.0071 24.3113L60.5661 24.1823L61.0311 24.0733C61.1171 24.0533 61.2221 24.0303 61.3471 24.0063C61.3511 23.9483 61.3511 23.8973 61.3511 23.8463C61.3511 23.5883 61.3631 23.3893 61.3861 23.2523L61.6631 23.1783C61.6911 23.2843 61.7061 23.3463 61.7101 23.3663C61.7381 23.4913 61.7651 23.6353 61.7851 23.8033C61.8121 24.0223 61.8781 24.3743 61.9881 24.8503C62.0351 25.0653 62.1131 25.3423 62.2221 25.6743C62.2301 25.7133 62.2341 25.7603 62.2301 25.8153C62.1091 25.8383 62.0191 25.8463 61.9641 25.8383L61.8241 25.5573L61.7031 25.2563C61.6871 25.2253 61.6671 25.1863 61.6401 25.1433C61.4211 25.1633 61.0661 25.2293 60.5701 25.3383L60.2301 25.3973C60.0971 25.4523 59.9331 25.4993 59.7381 25.5453C59.7531 25.6433 59.7691 25.7493 59.7921 25.8623L60.1911 27.6983L60.1951 27.7333V27.7603C60.1991 27.7803 60.2061 27.7993 60.2141 27.8233C60.2301 27.8893 60.2451 27.9483 60.2571 27.9953L60.2811 28.1083C60.2921 28.1553 60.3121 28.2103 60.3431 28.2723L60.6441 28.2213L60.6951 28.2103C60.7651 28.1863 60.8081 28.1743 60.8311 28.1703L62.0541 27.8933C62.1201 27.8773 62.1911 27.8623 62.2611 27.8383L62.2771 27.7953L62.2341 27.1903C62.2381 27.1593 62.2381 27.1313 62.2381 27.1163C62.2381 27.0813 62.2421 27.0493 62.2531 27.0223C62.3121 26.9993 62.3511 26.9873 62.3741 26.9793C62.4061 26.9713 62.4561 26.9673 62.5191 26.9633C62.5421 27.0573 62.5621 27.1393 62.5771 27.2063C62.5891 27.2643 62.6011 27.3193 62.6091 27.3703C62.6131 27.3933 62.6171 27.4173 62.6201 27.4363L62.7261 27.9993C62.7421 28.1353 62.7771 28.3193 62.8311 28.5573L62.8551 28.6393C62.8861 28.7523 62.9021 28.8153 62.9101 28.8313C62.9681 28.9913 63.0381 29.2453 63.1171 29.5923Z" fill="#2E5943"/>
<path fill-rule="evenodd" clip-rule="evenodd" d="M2.28514 15.8663L2.03815 15.6783L2.67114 14.9483L2.92915 14.6003L3.02715 14.4753C3.12415 14.3423 3.27315 14.1313 3.46815 13.8423C3.57715 13.6743 3.64815 13.5693 3.67915 13.5303C3.88615 13.2603 4.05415 13.0653 4.19115 12.9523C4.39015 12.7763 4.58915 12.6633 4.77715 12.6083C4.96415 12.5573 5.17915 12.5533 5.42515 12.5963C5.66715 12.6433 5.86314 12.7213 6.01514 12.8343C6.39014 13.1203 6.60514 13.4713 6.65614 13.8813C6.71414 14.2953 6.60514 14.6823 6.32714 15.0453C6.23414 15.1703 6.12815 15.2763 6.01115 15.3703C5.89815 15.4563 5.77315 15.5303 5.63615 15.5843C5.56615 15.5493 5.47614 15.4873 5.36714 15.4053C5.41314 15.3583 5.45315 15.3113 5.48415 15.2723C5.51915 15.2333 5.55014 15.1943 5.57414 15.1633C5.71414 14.9753 5.78115 14.7843 5.77315 14.5813C5.76915 14.3113 5.61714 14.0653 5.32014 13.8383C5.10914 13.6783 4.90615 13.5843 4.71815 13.5533C4.52715 13.5223 4.37015 13.5423 4.24515 13.6043C4.07415 13.6943 3.92514 13.8273 3.79214 13.9993C3.66714 14.1633 3.60514 14.2953 3.60114 14.4013C3.61714 14.4363 3.63614 14.4673 3.65614 14.4953L5.19514 15.6273L5.32014 15.7333L5.46014 15.8313C5.48814 15.8503 5.53515 15.8853 5.59315 15.9283L5.85915 16.1313L6.28514 16.4483L6.78815 16.8273C6.85915 16.8813 6.95614 16.9523 7.08514 17.0383L7.66014 16.4483C7.71814 16.4793 7.76114 16.5023 7.79214 16.5263C7.82414 16.5533 7.86315 16.5923 7.91315 16.6473C7.88215 16.7063 7.85514 16.7523 7.83514 16.7803C7.78514 16.8463 7.67915 16.9633 7.52315 17.1393C7.37015 17.3113 7.20315 17.5143 7.02315 17.7523C6.82015 18.0183 6.64415 18.2843 6.49515 18.5493C6.47215 18.5963 6.42914 18.6633 6.36714 18.7523C6.29614 18.7173 6.24515 18.6863 6.21815 18.6633C6.19515 18.6473 6.16714 18.6243 6.13214 18.5883L6.21414 18.3423C6.27714 18.1783 6.31615 18.0223 6.33115 17.8773C6.28515 17.8153 6.23414 17.7603 6.18314 17.7213C6.16314 17.7063 6.13615 17.6863 6.10915 17.6673C6.03815 17.6203 5.94514 17.5493 5.82414 17.4603L4.91014 16.7803L3.86314 16.0423C3.36714 15.6863 3.09315 15.4993 3.05015 15.4793C2.97615 15.4443 2.90615 15.4323 2.84315 15.4443C2.78115 15.4523 2.71014 15.4953 2.62814 15.5693C2.46414 15.7253 2.35114 15.8233 2.28514 15.8663ZM7.54614 12.7723C7.31214 12.5343 7.12014 12.2493 6.97614 11.9173C6.87414 11.6783 6.80815 11.4283 6.78815 11.1673C6.76515 10.9013 6.78815 10.6243 6.85915 10.3313C6.92915 10.0383 7.03815 9.7763 7.17915 9.5383C7.32015 9.2993 7.50714 9.06529 7.73814 8.83429C8.13614 8.44029 8.55815 8.17029 8.99915 8.03029C9.44115 7.88929 9.87014 7.86228 10.2921 7.95228C10.8391 8.06528 11.2921 8.30729 11.6561 8.67029C12.1951 9.21329 12.4681 9.86229 12.4841 10.6123C12.4991 11.3663 12.1791 12.0693 11.5231 12.7173C11.3591 12.8813 11.1991 13.0223 11.0351 13.1393C10.9131 13.2293 10.7961 13.3033 10.6911 13.3543C10.4991 13.4523 10.3901 13.5063 10.3631 13.5143C10.0381 13.6003 9.74915 13.6473 9.49915 13.6473C9.24915 13.6473 9.00314 13.6163 8.75714 13.5453C8.62414 13.5023 8.41015 13.3973 8.12415 13.2293C7.93715 13.1203 7.74514 12.9673 7.54614 12.7723ZM7.91014 9.22929C7.74214 9.39329 7.63215 9.57728 7.58115 9.78428C7.53115 9.98728 7.51914 10.1703 7.54614 10.3273C7.59314 10.5963 7.69115 10.8463 7.83115 11.0813C7.97215 11.3153 8.17914 11.5693 8.44514 11.8383C8.60914 12.0023 8.73415 12.1163 8.81615 12.1703C8.84315 12.1943 8.88615 12.2253 8.95315 12.2763C9.10915 12.3973 9.23014 12.4833 9.32014 12.5263C9.64414 12.6863 9.85114 12.7803 9.94514 12.8033C10.0971 12.8423 10.2771 12.8543 10.4881 12.8383C10.5931 12.8313 10.7221 12.7953 10.8701 12.7293C11.0231 12.6593 11.1521 12.5733 11.2611 12.4633C11.4681 12.2603 11.6131 12.0183 11.6951 11.7453C11.7771 11.4753 11.7531 11.1703 11.6321 10.8313C11.5111 10.4913 11.2651 10.1353 10.8941 9.7643C10.7421 9.6123 10.5271 9.41329 10.2451 9.17029L10.1751 9.13128C10.1561 9.12028 10.1051 9.0923 10.0311 9.0423C9.64814 8.7993 9.27314 8.69429 8.91014 8.72529C8.54614 8.76029 8.21014 8.92829 7.91014 9.22929ZM14.1561 10.2173C14.1171 10.1433 14.0771 10.0533 14.0381 9.95228C14.0541 9.93628 14.1011 9.90129 14.1751 9.85029L14.3121 9.73729C14.4451 9.62729 14.5421 9.5383 14.6011 9.4673L14.1601 8.55729L13.7531 7.85029L13.6281 7.62729L13.0931 6.63128L12.9211 6.32728L12.8391 6.17428C12.6831 5.89328 12.5581 5.71729 12.4641 5.64329C12.4491 5.64329 12.4251 5.6513 12.3941 5.6633C12.3701 5.6743 12.3471 5.68229 12.3201 5.69029C12.2031 5.73329 12.0971 5.77229 12.0071 5.81529L11.9451 5.8313C11.8741 5.8623 11.8201 5.8773 11.7851 5.8853C11.7381 5.8193 11.7101 5.7803 11.7031 5.7603C11.6871 5.7333 11.6711 5.69028 11.6601 5.63128C11.7061 5.59228 11.7571 5.55729 11.8161 5.52629C11.9601 5.44829 12.1091 5.37428 12.2651 5.29928C12.7101 5.09228 13.1871 4.85029 13.6871 4.57329L14.8201 3.9283L15.6671 3.4713C16.2961 3.1243 16.7341 2.86629 16.9761 2.69429C17.0741 2.62729 17.1401 2.58429 17.1791 2.56129C17.2221 2.53829 17.3001 2.5023 17.4061 2.4563C17.4531 2.5493 17.4921 2.63529 17.5231 2.71329C17.2381 2.95229 17.0621 3.12729 16.9921 3.24129C16.9991 3.29929 17.0621 3.43629 17.1831 3.65529L17.3201 3.90129L17.7611 4.68629L18.0971 5.31129L18.3591 5.76829L18.6361 6.27229L18.8741 6.68629C18.9171 6.76829 18.9681 6.8623 19.0231 6.9713C19.0811 6.9603 19.1321 6.94429 19.1791 6.93229C19.4291 6.85429 19.6241 6.81128 19.7651 6.79928L19.9131 7.04529L19.7491 7.14329C19.7181 7.15929 19.6751 7.17828 19.6201 7.20228L19.3511 7.33829C19.1481 7.42429 18.8311 7.58429 18.4101 7.81929C18.2691 7.89729 18.1441 7.97129 18.0311 8.04529L17.6751 8.28029C17.6401 8.29929 17.5971 8.31529 17.5421 8.32329C17.4841 8.21029 17.4451 8.1273 17.4331 8.0813L17.6441 7.89329L17.7691 7.7923C17.9021 7.6863 17.9881 7.61229 18.0231 7.57329C17.9921 7.44029 17.6011 6.69429 16.8551 5.33829L15.9881 3.81529C15.9101 3.85029 15.8121 3.90129 15.6991 3.96029L14.0461 4.85029L14.0151 4.86629C14.0071 4.87029 13.9951 4.87429 13.9881 4.87729C13.9721 4.88929 13.9531 4.8973 13.9331 4.9133L13.7771 5.00229C13.6481 5.07329 13.5701 5.1273 13.5381 5.1633C13.6631 5.4133 13.7731 5.63129 13.8741 5.81529L14.8901 7.63128L15.4531 8.65129C15.5231 8.78429 15.5741 8.86628 15.6091 8.90928C15.6321 8.91728 15.6791 8.9053 15.7531 8.8743L15.9291 8.81129C16.0031 8.78029 16.0741 8.75629 16.1441 8.73329L16.2921 8.68629C16.3271 8.67429 16.3591 8.6703 16.3861 8.6783C16.4251 8.7253 16.4491 8.76429 16.4601 8.78029C16.4761 8.81129 16.4951 8.8583 16.5151 8.9173L16.2961 9.0423C16.2061 9.0923 16.0771 9.15529 15.9101 9.23729L15.6401 9.38128L15.4531 9.4673L15.0771 9.67029C14.9801 9.72129 14.8741 9.7883 14.7611 9.8703L14.5351 10.0103L14.1561 10.2173ZM28.1091 5.52229L27.6561 5.5923L27.5811 5.53029L24.1831 1.90129L24.1361 1.8703L24.4131 3.99129C24.4761 4.51429 24.4721 4.90128 24.4021 5.15928C24.3351 5.41328 24.2101 5.61629 24.0311 5.76829C23.8511 5.92029 23.6131 6.01428 23.3121 6.04928C23.1441 6.06928 22.9761 6.02629 22.8121 5.92029C22.6521 5.81529 22.5581 5.6673 22.5351 5.4713C22.5191 5.3273 22.5501 5.20229 22.6361 5.10029C22.7181 4.99929 22.8241 4.94028 22.9491 4.92428C23.0151 4.91728 23.0891 4.9243 23.1711 4.9563C23.2491 4.9833 23.3471 5.0653 23.4641 5.2063C23.6091 5.3773 23.7261 5.46029 23.8201 5.44829C24.0891 5.41729 24.1711 4.95229 24.0661 4.05729L23.9721 3.45228L23.7651 2.02229C23.7301 1.76429 23.6711 1.56929 23.5891 1.44029C23.5071 1.31129 23.4021 1.22529 23.2771 1.18229C23.1521 1.13929 22.9331 1.11229 22.6131 1.10029L22.5661 0.823286L22.9021 0.780287L23.0501 0.760298L23.2651 0.725294L23.7261 0.678297C23.8041 0.670297 23.9171 0.651287 24.0621 0.627287L24.2301 0.604292C24.2571 0.600292 24.2961 0.596299 24.3471 0.592299L27.5701 4.13128L27.1991 1.6673C27.1561 1.2953 27.1521 1.00229 27.1951 0.795286C27.2341 0.584286 27.3351 0.409293 27.4991 0.268293C27.6601 0.127293 27.8701 0.0382978 28.1281 0.0102978C28.3901 -0.0207022 28.6011 0.0182869 28.7691 0.127287C28.9331 0.237287 29.0271 0.385286 29.0501 0.573286C29.0661 0.721286 29.0311 0.846286 28.9491 0.948286C28.8631 1.05329 28.7571 1.11229 28.6321 1.12729C28.5621 1.13529 28.4881 1.1243 28.4101 1.0963C28.3351 1.0693 28.2381 0.983299 28.1171 0.842299C27.9761 0.670299 27.8631 0.592294 27.7771 0.600294C27.6631 0.616294 27.5891 0.678286 27.5541 0.795286C27.5191 0.909286 27.5381 1.27229 27.6091 1.87729C27.6321 2.08429 27.6631 2.28029 27.6951 2.46029C27.8001 3.06529 27.8701 3.51029 27.9061 3.79529L27.9641 4.44829L27.9801 4.58829L28.0311 4.88128L28.0461 5.11229L28.0971 5.3703C28.1011 5.4133 28.1051 5.46329 28.1091 5.52229ZM30.2691 3.93629C29.8741 3.98329 29.5191 3.9093 29.2031 3.7063C28.8901 3.5023 28.7101 3.21029 28.6631 2.81929C28.6171 2.43229 28.7101 2.10029 28.9491 1.81929C29.1831 1.53829 29.5191 1.37029 29.9561 1.31929C30.4061 1.26429 30.7731 1.36229 31.0661 1.60429C31.3551 1.84629 31.5191 2.10829 31.5541 2.39729C31.6051 2.82729 31.5111 3.17828 31.2771 3.45228C31.0381 3.72128 30.7061 3.88529 30.2691 3.93629ZM29.9921 1.5923C29.8241 1.6123 29.6951 1.69029 29.6011 1.83429C29.5031 1.97929 29.4881 2.2953 29.5461 2.7883C29.6201 3.4203 29.8511 3.7103 30.2451 3.6673C30.6201 3.6203 30.7691 3.24129 30.6831 2.52629C30.6051 1.85829 30.3741 1.5453 29.9921 1.5923ZM29.2691 4.52229L30.5311 4.3703L31.1751 4.2883C31.2731 4.2763 31.3591 4.27229 31.4211 4.27229C31.4451 4.39729 31.4641 4.4913 31.4801 4.5533L31.4921 4.61629L31.4991 4.82728C31.4991 4.85428 31.5071 4.92029 31.5191 5.02629L29.3431 5.2883L29.3161 5.11229C29.3081 5.04229 29.3001 4.96328 29.2961 4.88128L29.2921 4.79529L29.2651 4.5923C29.2611 4.5843 29.2651 4.56129 29.2691 4.52229ZM34.4951 0.272291C34.5071 0.272291 34.5971 0.280295 34.7691 0.292295L34.8981 0.307295L35.1481 0.342299C35.1481 0.432299 35.1481 0.495285 35.1401 0.534285C35.1401 0.549285 35.1361 0.588285 35.1241 0.659285C35.1171 0.694285 35.1011 0.838285 35.0701 1.08829L34.9951 1.69429L34.9561 2.0813L34.6281 4.79529L34.6051 5.02229C34.5931 5.10429 34.6091 5.1633 34.6401 5.2063C34.6751 5.2413 34.7731 5.28428 34.9331 5.32728C34.9951 5.33828 35.1201 5.37729 35.3081 5.43229C35.3121 5.46029 35.3121 5.4873 35.3081 5.5103C35.3041 5.5423 35.2961 5.6043 35.2811 5.7063L35.1051 5.68629C34.9881 5.67029 34.8201 5.64729 34.5931 5.60829C34.4561 5.58429 34.3671 5.56929 34.3161 5.56529C34.2491 5.55729 34.0111 5.5383 33.6011 5.5103C33.5541 5.5063 33.5151 5.50629 33.4881 5.50229L33.4131 5.4953L33.3001 5.4713L33.1911 5.4673L32.9921 5.43629C32.9641 5.43629 32.9061 5.43229 32.8241 5.43229C32.8241 5.37429 32.8271 5.32729 32.8311 5.29529C32.8351 5.26429 32.8431 5.2213 32.8551 5.1633C32.9641 5.1433 33.0931 5.12729 33.2381 5.11229C33.4371 5.09629 33.5621 5.06928 33.6091 5.03428C33.6601 5.00228 33.6871 4.9523 33.6951 4.8853L33.7181 4.61229L33.7651 4.31529L33.8311 3.7063L33.8511 3.54529C33.8511 3.52629 33.8631 3.4443 33.8821 3.3033C33.8901 3.2333 33.8981 3.17029 33.9061 3.11229C33.9101 3.07729 33.9171 2.96728 33.9331 2.78428L33.9761 2.55729C33.9841 2.38129 33.9921 2.2803 33.9921 2.2453C33.9991 2.2063 34.0031 2.1673 34.0111 2.1243L34.0271 2.02629L34.0501 1.7493L34.0741 1.62729C34.0851 1.56929 34.0931 1.49529 34.1051 1.40129C34.1131 1.31129 34.1241 1.19829 34.1321 1.06929C33.9251 1.18629 33.6951 1.30729 33.4331 1.42029C33.4061 1.43629 33.2771 1.47529 33.0541 1.54529C32.9841 1.40929 32.9371 1.30729 32.9211 1.24129C33.2221 1.12429 33.4291 1.03829 33.5381 0.979292C33.7181 0.877292 33.9211 0.749296 34.1361 0.596296C34.2261 0.526296 34.3471 0.417291 34.4951 0.272291Z" fill="#2E5943"/>
<path fill-rule="evenodd" clip-rule="evenodd" d="M3.47213 47.0063C2.54613 45.2683 1.80013 43.4523 1.24213 41.5453C0.683126 39.6433 0.304131 37.6513 0.109131 35.5773L0.105125 35.5733C-0.191875 31.7643 0.140125 28.1743 1.10513 24.7993V24.7953C1.44913 23.6123 1.83113 22.4993 2.25313 21.4603C2.67913 20.4173 3.14413 19.4403 3.65613 18.5263L4.22213 18.8423C3.73013 19.7253 3.27713 20.6823 2.85913 21.7063C2.44113 22.7333 2.06613 23.8233 1.73013 24.9753C0.788125 28.2803 0.464125 31.7923 0.757125 35.5223C0.949125 37.5533 1.32013 39.4993 1.86713 41.3623C2.41313 43.2253 3.14013 45.0063 4.04613 46.6983L3.47213 47.0063Z" fill="#2E5943"/>
<path fill-rule="evenodd" clip-rule="evenodd" d="M37.0661 3.58429C40.0271 4.26429 42.8121 5.38129 45.4171 6.94029C48.0231 8.49529 50.4451 10.4913 52.6871 12.9203L52.6911 12.9243C55.1791 15.7133 57.1051 18.9363 58.4641 22.5883L57.8551 22.8153C56.5271 19.2413 54.6441 16.0883 52.2061 13.3623C50.0071 10.9753 47.6321 9.0223 45.0811 7.4993C42.5381 5.9793 39.8161 4.8853 36.9171 4.2213L37.0661 3.58429Z" fill="#2E5943"/>
</svg>
