<svg width="54" height="56" viewBox="0 0 54 56" fill="none" xmlns="http://www.w3.org/2000/svg">
<path fill-rule="evenodd" clip-rule="evenodd" d="M11.238 33.863H20.16L22.891 30.02H16.344V25.5979H26.012V21.7581H16.344V17.762H28.734V13.9099H11.238V33.863Z" fill="#565757"/>
<path fill-rule="evenodd" clip-rule="evenodd" d="M26.488 41.469C25.117 40.387 24.078 38.934 23.375 37.113C26.523 32.641 28.098 30.4021 28.098 30.4021C27.055 32.2661 26.855 34.1839 27.496 36.1599C28.32 38.1839 29.801 39.4841 31.93 40.0591C33.645 40.4021 35.195 40.2769 36.586 39.6799C37.703 39.2069 38.668 38.4881 39.484 37.5161C41.195 39.2541 42.051 40.1211 42.051 40.1211C40.289 42.2851 37.836 43.5511 34.691 43.9141C31.234 44.0741 28.5 43.258 26.488 41.469Z" fill="#565757"/>
<path fill-rule="evenodd" clip-rule="evenodd" d="M32.594 24.0119C29.691 28.1329 28.242 30.195 28.242 30.195C29.473 28.758 30.973 27.93 32.738 27.715C34.18 27.559 35.504 27.7699 36.715 28.3549C37.512 28.6799 38.344 29.3629 39.203 30.3979C41.008 28.6599 41.91 27.7929 41.91 27.7929C40.422 26.0819 38.719 24.953 36.793 24.402C35.477 24.02 34.078 23.8909 32.594 24.0119Z" fill="#565757"/>
<path fill-rule="evenodd" clip-rule="evenodd" d="M12.562 44.6479L12.887 44.875L34.742 13.656L34.418 13.4299L12.562 44.6479Z" fill="#565757"/>
<path fill-rule="evenodd" clip-rule="evenodd" d="M16.312 47.0471L16.637 47.2729L38.492 16.0549L38.168 15.8279L16.312 47.0471Z" fill="#565757"/>
<path fill-rule="evenodd" clip-rule="evenodd" d="M5.793 39.781C5.863 39.891 5.92199 39.9841 5.96899 40.0701C6.05899 40.2271 6.17201 40.4021 6.31201 40.5901C6.36301 40.6561 6.492 40.8159 6.707 41.0779C7.027 41.4689 7.30499 41.828 7.55099 42.156L7.92599 42.6411C8.01199 42.7541 8.117 42.9259 8.254 43.1599C8.242 43.2189 8.20699 43.2731 8.14499 43.3201L7.586 43.738L7.48001 43.8279C7.46901 43.8399 7.44899 43.848 7.42999 43.863L7.34 43.7539C7.328 43.7419 7.30901 43.7109 7.27301 43.6599C7.29701 43.6169 7.33599 43.5549 7.38699 43.4729L7.496 43.2151C7.547 43.1131 7.586 42.9921 7.617 42.8521C7.594 42.7971 7.559 42.7299 7.508 42.6599C7.496 42.6409 7.45699 42.5819 7.39499 42.4839C7.28099 42.3049 7.152 42.121 7.004 41.926C6.84 41.707 6.688 41.5081 6.547 41.3401C6.504 41.3751 6.32799 41.5119 6.01999 41.7419L5.56201 42.082L5.22299 42.3401C5.25399 42.3871 5.27699 42.4299 5.30499 42.4609C5.54699 42.7809 5.727 43.008 5.84 43.137C5.957 43.262 6.035 43.3361 6.082 43.3521C6.133 43.3631 6.19099 43.3631 6.26599 43.3521C6.31599 43.3361 6.47301 43.27 6.73401 43.145L6.76599 43.1799L6.883 43.3359C6.727 43.4649 6.60901 43.562 6.52701 43.625C6.33601 43.766 6.21501 43.8589 6.15601 43.8979C6.10201 43.9379 6.05901 43.969 6.02701 43.988C5.98001 44.027 5.90199 44.09 5.80099 44.176C5.69499 44.262 5.61701 44.324 5.56601 44.363L5.508 44.4099L5.35901 44.2151C5.38301 44.1841 5.434 44.1251 5.508 44.0391C5.648 43.8791 5.727 43.766 5.746 43.707C5.762 43.66 5.76201 43.605 5.73801 43.543C5.72701 43.496 5.629 43.3589 5.457 43.1289C5.25 42.8549 5.08999 42.6561 4.97299 42.5271C4.92599 42.5621 4.895 42.5899 4.879 42.5979C4.664 42.7619 4.48399 42.8949 4.34399 43.0039L3.758 43.4409C3.688 43.4919 3.66 43.5551 3.672 43.6211C3.691 43.7271 3.844 43.9649 4.129 44.3479C4.32 44.6019 4.5 44.801 4.672 44.949C4.789 45.051 4.92999 45.1131 5.09399 45.1331C5.30899 45.1641 5.555 45.1451 5.836 45.0591C5.883 45.1091 5.91801 45.152 5.94501 45.188C5.96101 45.211 5.98399 45.242 6.01199 45.281C5.96099 45.309 5.92199 45.3321 5.88699 45.3521L5.793 45.3979L5.207 45.6841L4.85901 45.8669C4.76601 45.7539 4.69499 45.664 4.64099 45.594C4.56599 45.496 4.37099 45.2191 4.05899 44.7661C3.83599 44.4451 3.56201 44.0701 3.23801 43.6331C3.07401 43.4181 2.86301 43.156 2.60501 42.855L2.51999 42.7419L2.26199 42.4221L2.453 42.2771C2.488 42.3051 2.54699 42.3669 2.63699 42.4609C2.79699 42.6329 2.92599 42.7419 3.01599 42.7849C3.08199 42.7659 3.15601 42.7271 3.23401 42.6641C3.26601 42.6411 3.31599 42.602 3.39099 42.543L3.47699 42.4839L4.492 41.707L4.80099 41.48L5.22299 41.1411L5.53101 40.9141L5.84799 40.637C5.85899 40.625 5.87501 40.6131 5.89801 40.5901C5.90601 40.5591 5.898 40.52 5.879 40.48C5.863 40.457 5.852 40.426 5.832 40.387C5.777 40.27 5.71499 40.16 5.64499 40.062C5.62099 40.023 5.59801 39.9841 5.56601 39.9341L5.793 39.781ZM5.336 46.438L5.52301 46.25C5.57401 46.273 5.62901 46.312 5.69101 46.355C5.81201 46.441 5.91799 46.5041 6.01199 46.5391C6.06999 46.5231 6.117 46.4999 6.16 46.4729C6.258 46.3949 6.39501 46.2659 6.56601 46.0859L7.55499 45.0349C7.65999 44.9259 7.92599 44.641 8.35199 44.176C8.46499 44.047 8.527 43.9651 8.543 43.9221C8.547 43.9061 8.547 43.891 8.543 43.875C8.531 43.832 8.49199 43.773 8.42599 43.699C8.39499 43.672 8.324 43.5861 8.211 43.4451L8.371 43.2661L8.93399 43.7771L9.76199 44.5161L9.85901 44.605C9.87901 44.621 9.898 44.6409 9.922 44.6599C9.938 44.6719 9.98 44.7149 10.047 44.7849L10.203 44.9341C10.328 45.0511 10.449 45.1989 10.555 45.3789C10.594 45.4379 10.633 45.5311 10.68 45.6521C10.723 45.7731 10.742 45.8951 10.742 46.0161C10.742 46.1411 10.719 46.258 10.672 46.363C10.625 46.473 10.559 46.5741 10.473 46.6641C10.379 46.7621 10.27 46.8319 10.152 46.8669C10.031 46.9059 9.89501 46.914 9.73801 46.895C9.66401 46.883 9.50399 46.8359 9.26999 46.7539C9.46099 47.0469 9.555 47.3281 9.543 47.6021C9.531 47.8751 9.43799 48.102 9.26199 48.281C9.15999 48.391 9.031 48.484 8.879 48.562C8.766 48.625 8.637 48.6561 8.492 48.6641C8.305 48.6761 8.13301 48.6559 7.98001 48.6089C7.82801 48.5619 7.64499 48.469 7.42999 48.324C7.32399 48.254 7.176 48.1289 6.992 47.9529L6.582 47.543C6.406 47.375 6.18799 47.1801 5.92999 46.9651C5.85899 46.9021 5.66 46.727 5.336 46.438ZM8.254 45.6599C8.309 45.7299 8.38299 45.809 8.47299 45.895C8.71899 46.129 8.945 46.2621 9.16 46.2891C9.371 46.3201 9.586 46.223 9.797 46C9.945 45.844 10.012 45.656 9.992 45.438C9.977 45.219 9.84401 44.9961 9.60501 44.7661C9.53501 44.6991 9.43799 44.625 9.30499 44.531C9.26999 44.57 9.21901 44.625 9.15601 44.699C9.03101 44.844 8.84801 45.043 8.60901 45.293L8.40601 45.4961C8.37101 45.5311 8.32 45.5859 8.254 45.6599ZM6.789 47.2581C6.855 47.4021 6.93401 47.52 7.02301 47.605C7.21101 47.785 7.39101 47.902 7.56201 47.957C7.73401 48.016 7.895 48.016 8.043 47.969C8.195 47.918 8.34401 47.8161 8.48801 47.6641C8.64101 47.5081 8.72999 47.3519 8.76199 47.2029C8.80499 46.9919 8.78899 46.809 8.71899 46.656C8.64499 46.5 8.492 46.3091 8.258 46.0901C8.156 45.9921 8.07801 45.93 8.02301 45.906L7.73401 46.207L7.383 46.5659L6.85199 47.1411C6.82799 47.1681 6.809 47.2071 6.789 47.2581ZM13.895 49.23L13.773 49.156C13.75 49.137 13.719 49.117 13.684 49.082C13.691 49.035 13.707 48.9651 13.734 48.8711L13.762 48.5979C13.777 48.4769 13.777 48.3521 13.762 48.2151C13.742 48.1841 13.688 48.1369 13.598 48.0659L12.988 47.5859L12.605 47.3279L12.441 47.219C12.406 47.234 12.375 47.2699 12.34 47.3159L11.43 48.625L11.297 48.801L11.191 48.9729L11.062 49.1841C11.027 49.2341 10.961 49.3161 10.871 49.4341C10.828 49.4881 10.789 49.535 10.762 49.574L10.617 49.8091L10.551 49.895C10.5 49.984 10.461 50.043 10.434 50.082C10.41 50.117 10.391 50.1561 10.383 50.1951C10.391 50.2151 10.434 50.27 10.516 50.363L10.59 50.449C10.633 50.504 10.668 50.5431 10.703 50.5701C10.762 50.6211 10.797 50.6641 10.805 50.6951C10.809 50.7271 10.793 50.7661 10.758 50.8201C10.703 50.8981 10.648 50.9221 10.594 50.8831C10.574 50.8671 10.496 50.8051 10.363 50.6951L10.219 50.5901L10.184 50.562C10.117 50.512 10.062 50.469 10.016 50.438L9.71899 50.238L9.32001 49.9609L8.93399 49.7109L8.82401 49.637C8.80501 49.625 8.79301 49.6089 8.78101 49.5859C8.80101 49.5549 8.81601 49.531 8.82401 49.52C8.84401 49.488 8.875 49.4529 8.91 49.4099C8.941 49.3979 9 49.418 9.086 49.449C9.129 49.469 9.18001 49.4841 9.23801 49.4961L9.371 49.531C9.473 49.562 9.53499 49.5741 9.55899 49.5701C9.58199 49.5701 9.62901 49.5271 9.69901 49.4451C9.77001 49.3711 9.81999 49.3119 9.84399 49.2729L10.246 48.6841L10.488 48.324L10.691 48.043L10.883 47.7661C10.984 47.6211 11.113 47.4221 11.277 47.1641L11.527 46.8159C11.574 46.7499 11.594 46.7031 11.59 46.6721C11.582 46.6451 11.543 46.6049 11.473 46.5549C11.445 46.5349 11.379 46.4729 11.27 46.3669C11.16 46.2579 11.102 46.1949 11.098 46.1799C11.098 46.1479 11.133 46.086 11.191 46C11.203 45.984 11.219 45.965 11.238 45.949L11.316 46C11.352 46.023 11.43 46.0861 11.551 46.1841L12.336 46.7771L13.434 47.5391L13.809 47.7891C14.059 47.9651 14.277 48.1371 14.461 48.3091C14.473 48.3631 14.453 48.4259 14.406 48.4919L13.895 49.23ZM14.707 48.3831C14.824 48.4381 14.922 48.4879 15.008 48.5349C15.164 48.6249 15.352 48.715 15.57 48.801C15.645 48.832 15.844 48.9021 16.16 49.0161C16.637 49.1841 17.062 49.3439 17.441 49.4919L18.016 49.7151C18.145 49.7661 18.328 49.855 18.566 49.988C18.586 50.043 18.582 50.1089 18.555 50.1799L18.297 50.8279L18.25 50.9609C18.246 50.9729 18.238 50.9921 18.227 51.0161L18.094 50.9729C18.078 50.9609 18.043 50.9491 17.988 50.9221C17.988 50.8751 17.984 50.801 17.988 50.707L17.949 50.4299C17.938 50.3119 17.906 50.1909 17.859 50.0549C17.812 50.0199 17.75 49.984 17.668 49.949C17.648 49.938 17.586 49.9099 17.48 49.8589C17.289 49.7659 17.082 49.672 16.855 49.582C16.602 49.48 16.367 49.3951 16.164 49.3201C16.145 49.3751 16.062 49.5819 15.918 49.9409L15.707 50.4651L15.551 50.863C15.602 50.891 15.645 50.91 15.684 50.926C16.055 51.074 16.328 51.1719 16.492 51.2229C16.656 51.2699 16.762 51.2891 16.812 51.2771C16.859 51.2661 16.91 51.2341 16.965 51.1841C17.004 51.1451 17.102 51.004 17.262 50.762L17.301 50.7771L17.488 50.8521C17.422 51.0431 17.367 51.184 17.332 51.281C17.242 51.504 17.184 51.645 17.156 51.707C17.129 51.77 17.109 51.8161 17.094 51.8521C17.074 51.9101 17.039 52.0039 16.996 52.1289C16.953 52.2579 16.918 52.3521 16.895 52.4141L16.867 52.48L16.641 52.3911C16.648 52.3551 16.66 52.281 16.676 52.168C16.711 51.953 16.723 51.8201 16.711 51.7581C16.699 51.7071 16.668 51.6641 16.617 51.6211C16.582 51.5901 16.426 51.5201 16.16 51.4141C15.84 51.2891 15.602 51.203 15.434 51.156C15.41 51.211 15.398 51.246 15.391 51.262C15.289 51.512 15.207 51.723 15.141 51.887L14.871 52.5659C14.84 52.6479 14.848 52.7111 14.895 52.7661C14.961 52.8441 15.219 52.9689 15.66 53.1479C15.953 53.2619 16.211 53.3399 16.434 53.3789C16.59 53.4019 16.742 53.3789 16.895 53.3159C17.094 53.2299 17.289 53.0819 17.484 52.8669C17.555 52.8869 17.609 52.9021 17.648 52.9221C17.672 52.9301 17.707 52.9451 17.754 52.9651C17.727 53.0161 17.703 53.0591 17.684 53.0901L17.629 53.1799L17.277 53.7271L17.078 54.0659C16.938 54.0199 16.828 53.9771 16.746 53.9451C16.629 53.8981 16.32 53.7661 15.816 53.5391C15.461 53.3831 15.031 53.2029 14.527 53.0039C14.273 52.9019 13.961 52.7891 13.582 52.6641L13.449 52.613L13.062 52.4729L13.152 52.2539C13.195 52.2619 13.277 52.281 13.402 52.312C13.633 52.375 13.797 52.402 13.895 52.395C13.941 52.34 13.984 52.27 14.02 52.176C14.035 52.141 14.059 52.0779 14.09 51.9919L14.133 51.895L14.594 50.7029L14.738 50.3479L14.926 49.8401L15.07 49.4839L15.199 49.082C15.203 49.07 15.207 49.0511 15.219 49.0161C15.207 48.9841 15.18 48.957 15.141 48.938C15.117 48.922 15.09 48.9019 15.055 48.8789C14.945 48.8089 14.836 48.746 14.727 48.699C14.688 48.68 14.645 48.6559 14.594 48.6289L14.707 48.3831ZM18.086 54.3789C18.098 54.3119 18.117 54.2301 18.148 54.1411H18.582C18.637 54.1411 18.699 54.1331 18.777 54.1211L18.969 53.293C19.012 52.992 19.047 52.7659 19.074 52.6169L19.09 52.5391C19.113 52.4491 19.156 52.2191 19.223 51.8521L19.23 51.7539L19.289 51.4729L19.332 51.1841L19.359 51.0391C19.383 50.9101 19.398 50.7579 19.41 50.5779C19.41 50.5619 19.406 50.5351 19.398 50.4961C19.383 50.4841 19.363 50.4769 19.344 50.4729C19.32 50.4609 19.301 50.457 19.277 50.449C19.195 50.418 19.102 50.3909 19.004 50.3669L18.957 50.344C18.898 50.328 18.852 50.309 18.824 50.293C18.828 50.227 18.832 50.188 18.836 50.168C18.84 50.141 18.852 50.105 18.875 50.062C18.922 50.062 18.984 50.062 19.062 50.082C19.145 50.094 19.199 50.102 19.23 50.105C19.5 50.184 19.699 50.234 19.832 50.262C19.891 50.27 19.953 50.2851 20.012 50.2971C20.074 50.3121 20.125 50.324 20.172 50.332C20.246 50.344 20.43 50.367 20.719 50.395C20.77 50.395 20.82 50.395 20.875 50.406C20.957 50.422 21.027 50.4379 21.082 50.4529C21.074 50.4999 21.07 50.5351 21.066 50.5591C21.062 50.5941 21.047 50.637 21.031 50.688L20.418 50.676C20.367 50.691 20.34 50.719 20.332 50.762L20.316 50.8831L20.309 50.938L20.281 51.082L20.254 51.1951L20.25 51.2229C20.25 51.2459 20.25 51.2699 20.246 51.2849L20.164 51.7109C20.164 51.7499 20.16 51.781 20.156 51.801C20.156 51.812 20.145 51.848 20.133 51.906C20.125 51.941 20.117 51.9771 20.109 52.0161C20.105 52.0471 20.094 52.1289 20.078 52.2539C20.137 52.2729 20.188 52.289 20.23 52.301L20.727 52.3979L20.965 52.4409L21.57 52.551L22.16 52.637C22.234 52.648 22.316 52.656 22.402 52.656C22.422 52.582 22.457 52.3951 22.512 52.1021L22.543 51.949L22.629 51.3789L22.637 51.1411C22.633 51.1251 22.617 51.1051 22.598 51.0901C22.527 51.0311 22.383 50.9569 22.168 50.8589C22.125 50.8439 22.09 50.8239 22.055 50.8049C22.074 50.7269 22.094 50.6639 22.113 50.6169C22.164 50.6289 22.195 50.6289 22.203 50.6289L22.527 50.688C22.727 50.754 22.934 50.8051 23.145 50.8401C23.195 50.8521 23.234 50.8549 23.262 50.8589L23.695 50.9221C23.734 50.9221 23.773 50.9301 23.812 50.9341C23.895 50.9341 23.977 50.9339 24.062 50.9529C24.125 50.9649 24.203 50.9799 24.293 51.0039C24.273 51.0899 24.254 51.168 24.234 51.238C24.023 51.246 23.887 51.2501 23.82 51.2581C23.754 51.2701 23.684 51.2809 23.613 51.3049L23.586 51.3669L23.574 51.4221L23.562 51.512L23.547 51.5549C23.535 51.5979 23.523 51.6369 23.52 51.6599L23.504 51.7419C23.492 51.8439 23.484 51.8979 23.484 51.9099L23.41 52.3359L23.359 52.656L23.273 53.0779C23.254 53.1759 23.219 53.3749 23.18 53.6799L23.094 54.1521L23.031 54.551C23.02 54.621 23 54.7109 22.977 54.8159C23.023 54.8359 23.062 54.8551 23.102 54.8711C23.305 54.9531 23.453 55.0271 23.551 55.0901L23.516 55.3279C23.426 55.3159 23.375 55.3049 23.359 55.3049C23.254 55.2849 23.133 55.258 22.996 55.219C22.816 55.168 22.523 55.1089 22.121 55.0349C21.938 55.0039 21.699 54.9769 21.406 54.9529C21.375 54.9409 21.336 54.9341 21.297 54.9141C21.316 54.8091 21.34 54.738 21.363 54.699L21.625 54.6841H21.898C21.926 54.6841 21.961 54.6721 22.004 54.6721C22.059 54.4961 22.125 54.1991 22.199 53.7771L22.266 53.4961C22.266 53.3751 22.281 53.2341 22.312 53.0701C22.23 53.0471 22.141 53.0271 22.047 53.0081L20.5 52.7229L20.469 52.7109L20.445 52.7029C20.434 52.7029 20.414 52.7029 20.395 52.6909C20.336 52.6799 20.285 52.676 20.246 52.668L20.152 52.6521C20.109 52.6411 20.062 52.6411 20.004 52.6521L19.949 52.8979L19.941 52.9409C19.934 53.0039 19.93 53.043 19.926 53.062L19.742 54.094C19.734 54.152 19.727 54.2149 19.719 54.2729L19.746 54.301L20.23 54.4651C20.254 54.4771 20.273 54.4879 20.285 54.4919C20.312 54.4999 20.336 54.5159 20.355 54.5349C20.352 54.5859 20.348 54.6211 20.348 54.6411C20.34 54.6681 20.328 54.7071 20.312 54.7581C20.23 54.7461 20.164 54.7339 20.105 54.7229C20.059 54.7149 20.012 54.7071 19.969 54.6951C19.949 54.6951 19.93 54.6839 19.914 54.6799L19.445 54.5779C19.336 54.5509 19.18 54.516 18.977 54.48L18.906 54.4729C18.812 54.4609 18.758 54.4529 18.742 54.4529C18.598 54.4409 18.379 54.418 18.086 54.363V54.3789ZM26.195 54.199C27.281 52.883 27.992 52 28.32 51.543C28.309 51.379 28.293 51.2811 28.277 51.2581C28.266 51.2341 28.227 51.2071 28.16 51.1841C28.094 51.1601 27.969 51.133 27.781 51.105C27.691 51.094 27.633 51.082 27.605 51.074C27.602 50.988 27.605 50.9219 27.613 50.8789L27.711 50.8669C27.898 50.8479 28.023 50.84 28.09 50.844C28.27 50.852 28.449 50.844 28.625 50.832C28.914 50.805 29.18 50.7701 29.414 50.7271C29.504 50.7111 29.57 50.6991 29.625 50.6951C29.672 50.6951 29.746 50.6841 29.84 50.6841C29.844 50.7731 29.844 50.855 29.844 50.926C29.59 51 29.426 51.0589 29.348 51.0979C29.27 51.1369 29.234 51.199 29.242 51.281L29.285 51.7729L29.355 52.5229L29.387 52.9529L29.449 53.5591L29.492 54.0391L29.531 54.4341C29.539 54.5121 29.547 54.605 29.551 54.707C29.598 54.715 29.645 54.7231 29.684 54.7271C29.898 54.7541 30.066 54.785 30.176 54.824L30.211 55.0659L30.062 55.082C30.027 55.082 29.98 55.082 29.93 55.082L29.676 55.0901C29.488 55.0901 29.191 55.102 28.785 55.137C28.578 55.156 28.422 55.1759 28.312 55.2029C28.172 55.2299 28.086 55.25 28.055 55.25C28.031 55.25 27.996 55.25 27.949 55.238C27.941 55.129 27.941 55.0551 27.949 55.0161L28.172 54.9409L28.305 54.906C28.445 54.871 28.535 54.844 28.578 54.824C28.59 54.652 28.57 54.2541 28.516 53.6211L28.426 52.6211L28.375 51.988L26.234 54.6411C26.262 54.8911 26.277 55.02 26.281 55.031C26.297 55.047 26.336 55.0509 26.402 55.0549L26.625 55.0659C26.824 55.0859 26.934 55.1019 26.957 55.1169C26.969 55.1679 26.977 55.2029 26.977 55.2229C26.98 55.2499 26.98 55.293 26.977 55.344L26.766 55.3669C26.68 55.3789 26.559 55.3789 26.398 55.3789L26.145 55.3979H25.969L25.66 55.4141C25.559 55.4261 25.441 55.441 25.297 55.469C25.152 55.492 24.961 55.5161 24.719 55.5391C24.711 55.4691 24.711 55.387 24.719 55.293C24.738 55.285 24.781 55.277 24.855 55.262L25 55.2229C25.141 55.1879 25.246 55.148 25.316 55.113C25.301 54.688 25.281 54.3121 25.254 53.9961L25.211 53.5471L25.121 52.4021C25.094 52.0591 25.055 51.766 25.008 51.52C25.004 51.508 24.992 51.48 24.977 51.449C24.965 51.441 24.941 51.4409 24.914 51.4409C24.895 51.4379 24.871 51.4409 24.848 51.4409C24.742 51.4299 24.645 51.4299 24.559 51.4299L24.508 51.418C24.441 51.418 24.395 51.41 24.363 51.406C24.352 51.344 24.344 51.301 24.344 51.281C24.344 51.258 24.344 51.2191 24.355 51.1721C24.402 51.1561 24.457 51.1481 24.516 51.1411C24.68 51.1291 24.875 51.1211 25.098 51.1211C25.297 51.1211 25.465 51.1091 25.598 51.1021C25.781 51.0861 25.949 51.0619 26.102 51.0349C26.293 50.9959 26.402 50.9769 26.438 50.9729C26.48 50.9729 26.535 50.9729 26.602 50.9729L26.613 51.074C26.617 51.109 26.617 51.152 26.613 51.207L26.023 51.3521C25.988 51.3631 25.977 51.4141 25.977 51.5161C25.98 51.6171 25.984 51.7379 26 51.8789L26.016 52.0391L26.039 52.344L26.059 52.5161L26.066 52.75C26.07 52.777 26.078 52.832 26.09 52.906C26.102 53.008 26.113 53.109 26.121 53.207C26.129 53.289 26.133 53.371 26.137 53.449L26.141 53.6289L26.195 54.199ZM34.871 53.6841C34.887 53.7271 34.898 53.758 34.906 53.781C34.91 53.801 34.918 53.8361 34.926 53.8911C34.711 53.9451 34.504 53.988 34.301 54.02L34.168 54.051L34.055 54.0659C33.957 54.0859 33.879 54.1019 33.82 54.1169C33.73 54.1409 33.453 54.2301 32.996 54.3911L32.863 54.418C32.844 54.418 32.816 54.4299 32.781 54.4409C32.758 54.3979 32.73 54.3159 32.703 54.2029C32.723 54.1839 32.797 54.145 32.926 54.082C33.113 53.988 33.25 53.8979 33.332 53.8159L33.156 53.207L32.996 52.5591L32.93 52.344L32.91 52.2539L32.676 52.3091C32.539 52.3441 32.445 52.383 32.395 52.426C32.348 52.473 32.312 52.5309 32.285 52.6089C32.262 52.6879 32.207 52.902 32.121 53.262C32.035 53.617 31.973 53.93 31.926 54.199L31.84 54.6841L31.48 54.7461L30.602 55.0039L30.559 55.0161L30.418 55.051C30.406 55.02 30.402 54.9961 30.395 54.9771C30.387 54.9491 30.387 54.914 30.395 54.875C30.441 54.844 30.508 54.8011 30.594 54.7461C30.703 54.6801 30.777 54.5939 30.824 54.4919C30.871 54.3909 30.973 54.086 31.121 53.574C31.309 52.938 31.453 52.5701 31.555 52.4651C30.871 52.4651 30.465 52.203 30.332 51.688C30.25 51.371 30.305 51.0701 30.5 50.7971C30.691 50.5201 31.094 50.305 31.707 50.145C31.887 50.098 32.055 50.066 32.215 50.043C32.422 50.008 32.668 49.9571 32.945 49.8831L33.07 49.8479L33.191 49.8159C33.461 49.7459 33.664 49.7031 33.801 49.6951C33.812 49.7111 33.82 49.7231 33.82 49.7271L33.84 49.8091C33.855 49.8751 33.863 49.9101 33.863 49.9221C33.824 49.9411 33.762 49.9651 33.672 49.9961C33.535 50.0431 33.422 50.0901 33.332 50.1331C33.352 50.2621 33.422 50.5511 33.535 50.9961L33.773 51.8521L33.848 52.1599L33.984 52.625L34.055 52.9099C34.172 53.3629 34.246 53.625 34.277 53.688C34.363 53.695 34.477 53.695 34.617 53.676C34.73 53.664 34.816 53.664 34.871 53.676V53.6841ZM32.84 51.9451L32.746 51.613L32.703 51.4651L32.617 51.105L32.539 50.8401L32.41 50.3359C32.348 50.3359 32.254 50.355 32.137 50.387C31.801 50.473 31.57 50.6021 31.449 50.7661C31.324 50.9301 31.301 51.1639 31.379 51.4609C31.449 51.7299 31.582 51.9141 31.781 52.0081C31.977 52.1021 32.254 52.1021 32.609 52.0081L32.84 51.9451ZM38.461 47.469C38.516 47.516 38.66 47.656 38.891 47.895C38.996 48 39.086 48.129 39.168 48.27L38.895 48.4141C38.555 48.2461 38.254 48.1601 37.988 48.1521C37.723 48.1411 37.461 48.2071 37.211 48.3401C36.902 48.5081 36.715 48.762 36.656 49.105C36.574 49.566 36.688 50.094 37 50.676C37.184 51.012 37.336 51.242 37.457 51.363C37.652 51.555 37.844 51.6989 38.035 51.7849C38.18 51.8519 38.336 51.883 38.504 51.875C38.73 51.875 38.941 51.812 39.141 51.707C39.359 51.59 39.535 51.4059 39.668 51.1599C39.797 50.9139 39.887 50.6049 39.926 50.2339C39.992 50.1799 40.086 50.1209 40.203 50.0549C40.234 50.1369 40.266 50.219 40.293 50.312C40.301 50.348 40.348 50.4841 40.426 50.7271L40.449 50.832L40.484 50.9919C40.41 51.1519 40.277 51.316 40.082 51.48C39.887 51.645 39.629 51.816 39.309 51.988C39.062 52.117 38.82 52.223 38.578 52.293C38.332 52.363 38.105 52.391 37.898 52.375C37.594 52.352 37.332 52.2931 37.113 52.1951C36.895 52.0981 36.699 51.9689 36.531 51.8049C36.363 51.6409 36.211 51.4379 36.078 51.1909C35.762 50.5979 35.695 50.004 35.879 49.406C36.062 48.809 36.461 48.3479 37.066 48.0229C37.316 47.8909 37.555 47.7771 37.789 47.6841C38.02 47.5941 38.242 47.52 38.461 47.469ZM40.918 51.0901L40.781 50.8979C40.809 50.8629 40.855 50.805 40.93 50.719C41.047 50.586 41.109 50.4959 41.125 50.4529C41.137 50.4099 41.133 50.332 41.113 50.219L40.551 48.3789L39.883 46.219C39.945 46.172 40 46.1289 40.055 46.0859L40.18 45.9919L40.242 46.0229L41.562 46.762C41.852 46.914 42.121 47.0701 42.379 47.2271C42.633 47.3791 42.844 47.5039 43.016 47.5979C43.113 47.6519 43.262 47.7419 43.457 47.8589C43.559 47.9259 43.695 48.0041 43.867 48.0901C43.965 48.1371 44.023 48.16 44.051 48.156C44.105 48.156 44.172 48.1369 44.25 48.0859C44.332 48.0389 44.426 47.9961 44.535 47.9651C44.59 48.0161 44.629 48.0589 44.652 48.0859C44.664 48.0979 44.676 48.1209 44.695 48.1479C44.562 48.2499 44.414 48.359 44.246 48.469C44.074 48.582 43.93 48.6839 43.801 48.7849C43.66 48.8949 43.559 48.9771 43.5 49.0271L43.062 49.4021L42.934 49.512C42.887 49.449 42.84 49.387 42.805 49.324L43.051 49.031C43.121 48.938 43.16 48.879 43.164 48.855C43.168 48.824 43.164 48.7969 43.145 48.7729C43.125 48.7499 43.102 48.7299 43.074 48.7109L42.762 48.531L42.145 48.1721L41.121 48.969C41.148 49.082 41.234 49.3521 41.375 49.7771C41.414 49.8981 41.445 49.9771 41.473 50.0081C41.508 50.0551 41.547 50.0779 41.586 50.0779C41.652 50.0779 41.75 50.043 41.879 49.969C41.898 49.957 41.969 49.9179 42.09 49.8479C42.145 49.9099 42.18 49.953 42.199 49.98C42.211 50 42.227 50.02 42.238 50.043C42.129 50.129 41.852 50.3241 41.414 50.6211L41.32 50.7229C41.203 50.8479 41.09 50.957 40.969 51.051L40.918 51.0901ZM41.008 48.6021C41.43 48.2811 41.676 48.0939 41.75 48.0349L41.816 47.98C41.641 47.863 41.426 47.7299 41.176 47.5859C40.926 47.4409 40.727 47.3361 40.59 47.2661L41.008 48.6021ZM41.629 45.2661L41.438 45.0859L42.027 44.5271L42.27 44.2581L42.359 44.1599C42.453 44.0589 42.59 43.895 42.777 43.668C42.883 43.539 42.949 43.457 42.98 43.426C43.172 43.215 43.332 43.0659 43.449 42.9839C43.633 42.8519 43.809 42.7729 43.969 42.7419C44.129 42.7149 44.309 42.7299 44.508 42.7849C44.711 42.8439 44.867 42.926 44.984 43.031C45.273 43.301 45.426 43.609 45.438 43.957C45.449 44.305 45.328 44.6209 45.07 44.8979C44.98 44.9959 44.883 45.078 44.781 45.145C44.676 45.211 44.566 45.2621 44.449 45.2971C44.395 45.2621 44.324 45.203 44.238 45.125C44.281 45.09 44.316 45.0549 44.348 45.0229C44.379 44.9919 44.406 44.965 44.43 44.938C44.562 44.793 44.633 44.637 44.645 44.469C44.66 44.246 44.555 44.0269 44.324 43.8159C44.16 43.6639 44 43.5661 43.844 43.5271C43.688 43.4881 43.555 43.4881 43.445 43.5271C43.297 43.5901 43.16 43.6881 43.035 43.8201C42.922 43.9451 42.855 44.0551 42.844 44.1411C42.855 44.1721 42.867 44.1991 42.883 44.2271L44.078 45.293L44.172 45.3911L44.281 45.48C44.305 45.504 44.34 45.535 44.383 45.574L44.59 45.7661L44.922 46.062L45.312 46.4221C45.367 46.4731 45.445 46.5349 45.543 46.6169L46.066 46.1721C46.113 46.2031 46.148 46.227 46.172 46.25C46.199 46.273 46.23 46.3089 46.266 46.3589C46.234 46.4059 46.207 46.4409 46.188 46.4609C46.141 46.5159 46.047 46.605 45.902 46.738C45.758 46.871 45.602 47.0269 45.434 47.2109C45.242 47.4179 45.074 47.6249 44.93 47.8359C44.906 47.8709 44.863 47.9261 44.805 47.9961C44.75 47.9571 44.711 47.926 44.688 47.906C44.672 47.891 44.652 47.8669 44.621 47.8359L44.711 47.637C44.777 47.504 44.82 47.379 44.848 47.262C44.812 47.203 44.773 47.1519 44.734 47.1169C44.719 47.1019 44.699 47.0859 44.676 47.0659C44.621 47.0199 44.551 46.9571 44.457 46.8711L43.746 46.23L42.934 45.5271C42.547 45.1951 42.336 45.0161 42.297 44.9961C42.238 44.9611 42.184 44.945 42.129 44.949C42.078 44.949 42.012 44.9841 41.941 45.0391C41.789 45.1521 41.688 45.2271 41.629 45.2581V45.2661Z" fill="#565757"/>
<path fill-rule="evenodd" clip-rule="evenodd" d="M46.797 41.5081C46.961 41.3751 47.152 41.2929 47.367 41.2539C47.586 41.2149 47.918 41.2109 48.363 41.2419C48.883 41.2809 49.234 41.2849 49.418 41.2419C49.598 41.2029 49.777 41.1131 49.953 40.9651C50.02 40.9061 50.062 40.875 50.086 40.863C50.121 40.883 50.148 40.8979 50.168 40.9099C50.188 40.9259 50.219 40.9529 50.262 40.9919L50.047 41.2971L49.746 41.7151C49.676 41.8201 49.586 41.9689 49.48 42.1479C49.145 42.1049 48.699 42.0659 48.137 42.0349C47.574 42.0039 47.215 42.0159 47.062 42.0779C46.91 42.1369 46.797 42.227 46.715 42.344C46.781 42.398 46.84 42.4449 46.898 42.4839L47.297 42.73C47.375 42.781 47.453 42.8279 47.523 42.8789L47.859 43.1089L47.961 43.1721L48.16 43.2971C48.23 43.2851 48.332 43.2231 48.473 43.1021C48.551 43.0311 48.629 42.98 48.707 42.949C48.746 42.969 48.777 42.9801 48.793 42.9961C48.809 43.0041 48.832 43.0231 48.859 43.0471C48.805 43.1331 48.762 43.2031 48.727 43.2581C48.633 43.3951 48.523 43.5429 48.402 43.7029L48.266 43.8831L48.102 44.145L47.766 44.637L47.594 44.9099L47.438 44.8091C47.434 44.7811 47.457 44.6719 47.504 44.4729L47.523 44.3789C47.543 44.2699 47.555 44.1991 47.566 44.1641C47.57 44.1131 47.555 44.0661 47.523 44.0271C47.492 43.9921 47.348 43.8871 47.098 43.7151L46.82 43.543L46.227 43.1411L45.805 42.855L45.684 42.77L45.316 42.531L45.18 42.426C44.961 42.277 44.805 42.191 44.711 42.168C44.621 42.195 44.5 42.277 44.348 42.418C44.254 42.5 44.184 42.5511 44.133 42.5701L43.973 42.4299C43.988 42.3909 44.012 42.352 44.039 42.312C44.129 42.176 44.23 42.0471 44.34 41.9221C44.449 41.7971 44.578 41.6249 44.719 41.4099L45.012 40.9409C45.047 40.8909 45.086 40.8159 45.141 40.7229L45.195 40.6169L45.246 40.551C45.266 40.551 45.289 40.566 45.316 40.582C45.379 40.629 45.418 40.656 45.434 40.676C45.402 40.82 45.355 40.957 45.293 41.094C45.246 41.199 45.223 41.2661 45.223 41.2971C45.223 41.3321 45.25 41.3629 45.301 41.3979C45.488 41.5269 45.613 41.605 45.676 41.645L45.918 41.7971L46.094 41.926L46.309 42.0701L46.547 42.2339C46.586 42.1019 46.605 41.957 46.598 41.801C46.594 41.645 46.512 41.398 46.355 41.062C46.082 40.477 45.941 40.0511 45.945 39.7771C45.945 39.5081 46.008 39.2771 46.133 39.0901C46.262 38.9021 46.406 38.7931 46.566 38.7581C46.727 38.7231 46.875 38.7461 47.004 38.8401C47.102 38.9061 47.168 38.992 47.203 39.105C47.234 39.215 47.219 39.3241 47.145 39.4341C47.09 39.5161 47.027 39.566 46.961 39.594C46.895 39.617 46.789 39.6331 46.645 39.6331C46.496 39.6331 46.402 39.6679 46.355 39.7339C46.25 39.8909 46.324 40.2381 46.582 40.7771C46.73 41.0901 46.801 41.3319 46.797 41.5039V41.5081ZM50.102 38.2971C49.355 36.7621 48.844 35.75 48.57 35.262C48.41 35.207 48.316 35.1799 48.289 35.1799C48.262 35.1799 48.223 35.2071 48.172 35.2581C48.121 35.3091 48.047 35.4101 47.945 35.5701C47.895 35.6481 47.863 35.695 47.84 35.719C47.762 35.688 47.707 35.6559 47.668 35.6289L47.695 35.5391C47.758 35.3591 47.805 35.2421 47.832 35.1841C47.914 35.0231 47.984 34.855 48.043 34.688C48.141 34.414 48.219 34.16 48.277 33.926C48.297 33.84 48.316 33.7729 48.332 33.7229C48.352 33.6759 48.379 33.6091 48.414 33.5271C48.5 33.5591 48.574 33.5901 48.637 33.6211C48.602 33.8831 48.586 34.059 48.59 34.145C48.594 34.23 48.633 34.2889 48.711 34.3159L49.176 34.48L49.887 34.7271L50.289 34.8789L50.867 35.0701L51.324 35.2339L51.703 35.3589C51.777 35.3869 51.859 35.418 51.953 35.457C51.984 35.418 52.008 35.379 52.031 35.344C52.145 35.156 52.242 35.0201 52.324 34.9341L52.555 35.0039L52.512 35.145C52.496 35.18 52.48 35.2191 52.461 35.2661L52.359 35.5C52.281 35.672 52.172 35.945 52.035 36.332C51.965 36.527 51.918 36.6801 51.895 36.7891C51.863 36.9301 51.844 37.016 51.836 37.043C51.824 37.066 51.809 37.0981 51.781 37.1331C51.68 37.0941 51.609 37.066 51.574 37.043L51.602 36.8049L51.625 36.6721C51.648 36.5311 51.664 36.4381 51.664 36.3911C51.516 36.3091 51.141 36.1601 50.543 35.9451L49.594 35.6169L49 35.3979L50.523 38.4451C50.762 38.5271 50.887 38.5659 50.898 38.5659C50.918 38.5549 50.941 38.5231 50.969 38.4651L51.074 38.2661C51.176 38.0941 51.234 37.9999 51.258 37.9839C51.309 37.9959 51.344 38.004 51.363 38.012C51.391 38.02 51.426 38.0389 51.473 38.0659L51.406 38.2661C51.375 38.3481 51.328 38.4571 51.266 38.6021L51.176 38.844L51.105 39.0039L50.992 39.293C50.961 39.387 50.926 39.504 50.891 39.645C50.855 39.785 50.797 39.9729 50.715 40.2029C50.648 40.1759 50.574 40.1451 50.492 40.1021C50.496 40.0821 50.504 40.0349 50.523 39.9609L50.547 39.812C50.57 39.668 50.582 39.559 50.578 39.48C50.184 39.316 49.832 39.18 49.535 39.074L49.109 38.926L48.031 38.531C47.707 38.418 47.422 38.328 47.176 38.27C47.164 38.27 47.137 38.27 47.102 38.27C47.09 38.281 47.078 38.297 47.07 38.324C47.059 38.34 47.047 38.3589 47.035 38.3789C46.984 38.4729 46.941 38.5621 46.91 38.6411L46.879 38.6841C46.852 38.7421 46.828 38.7809 46.809 38.8049C46.742 38.7929 46.703 38.7809 46.688 38.7729C46.66 38.7659 46.629 38.746 46.59 38.719C46.598 38.668 46.609 38.617 46.629 38.562C46.684 38.406 46.758 38.2229 46.852 38.0229C46.934 37.8399 46.996 37.684 47.043 37.562C47.105 37.387 47.152 37.2231 47.188 37.0701C47.234 36.8831 47.262 36.7729 47.273 36.7419C47.289 36.6989 47.312 36.652 47.344 36.594L47.441 36.6211C47.473 36.6331 47.516 36.6519 47.559 36.6799L47.449 37.2771C47.441 37.3091 47.484 37.348 47.582 37.387C47.672 37.426 47.785 37.4691 47.918 37.5161L48.07 37.5659L48.355 37.6721L48.523 37.7271L48.738 37.8159C48.766 37.8239 48.816 37.84 48.891 37.863C48.988 37.891 49.086 37.922 49.18 37.957C49.254 37.984 49.332 38.012 49.406 38.043L49.57 38.113L50.102 38.2971ZM49.043 29.8911C49.113 29.8751 49.316 29.848 49.645 29.812C49.793 29.793 49.949 29.801 50.109 29.824L50.059 30.1289C49.719 30.2929 49.465 30.4771 49.293 30.6841C49.121 30.8871 49.016 31.1289 48.965 31.4099C48.906 31.7579 48.996 32.0621 49.23 32.3201C49.547 32.6681 50.031 32.8981 50.684 33.0081C51.062 33.0701 51.336 33.0901 51.504 33.0701C51.777 33.0351 52.008 32.969 52.195 32.875C52.336 32.801 52.453 32.6949 52.551 32.5549C52.688 32.3749 52.773 32.172 52.809 31.949C52.852 31.703 52.816 31.453 52.703 31.199C52.586 30.945 52.395 30.688 52.129 30.426C52.125 30.34 52.137 30.2299 52.156 30.0979C52.238 30.1209 52.324 30.1481 52.414 30.1841C52.445 30.1991 52.586 30.246 52.824 30.332L52.918 30.3789L53.07 30.4529C53.152 30.6049 53.199 30.8089 53.207 31.0659C53.219 31.3199 53.195 31.629 53.133 31.988C53.09 32.262 53.02 32.5199 52.926 32.7539C52.836 32.9879 52.719 33.1841 52.578 33.3401C52.375 33.5661 52.164 33.7381 51.953 33.8521C51.742 33.9651 51.52 34.0391 51.289 34.0701C51.055 34.1051 50.801 34.098 50.527 34.051C49.863 33.941 49.352 33.6289 48.992 33.1169C48.637 32.6049 48.512 32.0079 48.629 31.3279C48.676 31.0509 48.73 30.7929 48.801 30.5549C48.871 30.3159 48.949 30.0941 49.043 29.8911ZM53.23 25.4961C53.273 25.4961 53.309 25.4839 53.332 25.4839C53.352 25.4839 53.391 25.4841 53.445 25.4961C53.441 25.7151 53.43 25.9261 53.406 26.1331L53.398 26.27L53.387 26.3831C53.383 26.4801 53.375 26.562 53.375 26.625C53.375 26.715 53.391 27.0039 53.426 27.4919L53.414 27.6211C53.414 27.6451 53.414 27.6719 53.418 27.7109C53.367 27.7229 53.285 27.7271 53.168 27.7271C53.152 27.6991 53.133 27.6171 53.105 27.4771C53.066 27.2701 53.016 27.1171 52.957 27.0161L52.324 27.0271L51.656 27.012L51.43 27.02H51.34L51.328 27.262C51.328 27.406 51.344 27.504 51.371 27.562C51.402 27.621 51.453 27.6721 51.52 27.7151C51.586 27.7621 51.781 27.8711 52.105 28.0471C52.426 28.2231 52.715 28.367 52.961 28.48L53.406 28.688L53.371 29.051L53.391 29.969V30.0161L53.387 30.156C53.355 30.156 53.332 30.156 53.312 30.156C53.281 30.156 53.246 30.1481 53.211 30.1331C53.191 30.0821 53.168 30.004 53.141 29.906C53.102 29.785 53.043 29.6909 52.957 29.6169C52.871 29.5469 52.602 29.3711 52.145 29.0901C51.582 28.7461 51.266 28.5121 51.191 28.3831C51.008 29.0431 50.652 29.3669 50.121 29.3589C49.789 29.3589 49.52 29.227 49.301 28.969C49.086 28.711 48.98 28.2661 48.988 27.6331C48.992 27.4451 49.004 27.273 49.023 27.113C49.047 26.906 49.059 26.6559 49.062 26.3669L49.059 26.2339V26.113C49.059 25.832 49.074 25.6249 49.098 25.4919C49.121 25.4839 49.133 25.4839 49.137 25.4839H49.223C49.289 25.4839 49.328 25.4839 49.336 25.4919C49.344 25.5349 49.352 25.6021 49.355 25.6951C49.367 25.8401 49.383 25.9611 49.402 26.0591C49.531 26.0741 49.828 26.0819 50.285 26.0859L51.18 26.0779L51.492 26.0859L51.977 26.0779L52.27 26.0859C52.738 26.0979 53.008 26.086 53.078 26.074C53.113 25.992 53.137 25.8831 53.156 25.7461C53.176 25.6291 53.199 25.5471 53.23 25.4961ZM51.02 27.0039H50.523L50.156 26.9961H49.879L49.355 26.9839C49.344 27.0469 49.336 27.141 49.336 27.262C49.332 27.609 49.391 27.8631 49.52 28.0271C49.648 28.1881 49.863 28.2699 50.172 28.2729C50.453 28.2729 50.664 28.195 50.805 28.031C50.949 27.863 51.02 27.598 51.023 27.23L51.02 27.0039ZM53.48 25.0081C53.414 25.0231 53.336 25.0351 53.238 25.0391L53.074 24.6411C53.051 24.5941 53.02 24.535 52.98 24.469L52.141 24.613C51.848 24.688 51.625 24.7421 51.477 24.7771L51.398 24.7891C51.305 24.8051 51.078 24.8521 50.711 24.9341L50.617 24.9651L50.34 25.02L50.055 25.0901L49.91 25.1211C49.781 25.1521 49.633 25.195 49.469 25.25C49.453 25.262 49.426 25.273 49.395 25.293C49.391 25.316 49.391 25.336 49.395 25.355C49.395 25.379 49.398 25.402 49.398 25.426C49.402 25.516 49.414 25.6089 49.43 25.7109L49.426 25.762C49.434 25.824 49.434 25.871 49.43 25.906C49.367 25.926 49.328 25.9379 49.312 25.9409C49.285 25.9529 49.246 25.9529 49.199 25.9409C49.18 25.9019 49.16 25.84 49.141 25.762C49.125 25.68 49.109 25.625 49.102 25.594C49.07 25.32 49.039 25.1129 49.012 24.9839C49 24.9259 48.988 24.863 48.977 24.801C48.965 24.742 48.957 24.6881 48.945 24.6411C48.93 24.5661 48.879 24.391 48.793 24.113C48.773 24.066 48.758 24.0201 48.742 23.9651C48.727 23.8831 48.715 23.8119 48.707 23.7539C48.754 23.7419 48.789 23.734 48.809 23.73C48.844 23.719 48.891 23.7151 48.945 23.7151L49.168 24.2849C49.199 24.3239 49.238 24.3399 49.281 24.3279L49.402 24.2971L49.453 24.281L49.598 24.2539L49.711 24.23L49.738 24.2229C49.762 24.2109 49.781 24.203 49.801 24.199L50.219 24.113C50.258 24.098 50.289 24.0899 50.309 24.0859C50.32 24.0859 50.355 24.0739 50.414 24.0659C50.449 24.0549 50.484 24.051 50.523 24.043C50.559 24.035 50.633 24.0159 50.758 23.9839C50.754 23.9179 50.746 23.867 50.742 23.824L50.641 23.3279L50.586 23.0901L50.453 22.4919L50.309 21.9141C50.289 21.8401 50.266 21.7619 50.23 21.6799C50.152 21.6949 49.969 21.7341 49.676 21.7971L49.523 21.824L48.965 21.9651L48.742 22.051C48.73 22.062 48.719 22.082 48.711 22.105C48.684 22.191 48.668 22.355 48.664 22.594C48.664 22.637 48.66 22.68 48.656 22.719C48.578 22.73 48.512 22.7379 48.461 22.7339C48.445 22.6879 48.438 22.6559 48.438 22.6479L48.367 22.3279C48.352 22.1169 48.316 21.91 48.27 21.699C48.258 21.648 48.25 21.6129 48.238 21.5859L48.133 21.1599C48.121 21.1209 48.109 21.0821 48.098 21.0471C48.062 20.9731 48.039 20.8911 48.02 20.8091C48.004 20.7461 47.992 20.6679 47.977 20.5779C48.062 20.5589 48.145 20.5471 48.215 20.5391C48.301 20.7301 48.363 20.8551 48.395 20.9141C48.426 20.9731 48.469 21.0309 48.516 21.0859H48.586L48.641 21.074L48.727 21.0549L48.77 21.0471C48.82 21.0471 48.855 21.035 48.879 21.031L48.961 21.012C49.059 20.984 49.113 20.969 49.125 20.969L49.547 20.8711L49.863 20.793L50.285 20.7109C50.383 20.6909 50.578 20.6449 50.875 20.5659L51.344 20.4609L51.734 20.363C51.805 20.348 51.895 20.332 52 20.312C52.004 20.262 52.004 20.219 52.004 20.176C52 19.961 52.012 19.793 52.035 19.676L52.266 19.6169C52.289 19.7069 52.301 19.7579 52.305 19.7729C52.328 19.8789 52.348 20.0001 52.367 20.1411C52.391 20.3241 52.445 20.617 52.535 21.02C52.578 21.199 52.645 21.4299 52.734 21.7109C52.742 21.7419 52.742 21.7809 52.738 21.8279C52.637 21.8479 52.562 21.8549 52.516 21.8479L52.398 21.613L52.297 21.3589C52.285 21.3359 52.27 21.3011 52.246 21.2661C52.062 21.2811 51.762 21.3359 51.348 21.4299L51.062 21.48C50.953 21.523 50.812 21.5621 50.652 21.6021C50.66 21.6841 50.676 21.7729 50.695 21.8669L51.027 23.406L51.031 23.438L51.035 23.4609C51.035 23.4769 51.043 23.492 51.051 23.512C51.062 23.566 51.078 23.617 51.086 23.656L51.105 23.75C51.117 23.789 51.133 23.836 51.16 23.887L51.41 23.844L51.453 23.8359C51.512 23.8159 51.551 23.805 51.566 23.801L52.59 23.5701C52.648 23.5591 52.707 23.5429 52.766 23.5229L52.777 23.488L52.742 22.98C52.746 22.953 52.746 22.934 52.746 22.918C52.746 22.887 52.75 22.8631 52.762 22.8401C52.809 22.8201 52.844 22.8089 52.859 22.8049C52.891 22.7969 52.93 22.797 52.98 22.793C53.004 22.871 53.02 22.9381 53.031 22.9961C53.043 23.0431 53.051 23.0901 53.059 23.1331C53.062 23.1521 53.066 23.172 53.066 23.188L53.156 23.6599C53.168 23.7729 53.199 23.9299 53.242 24.1289L53.262 24.199C53.289 24.289 53.305 24.3439 53.309 24.3589C53.359 24.4919 53.418 24.7031 53.48 24.9961V25.0081Z" fill="#565757"/>
<path fill-rule="evenodd" clip-rule="evenodd" d="M2.47299 13.4962L2.26599 13.3402L2.797 12.7271L3.01599 12.4381L3.09399 12.3321C3.17599 12.2191 3.301 12.0431 3.465 11.8011C3.559 11.6601 3.61699 11.5741 3.64499 11.5391C3.81599 11.3121 3.95701 11.152 4.07001 11.055C4.23801 10.906 4.40201 10.8092 4.56201 10.7662C4.71901 10.7232 4.90201 10.7191 5.10501 10.7581C5.30901 10.7931 5.47299 10.8591 5.60199 10.9571C5.91399 11.1951 6.09399 11.488 6.14099 11.836C6.18799 12.18 6.09401 12.5042 5.86301 12.8092C5.78501 12.9142 5.69499 13.004 5.59799 13.078C5.50399 13.156 5.398 13.215 5.285 13.262C5.227 13.23 5.14799 13.1801 5.05899 13.1131C5.09399 13.0701 5.12901 13.0351 5.15601 13.0001C5.18401 12.9651 5.21101 12.9341 5.23001 12.9061C5.34801 12.7501 5.40601 12.5901 5.39801 12.4181C5.39501 12.1951 5.26999 11.9882 5.01999 11.7972C4.83999 11.6642 4.67199 11.5822 4.51199 11.5592C4.35199 11.5312 4.219 11.5471 4.117 11.6021C3.973 11.6761 3.84801 11.7852 3.73801 11.9342C3.63301 12.0702 3.57801 12.1841 3.57401 12.2701C3.59001 12.3011 3.605 12.3241 3.621 12.3521L4.914 13.2972L5.01599 13.387L5.133 13.4691C5.16 13.4841 5.195 13.5161 5.246 13.5511L5.46899 13.7191L5.82401 13.9881L6.25 14.305C6.309 14.348 6.391 14.4061 6.496 14.4801L6.98001 13.984C7.02701 14.012 7.066 14.0311 7.09 14.0511C7.117 14.0701 7.15201 14.1052 7.19501 14.1522C7.16401 14.2032 7.145 14.238 7.125 14.262C7.082 14.316 6.996 14.4181 6.867 14.5621C6.734 14.7071 6.59801 14.879 6.44501 15.078C6.27701 15.301 6.129 15.5232 6.004 15.7462C5.98 15.7852 5.94499 15.8441 5.89499 15.9181C5.83599 15.8871 5.79299 15.8591 5.76999 15.8441C5.75399 15.8281 5.73001 15.8092 5.69901 15.7772L5.76999 15.5741C5.81999 15.4341 5.852 15.3051 5.867 15.1881C5.828 15.1291 5.785 15.086 5.742 15.055C5.723 15.039 5.70299 15.0231 5.67599 15.0081C5.62099 14.9691 5.53901 14.9101 5.44101 14.8321L4.67599 14.2662L3.797 13.6451C3.379 13.3481 3.15201 13.1882 3.11301 13.1722C3.05101 13.1452 2.99601 13.1371 2.94101 13.1451C2.89101 13.1521 2.82799 13.1881 2.76199 13.2501C2.62499 13.3791 2.52699 13.4612 2.47299 13.4962ZM6.88699 10.9022C6.68799 10.7032 6.52701 10.4651 6.40601 10.1881C6.32001 9.98807 6.266 9.77702 6.246 9.55502C6.23 9.33602 6.24999 9.10207 6.30899 8.85507C6.36699 8.61307 6.457 8.391 6.578 8.191C6.695 7.992 6.852 7.79714 7.047 7.60214C7.379 7.27014 7.72999 7.04702 8.10199 6.93002C8.47299 6.80902 8.83599 6.78497 9.18799 6.85897C9.64499 6.95697 10.027 7.16017 10.328 7.46517C10.781 7.91817 11.012 8.46108 11.027 9.09408C11.039 9.72308 10.77 10.312 10.219 10.859C10.082 10.992 9.94499 11.109 9.80899 11.211C9.70699 11.289 9.61299 11.3482 9.51999 11.3912C9.35899 11.4732 9.27 11.516 9.246 11.523C8.973 11.598 8.73001 11.637 8.52301 11.637C8.31201 11.637 8.10501 11.6091 7.90201 11.5511C7.78901 11.5161 7.609 11.426 7.367 11.285C7.211 11.195 7.05099 11.0662 6.88699 10.9022ZM7.18799 7.93002C7.04699 8.07002 6.957 8.22703 6.914 8.39803C6.871 8.57003 6.85899 8.72307 6.88699 8.85507C6.92599 9.07807 7.004 9.28897 7.121 9.48397C7.242 9.68397 7.41399 9.89518 7.64099 10.1212C7.77699 10.2582 7.87901 10.352 7.94901 10.398C7.97301 10.418 8.00801 10.445 8.06201 10.484C8.19501 10.59 8.297 10.6602 8.371 10.6952C8.645 10.8322 8.81599 10.91 8.89499 10.93C9.02299 10.961 9.17599 10.973 9.35199 10.961C9.44099 10.949 9.547 10.922 9.672 10.867C9.801 10.809 9.91 10.7341 10 10.6451C10.176 10.4731 10.297 10.2731 10.363 10.0431C10.43 9.81205 10.414 9.55903 10.312 9.27303C10.207 8.99203 10.004 8.69099 9.69101 8.37899C9.56601 8.24999 9.38301 8.08614 9.14801 7.88314L9.09 7.84799C9.07 7.83999 9.03099 7.81603 8.96899 7.77303C8.64499 7.57003 8.33201 7.48014 8.02701 7.50814C7.72301 7.53914 7.44099 7.68002 7.18799 7.93002ZM12.426 8.76205C12.395 8.69905 12.359 8.62515 12.328 8.53915C12.344 8.52315 12.383 8.49597 12.441 8.45297L12.559 8.35897C12.672 8.26997 12.75 8.19114 12.801 8.13314L12.43 7.36703L12.09 6.77718L11.984 6.59017L11.539 5.75399L11.391 5.50009L11.32 5.37118C11.191 5.13718 11.09 4.98811 11.012 4.92611C10.996 4.92611 10.977 4.934 10.949 4.941C10.93 4.953 10.91 4.95717 10.887 4.96517C10.789 5.00017 10.699 5.03515 10.625 5.07015L10.574 5.08212C10.516 5.10912 10.469 5.12109 10.438 5.12509C10.402 5.07409 10.379 5.03903 10.367 5.02303C10.355 5.00003 10.344 4.96505 10.336 4.91805C10.371 4.88305 10.418 4.85206 10.465 4.82406C10.586 4.75806 10.711 4.69505 10.844 4.63705C11.215 4.46105 11.613 4.26218 12.035 4.02718L12.984 3.48397L13.695 3.10214C14.223 2.81214 14.586 2.59397 14.793 2.45297C14.871 2.39497 14.93 2.35917 14.961 2.34017C15 2.32017 15.062 2.28899 15.152 2.25399C15.191 2.33199 15.227 2.40208 15.25 2.46908C15.012 2.66808 14.863 2.812 14.805 2.91C14.809 2.961 14.863 3.07414 14.965 3.25814L14.996 3.316L15.082 3.46517L15.449 4.12509L15.734 4.64803L15.953 5.03109L16.184 5.45297L16.383 5.80111C16.422 5.86711 16.461 5.94915 16.508 6.03915C16.555 6.02715 16.602 6.01599 16.641 6.00399C16.848 5.94099 17.012 5.9061 17.129 5.8951L17.258 6.10214L17.117 6.18417C17.094 6.19517 17.059 6.21497 17.012 6.23397L16.781 6.34799C16.613 6.42199 16.348 6.55509 15.992 6.75009C15.875 6.81609 15.77 6.879 15.676 6.941L15.379 7.13705C15.348 7.15205 15.312 7.16811 15.266 7.17611C15.215 7.07811 15.184 7.00799 15.176 6.97299L15.352 6.8121L15.457 6.72714C15.57 6.64114 15.641 6.57805 15.672 6.54305C15.645 6.43405 15.316 5.8092 14.691 4.6722L13.961 3.3951C13.898 3.4261 13.816 3.4652 13.719 3.5162L12.336 4.26205L12.309 4.27303C12.301 4.27303 12.293 4.285 12.285 4.285C12.273 4.293 12.258 4.3011 12.238 4.3121L12.109 4.38705C12 4.44905 11.934 4.49203 11.91 4.52303C12.012 4.73403 12.109 4.91815 12.191 5.07015L13.043 6.59408L13.516 7.44906C13.574 7.55906 13.617 7.62915 13.645 7.66415C13.664 7.67215 13.703 7.66405 13.766 7.63705L13.914 7.58212C13.977 7.55912 14.035 7.5352 14.094 7.5162L14.219 7.48007C14.246 7.46907 14.273 7.46508 14.297 7.46908C14.332 7.51208 14.352 7.53917 14.359 7.55917C14.375 7.58217 14.391 7.6212 14.406 7.6722L14.223 7.77718C14.148 7.81618 14.039 7.87107 13.898 7.93807L13.672 8.05917L13.516 8.13314L13.199 8.30111C13.121 8.34411 13.031 8.39808 12.934 8.46908L12.746 8.58602L12.426 8.76205ZM24.129 4.82406L23.746 4.88314L23.688 4.83212L20.836 1.785L20.793 1.76205L21.027 3.53915C21.078 3.97715 21.078 4.3051 21.02 4.5201C20.961 4.7341 20.859 4.90209 20.707 5.03109C20.559 5.15609 20.355 5.2342 20.105 5.2662C19.965 5.2852 19.824 5.246 19.688 5.16C19.551 5.07 19.473 4.94509 19.453 4.78109C19.438 4.66009 19.469 4.55508 19.539 4.46908C19.609 4.38308 19.695 4.33615 19.801 4.32015C19.859 4.31215 19.918 4.31999 19.988 4.34799C20.051 4.37099 20.137 4.44117 20.234 4.55917C20.352 4.70317 20.453 4.77005 20.531 4.76205C20.758 4.73405 20.828 4.34408 20.738 3.59408L20.66 3.08602L20.484 1.8912C20.457 1.6722 20.406 1.50803 20.336 1.39803C20.27 1.29303 20.18 1.21917 20.078 1.18417C19.973 1.14817 19.785 1.12512 19.52 1.11312L19.48 0.883142L19.762 0.847986L19.887 0.827966L20.066 0.801111L20.453 0.762048C20.52 0.750048 20.613 0.738079 20.734 0.719079L20.875 0.69906C20.898 0.69906 20.934 0.688073 20.973 0.688073L23.676 3.65609L23.363 1.58602C23.328 1.27702 23.324 1.03107 23.359 0.855066C23.395 0.680066 23.48 0.535148 23.617 0.414148C23.754 0.297148 23.93 0.22306 24.145 0.19906C24.363 0.17206 24.539 0.207204 24.68 0.297204C24.816 0.391204 24.898 0.516204 24.914 0.672204C24.93 0.797204 24.902 0.902122 24.832 0.988122C24.762 1.07412 24.672 1.12105 24.566 1.13705C24.508 1.14505 24.445 1.13297 24.383 1.10897C24.316 1.08597 24.234 1.0161 24.137 0.895105C24.016 0.754105 23.918 0.688154 23.848 0.695154C23.754 0.707154 23.691 0.762066 23.664 0.855066C23.633 0.953066 23.648 1.2582 23.707 1.7662C23.73 1.9382 23.754 2.10199 23.781 2.25399C23.867 2.75799 23.926 3.13309 23.957 3.37509L24.008 3.91805L24.02 4.03915L24.062 4.285L24.078 4.47714L24.117 4.691C24.121 4.727 24.125 4.77015 24.129 4.82015V4.82406ZM25.941 3.49618C25.609 3.53518 25.309 3.46911 25.047 3.30111C24.781 3.13311 24.633 2.88302 24.594 2.55502C24.555 2.23002 24.633 1.95308 24.832 1.71908C25.027 1.48408 25.309 1.34411 25.676 1.30111C26.051 1.25411 26.359 1.332 26.605 1.535C26.852 1.738 26.988 1.96097 27.016 2.20297C27.059 2.56197 26.98 2.85902 26.781 3.08602C26.586 3.31602 26.305 3.44918 25.941 3.49618ZM25.703 1.52718C25.566 1.54318 25.457 1.60907 25.379 1.73007C25.297 1.85207 25.281 2.11709 25.332 2.53109C25.395 3.05909 25.59 3.3052 25.918 3.2662C26.234 3.2272 26.355 2.91017 26.285 2.30917C26.219 1.75017 26.027 1.48818 25.703 1.52718ZM25.098 3.98812L26.16 3.85507L26.699 3.78915C26.781 3.77715 26.852 3.77303 26.906 3.77303C26.926 3.87903 26.941 3.95705 26.953 4.01205L26.965 4.066L26.973 4.24203C26.973 4.26203 26.977 4.31609 26.988 4.40609L25.16 4.62509L25.141 4.48007C25.133 4.42207 25.129 4.355 25.125 4.285L25.121 4.21517L25.098 4.0472C25.094 4.0352 25.098 4.02012 25.102 3.98812H25.098ZM29.48 0.422204C29.492 0.422204 29.57 0.430073 29.711 0.438073L29.82 0.44906L30.031 0.480066C30.031 0.555066 30.027 0.605198 30.023 0.641198C30.023 0.652198 30.02 0.688179 30.012 0.746179C30.004 0.777179 29.988 0.898066 29.965 1.10507L29.902 1.61312L29.867 1.93807L29.594 4.21102L29.574 4.40609C29.566 4.47309 29.578 4.52302 29.605 4.55502C29.633 4.59002 29.715 4.62109 29.848 4.65609C29.902 4.67209 30.008 4.69918 30.164 4.74618C30.168 4.77018 30.168 4.7931 30.164 4.8121C30.16 4.8361 30.152 4.89114 30.141 4.97714L29.996 4.96102C29.895 4.94902 29.754 4.9261 29.566 4.8951C29.453 4.8751 29.375 4.86297 29.332 4.85897C29.277 4.84797 29.078 4.8361 28.734 4.8121C28.695 4.8121 28.66 4.81211 28.637 4.80111L28.578 4.79305L28.48 4.77303H28.387L28.219 4.74618C28.199 4.74618 28.152 4.74618 28.082 4.74618C28.082 4.69518 28.082 4.65599 28.086 4.62899C28.09 4.60499 28.098 4.5662 28.105 4.5162C28.199 4.5042 28.305 4.48814 28.426 4.47714C28.594 4.46114 28.699 4.441 28.742 4.41C28.781 4.383 28.805 4.34015 28.809 4.28915L28.832 4.05917L28.871 3.80917L28.926 3.2972L28.941 3.16415C28.941 3.14515 28.953 3.07802 28.969 2.96102C28.977 2.90202 28.984 2.84811 28.988 2.80111C28.992 2.77011 29 2.68003 29.012 2.52303L29.047 2.33602C29.055 2.18802 29.059 2.10206 29.062 2.07406C29.066 2.03906 29.07 2.00399 29.074 1.97299L29.09 1.88705L29.109 1.65609L29.129 1.55502C29.137 1.50402 29.145 1.44512 29.152 1.36312C29.164 1.28912 29.172 1.19512 29.18 1.08212C29.004 1.18412 28.809 1.28514 28.594 1.38314C28.57 1.39114 28.461 1.42597 28.273 1.48397C28.215 1.37097 28.176 1.28507 28.16 1.23007C28.414 1.13307 28.586 1.05914 28.68 1.00814C28.832 0.926142 29 0.816073 29.18 0.688073C29.258 0.629073 29.359 0.539054 29.48 0.418054V0.422204Z" fill="#565757"/>
<path fill-rule="evenodd" clip-rule="evenodd" d="M3.46899 39.6089C2.69099 38.1559 2.06599 36.629 1.59799 35.031C1.12899 33.434 0.81201 31.7661 0.64801 30.0271H0.644988C0.394988 26.8361 0.67601 23.8239 1.48001 20.9919H1.48401C1.77301 19.9999 2.09401 19.0661 2.44501 18.1951C2.80101 17.3201 3.195 16.4999 3.621 15.7339L4.09799 16C3.68399 16.738 3.305 17.5389 2.953 18.3979C2.605 19.2619 2.289 20.1761 2.008 21.1411V21.145C1.219 23.91 0.945009 26.8589 1.19101 29.9839C1.35201 31.6879 1.66 33.3201 2.121 34.8831C2.582 36.4451 3.191 37.9379 3.949 39.3589L3.46899 39.6089Z" fill="#565757"/>
<path fill-rule="evenodd" clip-rule="evenodd" d="M31.637 3.19897C34.121 3.76997 36.457 4.70696 38.641 6.01196C40.824 7.31596 42.855 8.9881 44.738 11.0271C46.828 13.3671 48.441 16.0659 49.582 19.1289L49.07 19.3201C47.957 16.3241 46.379 13.68 44.336 11.395C42.488 9.39502 40.5 7.75405 38.363 6.47705C36.227 5.20305 33.945 4.28498 31.516 3.72998L31.637 3.19897Z" fill="#565757"/>
</svg>
