<svg width="28" height="28" viewBox="0 0 28 28" fill="none" xmlns="http://www.w3.org/2000/svg">
<path fill-rule="evenodd" clip-rule="evenodd" d="M2.47436 16.7379H5.59135C5.85335 16.7379 5.85336 16.625 6.15336 16.262C6.33736 16.039 6.43835 15.914 6.63435 15.723C7.55235 14.832 9.22836 15.0659 9.69636 16.3159C9.77436 16.5199 9.74336 16.508 9.95036 16.594C10.2784 16.73 10.3764 16.793 10.5994 17.016C11.2004 17.605 10.8884 17.73 11.2394 17.891C12.3414 18.398 11.7823 18.566 12.4663 18.758C12.5993 18.797 12.7043 18.84 12.8373 18.918C13.5673 19.336 13.9424 20.203 13.7394 21.039C13.6694 21.328 13.4663 21.59 13.4423 21.789C14.2593 22.207 15.0993 21.84 15.1103 20.672C15.4663 20.902 15.8603 21.242 16.4623 20.965C16.9663 20.73 17.0953 20.301 17.0673 19.773C17.2903 19.863 17.6773 20.383 18.4233 20.07C18.9423 19.855 19.0404 19.395 19.0564 18.883C19.2124 18.938 19.6533 19.492 20.3803 19.18C20.7823 19.004 21.1034 18.539 20.9894 17.977C20.8994 17.527 19.7474 16.254 19.4154 15.855C18.8494 15.18 18.3494 14.555 17.7714 13.852C17.4784 13.492 17.2514 13.207 16.9504 12.848L15.2864 10.812C15.1384 10.633 15.0323 10.5 14.8883 10.32C14.6883 10.078 14.6383 10.031 14.3133 10.219C13.5093 10.688 12.7744 11.102 11.9464 11.547C10.5364 12.297 8.47435 11.945 8.21635 10.539C8.06335 9.71897 8.48535 9.44095 8.41935 8.98795C8.29835 8.78095 7.00135 8.86295 6.70435 8.86295C6.08735 8.86295 5.44235 8.87898 4.82935 8.85898C5.21635 7.81598 6.55635 6.34795 7.39535 5.61295C10.6653 2.75795 15.6734 2.26997 19.5404 4.33597C19.6964 4.41797 19.8534 4.504 19.9974 4.59C20.1774 4.699 20.2864 4.79697 20.4744 4.86697C20.3684 5.25397 19.6384 5.68397 19.9314 6.12497C20.1104 6.39497 21.1264 6.35197 21.6184 6.37497C22.2314 6.39797 22.8764 6.45696 23.4894 6.46896C24.0244 6.48396 24.9853 6.715 24.8133 5.965C24.7783 5.801 24.5993 5.398 24.5443 5.254C24.4383 4.988 24.3724 4.80897 24.2674 4.54697C24.0994 4.10897 23.3883 1.93797 23.0633 1.82797C22.5953 1.67197 22.2984 2.48798 22.0214 2.73398C21.7204 2.62498 20.5833 1.74999 18.8023 1.14499C15.1693 -0.0820099 11.4313 0.284999 8.06335 2.004C4.77435 3.684 2.10336 7.12898 1.27836 10.812C1.02436 11.953 0.884358 13.121 0.931358 14.355C0.978358 15.664 1.02836 16.7379 2.47436 16.7379Z" fill="#2E5943"/>
<path fill-rule="evenodd" clip-rule="evenodd" d="M24.8213 16.7379C24.7983 17.2579 24.0913 18.738 23.8683 19.148C23.6653 19.527 23.4423 19.848 23.2083 20.184C22.8293 20.715 22.5013 21.098 22.0403 21.551C18.8953 24.676 14.0953 25.66 10.0053 23.797C9.61434 23.621 9.23934 23.434 8.88434 23.227C8.63434 23.082 8.03633 22.727 7.85634 22.512C7.95434 22.352 8.15734 22.125 8.29034 21.961C9.11434 20.945 7.58734 21.07 6.82534 20.977C6.24334 20.906 5.63033 20.84 5.05233 20.797C4.57133 20.762 3.60635 20.469 3.56035 21.051C3.54035 21.262 4.35335 23.648 4.47435 24.031C4.55235 24.273 4.63034 24.531 4.70834 24.77C4.79434 25.02 4.82134 25.312 5.04434 25.422C5.36834 25.586 5.56335 25.324 5.69635 25.156C5.82935 24.992 6.02134 24.73 6.16934 24.59C6.67334 24.801 7.52134 25.77 10.0483 26.648C14.7043 28.266 20.1813 27.0659 23.6033 23.7379C23.8413 23.504 24.0523 23.301 24.3413 23.008C24.6103 22.734 24.8023 22.438 25.0283 22.18C26.3253 20.695 27.3953 18.055 27.7283 15.938C28.0213 14.031 27.8953 12.352 27.4663 10.562C27.3723 10.164 27.2983 9.77697 27.0953 9.46897C26.9073 9.17997 26.6063 8.92999 26.1613 8.89499C25.2473 8.82399 24.1263 8.90596 23.1813 8.89096C21.9743 8.87096 19.8923 7.89098 18.7003 7.44498L16.5403 6.62094C15.7283 6.29294 14.9193 6.14497 13.9933 6.42997C12.9463 6.75797 11.3723 8.16 10.4423 8.84C10.1613 9.047 9.89533 9.26596 9.61033 9.47696C9.36433 9.65996 8.94634 9.91396 9.16534 10.438C9.43834 11.098 10.7393 11.074 11.3723 10.754C11.7123 10.582 12.0133 10.395 12.3173 10.23L14.2353 9.15995C14.6573 8.92995 14.8803 8.78899 15.2713 9.26999L21.6613 17.039C21.8493 17.242 21.9313 17.18 22.1303 17.012C22.4973 16.691 22.7713 16.7379 23.3133 16.7379C23.8133 16.7379 24.3213 16.7499 24.8213 16.7379Z" fill="#2E5943"/>
</svg>
